<svg width="806" height="3" viewBox="0 0 806 3" fill="none" xmlns="http://www.w3.org/2000/svg">
<path d="M0.5 0.938599C0.223858 0.938599 0 1.16246 0 1.4386C0 1.71474 0.223858 1.9386 0.5 1.9386V1.4386V0.938599ZM0.6 1.4386L0.762603 0.965777L0.683573 0.938599H0.6V1.4386ZM24.25 1.65981L24.1557 1.16878L24.25 1.65981ZM26.15 1.77008L26.2972 1.29225L26.15 1.77008ZM28.05 1.73059L28.215 2.20258L28.05 1.73059ZM33.75 0.790842L33.6934 0.294051L33.75 0.790842ZM39.45 1.0132L39.2287 1.46154L39.45 1.0132ZM56.55 1.19444L56.5445 1.69441L56.55 1.19444ZM60.35 1.65962L60.4671 2.14571L60.35 1.65962ZM64.15 1.75369L64.0002 2.23074L64.15 1.75369ZM66.05 1.92949L65.9861 1.43359L66.05 1.92949ZM69.85 0.943625L70.0707 1.39229L69.85 0.943625ZM71.75 0.653747L71.8418 0.162242L71.75 0.653747ZM75.55 2.10118L75.3897 2.57479L75.55 2.10118ZM79.35 1.94991L79.3742 1.4505L79.35 1.94991ZM81.25 1.64109L81.4249 2.1095L81.25 1.64109ZM85.05 0.503607L85.0233 0.00431895L85.05 0.503607ZM88.85 1.63283L89.1773 2.01078L88.85 1.63283ZM90.75 1.15156L90.9192 0.681041L90.75 1.15156ZM92.65 1.14615L92.4785 0.676493L92.65 1.14615ZM94.55 1.05562L94.4197 1.53835L94.55 1.05562ZM98.35 1.26575L98.487 1.74662L98.35 1.26575ZM100.25 1.63842L100.53 1.2244L100.25 1.63842ZM105.95 1.26675L105.815 1.74828L105.95 1.26675ZM115.45 1.20615L115.255 0.745732L115.45 1.20615ZM117.35 0.905841L117.403 0.408698L117.35 0.905841ZM123.05 1.12923L123.32 0.708705L123.05 1.12923ZM126.85 1.58804L127.1 2.02101L126.85 1.58804ZM128.75 0.775261L128.616 0.293527L128.75 0.775261ZM132.55 1.65442L132.848 2.0562L132.55 1.65442ZM136.35 0.809979L136.288 1.30609L136.35 0.809979ZM138.25 0.894213L138.232 0.394552L138.25 0.894213ZM142.05 1.37851L141.969 1.87187L142.05 1.37851ZM147.75 1.45066L147.993 1.8878L147.75 1.45066ZM151.55 0.882767L151.682 0.400601L151.55 0.882767ZM157.25 1.08857L157.048 1.54613L157.25 1.08857ZM161.05 1.44451L160.985 0.948721L161.05 1.44451ZM166.75 0.726848L166.777 1.22613L166.75 0.726848ZM170.55 0.970195L170.746 1.43032L170.55 0.970195ZM176.25 1.03921L176.012 0.599734L176.25 1.03921ZM180.05 1.30021L180.008 1.79842L180.05 1.30021ZM185.75 0.767552L185.801 1.26493L185.75 0.767552ZM189.55 1.20232L189.807 0.77366L189.55 1.20232ZM195.25 1.85396L195.166 1.36112L195.25 1.85396ZM199.05 1.71397L198.945 2.20274L199.05 1.71397ZM202.85 0.878192L202.874 1.37763L202.85 0.878192ZM204.75 1.14865L204.592 1.62314L204.75 1.14865ZM212.35 1.35307L212.229 0.867891L212.35 1.35307ZM214.25 1.15211L214.269 0.652463L214.25 1.15211ZM218.05 0.645704L218.017 1.14463L218.05 0.645704ZM221.85 0.887219L221.859 0.387305L221.85 0.887219ZM223.75 0.815081L223.703 0.317297L223.75 0.815081ZM227.55 1.05115L227.816 0.627482L227.55 1.05115ZM231.35 1.47696L231 1.11956L231.35 1.47696ZM233.25 0.679204L233.319 0.18394L233.25 0.679204ZM237.05 1.6582L236.924 1.17428L237.05 1.6582ZM240.85 1.91172L241.04 1.44928L240.85 1.91172ZM242.75 1.77069L242.506 1.33437L242.75 1.77069ZM246.55 1.54323L246.865 1.93114L246.55 1.54323ZM250.35 1.53651L250.045 1.14003L250.35 1.53651ZM252.25 1.38872L252.511 0.962399L252.25 1.38872ZM256.05 2.12801L255.958 1.63653L256.05 2.12801ZM263.65 1.35329L263.978 0.975914L263.65 1.35329ZM271.25 1.55032L270.922 1.17324L271.25 1.55032ZM278.85 1.90138L278.676 1.43262L278.85 1.90138ZM282.65 1.15183L282.448 0.69445L282.65 1.15183ZM295.95 0.956452L295.921 0.457278L295.95 0.956452ZM301.65 1.41002L301.878 1.8548L301.65 1.41002ZM305.45 1.65562L305.408 2.15384L305.45 1.65562ZM320.65 1.14479L320.451 1.6034L320.65 1.14479ZM339.65 1.32203L339.991 1.68739L339.65 1.32203ZM358.65 1.69329L358.645 1.19331L358.65 1.69329ZM375.75 1.04002L375.634 1.52649L375.75 1.04002ZM377.65 1.83808L377.908 1.40981L377.65 1.83808ZM396.65 1.7024L396.41 1.26359L396.65 1.7024ZM406.15 0.939048L406.271 0.453788L406.15 0.939048ZM409.95 1.34361L409.665 0.932667L409.95 1.34361ZM417.55 1.21816L417.673 1.70274L417.55 1.21816ZM421.35 0.94919L421.337 1.44902L421.35 0.94919ZM425.15 1.23853L425.033 1.72469L425.15 1.23853ZM427.05 1.40982L427.08 1.90892L427.05 1.40982ZM436.55 1.70721L436.256 1.3025L436.55 1.70721ZM444.15 2.11467L444.275 1.63066L444.15 2.11467ZM447.95 1.21094L447.675 1.62851L447.95 1.21094ZM455.55 1.72871L455.629 2.22246L455.55 1.72871ZM463.15 1.32304L463.014 1.80427L463.15 1.32304ZM465.05 1.52464L465.085 2.02343L465.05 1.52464ZM468.85 0.955924L468.784 0.460367L468.85 0.955924ZM474.55 1.89228L474.322 2.33745L474.55 1.89228ZM482.15 1.77437L482.324 1.30579L482.15 1.77437ZM485.95 1.40308L485.87 1.89667L485.95 1.40308ZM493.55 1.29498L493.845 0.891357L493.55 1.29498ZM501.15 1.78231L500.869 1.36873L501.15 1.78231ZM504.95 0.911375L505.047 0.420942L504.95 0.911375ZM512.55 1.09373L512.526 0.594328L512.55 1.09373ZM516.35 1.58126L516.304 2.07911L516.35 1.58126ZM527.75 1.88828L527.893 2.36747L527.75 1.88828ZM533.45 1.04596L533.312 1.52655L533.45 1.04596ZM550.55 0.832298L550.529 1.33184L550.55 0.832298ZM554.35 1.74668L554.57 2.19568L554.35 1.74668ZM561.95 1.06433L561.846 0.575188L561.95 1.06433ZM565.75 1.35811L565.448 1.7562L565.75 1.35811ZM569.55 1.86728L569.349 2.32521L569.55 1.86728ZM579.05 1.00077L579.177 0.517153L579.05 1.00077ZM592.35 1.43237L591.986 1.08971L592.35 1.43237ZM599.95 0.783563L599.939 1.28345L599.95 0.783563ZM603.75 1.43416L604.035 1.02299L603.75 1.43416ZM617.05 1.15105L617.034 0.651322L617.05 1.15105ZM626.55 1.76113L626.776 2.20734L626.55 1.76113ZM630.35 1.51668L630.419 1.02142L630.35 1.51668ZM639.85 0.586123L639.799 0.0887548L639.85 0.586123ZM641.75 1.04843L641.496 1.47913L641.75 1.04843ZM645.55 1.30117L645.395 1.77646L645.55 1.30117ZM655.05 2.18939L655.161 2.67699L655.05 2.18939ZM668.35 0.744701L668.211 0.264424L668.35 0.744701ZM677.85 1.34035L677.939 1.83239L677.85 1.34035ZM679.75 1.04517L679.815 1.54099L679.75 1.04517ZM693.05 1.50183L692.755 1.09816L693.05 1.50183ZM706.35 0.928643L706.44 0.436857L706.35 0.928643ZM710.15 1.87599L709.915 1.43454L710.15 1.87599ZM717.75 1.23134L717.588 1.70438L717.75 1.23134ZM721.55 1.21368L721.445 1.70245L721.55 1.21368ZM731.05 1.69728L731.287 1.25726L731.05 1.69728ZM744.35 1.74375L744.113 2.18376L744.35 1.74375ZM755.75 1.9483L755.793 2.4465L755.75 1.9483ZM769.05 1.47877L769.011 1.97721L769.05 1.47877ZM782.35 2.17014L782.45 1.68024L782.35 2.17014ZM793.75 1.79836L793.67 1.30489L793.75 1.79836ZM797.55 1.46399L797.505 0.966029L797.55 1.46399ZM799.45 0.930399L799.237 0.478092L799.45 0.930399ZM804.85 2.02348L804.968 1.53769L804.85 2.02348ZM805.5 1.81022H806V1.74413L805.983 1.6803L805.5 1.81022ZM805.4 1.4386V0.938599H804.748L804.917 1.56852L805.4 1.4386ZM805.5 1.9386C805.776 1.9386 806 1.71474 806 1.4386C806 1.16246 805.776 0.938599 805.5 0.938599V1.4386V1.9386ZM0.5 1.4386V1.9386H0.6V1.4386V0.938599H0.5V1.4386ZM0.6 1.4386L0.437397 1.91142C1.67786 2.33801 2.77207 2.42136 3.59682 1.95322L3.35 1.51839L3.10318 1.08355C2.66126 1.33439 1.92214 1.36454 0.762603 0.965777L0.6 1.4386ZM3.35 1.51839L3.59682 1.95322C4.17724 1.62376 4.74256 1.44082 5.29547 1.39032L5.25 0.892395L5.20453 0.394467C4.49077 0.45965 3.78943 0.69403 3.10318 1.08355L3.35 1.51839ZM5.25 0.892395L5.29547 1.39032C5.88233 1.33673 6.46943 1.36469 7.05809 1.47477L7.15 0.983293L7.24191 0.491813C6.5639 0.365021 5.88434 0.332384 5.20453 0.394467L5.25 0.892395ZM7.15 0.983293L7.05809 1.47477C7.72728 1.59992 8.39772 1.65013 9.06874 1.62496L9.05 1.12531L9.03126 0.625666C8.43561 0.648009 7.83939 0.603545 7.24191 0.491813L7.15 0.983293ZM9.05 1.12531L9.06874 1.62496C9.69512 1.60147 10.3215 1.59107 10.9478 1.59377L10.95 1.09378L10.9522 0.593784C10.3119 0.59102 9.67155 0.601648 9.03126 0.625666L9.05 1.12531ZM10.95 1.09378L10.9478 1.59377C11.4665 1.59601 12.0067 1.76658 12.5752 2.14065L12.85 1.72295L13.1248 1.30526C12.4267 0.845895 11.7001 0.597012 10.9522 0.593784L10.95 1.09378ZM12.85 1.72295L12.5752 2.14065C12.9596 2.39361 13.3745 2.53451 13.8112 2.5247C14.247 2.51491 14.658 2.35613 15.0375 2.08934L14.75 1.68028L14.4625 1.27122C14.2087 1.4496 13.9863 1.52051 13.7888 1.52495C13.5922 1.52936 13.3737 1.46902 13.1248 1.30526L12.85 1.72295ZM14.75 1.68028L15.0375 2.08934C15.6032 1.69172 16.1338 1.52279 16.6383 1.53455L16.65 1.03469L16.6617 0.534824C15.8995 0.517053 15.1635 0.778514 14.4625 1.27122L14.75 1.68028ZM16.65 1.03469L16.6383 1.53455C17.1991 1.54763 17.7672 1.67953 18.3457 1.93851L18.55 1.48216L18.7543 1.02581C18.0661 0.717698 17.3676 0.551284 16.6617 0.534824L16.65 1.03469ZM18.55 1.48216L18.3457 1.93851C19.051 2.25431 19.7714 2.38318 20.499 2.31154L20.45 1.81395L20.401 1.31635C19.862 1.36943 19.3156 1.27711 18.7543 1.02581L18.55 1.48216ZM20.45 1.81395L20.499 2.31154C21.1055 2.25182 21.7117 2.24142 22.318 2.28028L22.35 1.7813L22.382 1.28233C21.7216 1.24 21.0612 1.25135 20.401 1.31635L20.45 1.81395ZM22.35 1.7813L22.318 2.28028C22.9943 2.32363 23.67 2.28029 24.3443 2.15084L24.25 1.65981L24.1557 1.16878C23.5633 1.28252 22.9724 1.32017 22.382 1.28233L22.35 1.7813ZM24.25 1.65981L24.3443 2.15084C24.895 2.04511 25.4454 2.07621 26.0028 2.24792L26.15 1.77008L26.2972 1.29225C25.5879 1.07373 24.8717 1.03132 24.1557 1.16878L24.25 1.65981ZM26.15 1.77008L26.0028 2.24792C26.7395 2.47488 27.4823 2.45878 28.215 2.20258L28.05 1.73059L27.885 1.25861C27.3511 1.44528 26.8272 1.45551 26.2972 1.29225L26.15 1.77008ZM28.05 1.73059L28.215 2.20258C28.7947 1.99991 29.3679 1.90799 29.9372 1.92252L29.95 1.42268L29.9628 0.922847C29.2655 0.905049 28.572 1.0184 27.885 1.25861L28.05 1.73059ZM29.95 1.42268L29.9372 1.92252C30.6238 1.94004 31.3081 1.84963 31.9885 1.65338L31.85 1.17296L31.7115 0.692541C31.1253 0.861592 30.5429 0.937655 29.9628 0.922847L29.95 1.42268ZM31.85 1.17296L31.9885 1.65338C32.596 1.47821 33.2019 1.35647 33.8066 1.28763L33.75 0.790842L33.6934 0.294051C33.0314 0.369415 32.3707 0.502421 31.7115 0.692541L31.85 1.17296ZM33.75 0.790842L33.8066 1.28763C34.2746 1.23435 34.7792 1.38536 35.3383 1.83114L35.65 1.44021L35.9617 1.04928C35.2541 0.485032 34.4921 0.203135 33.6934 0.294051L33.75 0.790842ZM35.65 1.44021L35.3383 1.83114C35.7217 2.13692 36.152 2.31832 36.6182 2.30133C37.0816 2.28444 37.5034 2.07431 37.8782 1.74813L37.55 1.37096L37.2218 0.993794C36.9632 1.21879 36.7517 1.2958 36.5818 1.30199C36.4147 1.30808 36.2116 1.24852 35.9617 1.04928L35.65 1.44021ZM37.55 1.37096L37.8782 1.74813C38.1477 1.51364 38.3858 1.39843 38.5925 1.3595C38.7923 1.32188 38.9993 1.34832 39.2287 1.46154L39.45 1.0132L39.6713 0.564866C39.2673 0.365412 38.841 0.295145 38.4075 0.376772C37.9809 0.4571 37.5856 0.677103 37.2218 0.993794L37.55 1.37096ZM39.45 1.0132L39.2287 1.46154C40.0136 1.84908 40.8204 1.82069 41.5928 1.39168L41.35 0.954576L41.1072 0.51747C40.613 0.791984 40.153 0.802682 39.6713 0.564866L39.45 1.0132ZM41.35 0.954576L41.5928 1.39168C42.1512 1.08152 42.6853 0.963342 43.2055 1.00981L43.25 0.51179L43.2945 0.0137724C42.548 -0.052904 41.8155 0.124107 41.1072 0.51747L41.35 0.954576ZM43.25 0.51179L43.2055 1.00981C43.8361 1.06613 44.4667 1.12774 45.0973 1.19463L45.15 0.69742L45.2027 0.20021C44.5667 0.132736 43.9306 0.0705898 43.2945 0.0137724L43.25 0.51179ZM45.15 0.69742L45.0973 1.19463C45.6879 1.25729 46.2816 1.39636 46.879 1.61373L47.05 1.14386L47.221 0.673999C46.5517 0.430478 45.8787 0.271917 45.2027 0.20021L45.15 0.69742ZM47.05 1.14386L46.879 1.61373C47.643 1.89169 48.4145 1.84692 49.1632 1.49404L48.95 1.04176L48.7368 0.589484C48.2188 0.833629 47.7237 0.856921 47.221 0.673999L47.05 1.14386ZM48.95 1.04176L49.1632 1.49404C49.3974 1.38364 49.6124 1.35451 49.8205 1.38802C50.0333 1.4223 50.2725 1.52781 50.5392 1.73946L50.85 1.34778L51.1608 0.956096C50.7942 0.665225 50.4 0.468471 49.9795 0.400746C49.5542 0.33225 49.1359 0.401374 48.7368 0.589484L48.95 1.04176ZM50.85 1.34778L50.5392 1.73946C50.9212 2.04255 51.3478 2.22433 51.8095 2.21551C52.2699 2.20672 52.6922 2.00985 53.0697 1.69593L52.75 1.3115L52.4303 0.92707C52.1744 1.13985 51.9634 1.21239 51.7905 1.21569C51.6189 1.21897 51.4121 1.15553 51.1608 0.956096L50.85 1.34778ZM52.75 1.3115L53.0697 1.69593C53.6039 1.25165 54.0573 1.17558 54.4854 1.32485L54.65 0.85273L54.8146 0.380613C53.976 0.0881587 53.1627 0.317936 52.4303 0.92707L52.75 1.3115ZM54.65 0.85273L54.4854 1.32485C55.1669 1.5625 55.8538 1.68683 56.5445 1.69441L56.55 1.19444L56.5555 0.694473C55.9795 0.688152 55.3998 0.584679 54.8146 0.380613L54.65 0.85273ZM56.55 1.19444L56.5445 1.69441C57.1186 1.70071 57.6966 1.807 58.2807 2.01714L58.45 1.54667L58.6193 1.07619C57.9367 0.830605 57.2481 0.702073 56.5555 0.694473L56.55 1.19444ZM58.45 1.54667L58.2807 2.01714C59.0027 2.27691 59.7355 2.32194 60.4671 2.14571L60.35 1.65962L60.2329 1.17352C59.6978 1.30243 59.1639 1.27216 58.6193 1.07619L58.45 1.54667ZM60.35 1.65962L60.4671 2.14571C61.0611 2.00261 61.653 1.93539 62.2435 1.94308L62.25 1.44312L62.2565 0.943161C61.5804 0.934366 60.9055 1.01148 60.2329 1.17352L60.35 1.65962ZM62.25 1.44312L62.2435 1.94308C62.8259 1.95065 63.4111 2.04579 64.0002 2.23074L64.15 1.75369L64.2998 1.27665C63.6223 1.06398 62.9407 0.952061 62.2565 0.943161L62.25 1.44312ZM64.15 1.75369L64.0002 2.23074C64.6998 2.45034 65.406 2.51662 66.1139 2.42539L66.05 1.92949L65.9861 1.43359C65.4274 1.50559 64.8669 1.45467 64.2998 1.27665L64.15 1.75369ZM66.05 1.92949L66.1139 2.42539C66.7602 2.34211 67.4063 2.23311 68.0521 2.09845L67.95 1.60898L67.8479 1.11951C67.2271 1.24897 66.6065 1.35365 65.9861 1.43359L66.05 1.92949ZM67.95 1.60898L68.0521 2.09845C68.73 1.95709 69.4031 1.72066 70.0707 1.39229L69.85 0.943625L69.6293 0.49496C69.0303 0.789608 68.4366 0.996755 67.8479 1.11951L67.95 1.60898ZM69.85 0.943625L70.0707 1.39229C70.617 1.12359 71.1412 1.0487 71.6582 1.14525L71.75 0.653747L71.8418 0.162242C71.0922 0.0222749 70.3497 0.140638 69.6293 0.49496L69.85 0.943625ZM71.75 0.653747L71.6582 1.14525C72.2416 1.25418 72.8309 1.4553 73.4267 1.75274L73.65 1.30539L73.8733 0.858031C73.2025 0.523132 72.5251 0.289827 71.8418 0.162242L71.75 0.653747ZM73.65 1.30539L73.4267 1.75274C74.0792 2.07849 74.7336 2.35271 75.3897 2.57479L75.55 2.10118L75.7103 1.62758C75.0998 1.42093 74.4875 1.16461 73.8733 0.858031L73.65 1.30539ZM75.55 2.10118L75.3897 2.57479C76.1155 2.82044 76.8505 2.84535 77.5817 2.6457L77.45 2.16335L77.3183 1.68101C76.7829 1.8272 76.2512 1.81065 75.7103 1.62758L75.55 2.10118ZM77.45 2.16335L77.5817 2.6457C78.1661 2.48613 78.7469 2.42133 79.3259 2.44933L79.35 1.94991L79.3742 1.4505C78.6865 1.41724 78.0006 1.49473 77.3183 1.68101L77.45 2.16335ZM79.35 1.94991L79.3259 2.44933C80.0314 2.48345 80.7323 2.36815 81.4249 2.1095L81.25 1.64109L81.0751 1.17269C80.501 1.38705 79.9353 1.47763 79.3742 1.4505L79.35 1.94991ZM81.25 1.64109L81.4249 2.1095C82.0599 1.87239 82.6948 1.63153 83.3297 1.38693L83.15 0.920352L82.9703 0.453777C82.3385 0.697149 81.7068 0.936786 81.0751 1.17269L81.25 1.64109ZM83.15 0.920352L83.3297 1.38693C83.9175 1.16049 84.4993 1.03374 85.0767 1.00289L85.05 0.503607L85.0233 0.00431895C84.334 0.0411518 83.6491 0.192241 82.9703 0.453777L83.15 0.920352ZM85.05 0.503607L85.0767 1.00289C85.5074 0.97988 86.008 1.1878 86.5873 1.79836L86.95 1.45424L87.3127 1.11012C86.6253 0.385485 85.8593 -0.0403501 85.0233 0.00431895L85.05 0.503607ZM86.95 1.45424L86.5873 1.79836C86.9506 2.1814 87.3721 2.45217 87.8532 2.49739C88.345 2.54362 88.7917 2.34478 89.1773 2.01078L88.85 1.63283L88.5227 1.25488C88.275 1.46942 88.0884 1.51509 87.9468 1.50178C87.7946 1.48748 87.5827 1.39468 87.3127 1.11012L86.95 1.45424ZM88.85 1.63283L89.1773 2.01078C89.7133 1.54659 90.1614 1.47127 90.5808 1.62208L90.75 1.15156L90.9192 0.681041C90.072 0.37647 89.2534 0.622004 88.5227 1.25488L88.85 1.63283ZM90.75 1.15156L90.5808 1.62208C91.3246 1.88945 92.0784 1.88718 92.8215 1.61582L92.65 1.14615L92.4785 0.676493C91.9549 0.86771 91.4421 0.869048 90.9192 0.681041L90.75 1.15156ZM92.65 1.14615L92.8215 1.61582C93.3609 1.41884 93.8888 1.39507 94.4197 1.53835L94.55 1.05562L94.6803 0.572899C93.9445 0.374306 93.2058 0.410883 92.4785 0.676493L92.65 1.14615ZM94.55 1.05562L94.4197 1.53835C95.0759 1.71546 95.7332 1.84303 96.3914 1.92074L96.45 1.42419L96.5086 0.92764C95.9002 0.855805 95.2908 0.737671 94.6803 0.572899L94.55 1.05562ZM96.45 1.42419L96.3914 1.92074C97.0925 2.00351 97.7922 1.94451 98.487 1.74662L98.35 1.26575L98.213 0.784878C97.6411 0.947786 97.0742 0.994414 96.5086 0.92764L96.45 1.42419ZM98.35 1.26575L98.487 1.74662C98.9544 1.61347 99.4367 1.69156 99.9697 2.05243L100.25 1.63842L100.53 1.2244C99.7966 0.727583 99.0122 0.557235 98.213 0.784878L98.35 1.26575ZM100.25 1.63842L99.9697 2.05243C100.701 2.54744 101.481 2.72424 102.278 2.5123L102.15 2.02909L102.022 1.54588C101.552 1.67073 101.066 1.58708 100.53 1.2244L100.25 1.63842ZM102.15 2.02909L102.278 2.5123C102.933 2.33821 103.587 2.11789 104.239 1.85174L104.05 1.3888L103.861 0.925871C103.247 1.17665 102.633 1.38319 102.022 1.54588L102.15 2.02909ZM104.05 1.3888L104.239 1.85174C104.774 1.63341 105.293 1.60235 105.815 1.74828L105.95 1.26675L106.085 0.785222C105.34 0.576957 104.593 0.627265 103.861 0.925871L104.05 1.3888ZM105.95 1.26675L105.815 1.74828C106.487 1.93606 107.161 2.03919 107.837 2.05636L107.85 1.55652L107.863 1.05668C107.272 1.04168 106.68 0.951629 106.085 0.785222L105.95 1.26675ZM107.85 1.55652L107.837 2.05636C108.422 2.07122 109.01 2.16957 109.602 2.35339L109.75 1.87592L109.898 1.39845C109.223 1.18857 108.544 1.07398 107.863 1.05668L107.85 1.55652ZM109.75 1.87592L109.602 2.35339C110.35 2.58616 111.104 2.54515 111.841 2.23994L111.65 1.77796L111.459 1.31597C110.929 1.53509 110.416 1.55939 109.898 1.39845L109.75 1.87592ZM111.65 1.77796L111.841 2.23994C112.402 2.00793 112.949 1.92931 113.492 1.99315L113.55 1.49658L113.608 1.00001C112.884 0.914704 112.165 1.02367 111.459 1.31597L111.65 1.77796ZM113.55 1.49658L113.492 1.99315C114.218 2.07867 114.938 1.96587 115.645 1.66657L115.45 1.20615L115.255 0.745732C114.695 0.98283 114.149 1.06365 113.608 1.00001L113.55 1.49658ZM115.45 1.20615L115.645 1.66657C116.206 1.42881 116.755 1.34479 117.297 1.40298L117.35 0.905841L117.403 0.408698C116.679 0.330911 115.96 0.447094 115.255 0.745732L115.45 1.20615ZM117.35 0.905841L117.297 1.40298C117.905 1.46826 118.514 1.58038 119.124 1.73969L119.25 1.25591L119.376 0.772135C118.72 0.600663 118.062 0.479404 117.403 0.408698L117.35 0.905841ZM119.25 1.25591L119.124 1.73969C119.888 1.93926 120.648 1.83494 121.38 1.45492L121.15 1.0111L120.92 0.567281C120.386 0.844458 119.879 0.903338 119.376 0.772135L119.25 1.25591ZM121.15 1.0111L121.38 1.45492C121.844 1.2143 122.287 1.23273 122.78 1.54976L123.05 1.12923L123.32 0.708705C122.547 0.211028 121.723 0.150708 120.92 0.567281L121.15 1.0111ZM123.05 1.12923L122.78 1.54976C123.456 1.98485 124.146 2.28144 124.848 2.42796L124.95 1.9385L125.052 1.44905C124.488 1.33124 123.911 1.08831 123.32 0.708705L123.05 1.12923ZM124.95 1.9385L124.848 2.42796C125.617 2.58854 126.375 2.43971 127.1 2.02101L126.85 1.58804L126.6 1.15508C126.058 1.46798 125.549 1.55279 125.052 1.44905L124.95 1.9385ZM126.85 1.58804L127.1 2.02101C127.701 1.67396 128.295 1.42057 128.884 1.25699L128.75 0.775261L128.616 0.293527C127.938 0.482058 127.266 0.770521 126.6 1.15508L126.85 1.58804ZM128.75 0.775261L128.884 1.25699C129.288 1.14456 129.746 1.2532 130.301 1.79317L130.65 1.43465L130.999 1.07613C130.287 0.384809 129.478 0.0538551 128.616 0.293527L128.75 0.775261ZM130.65 1.43465L130.301 1.79317C130.667 2.14878 131.081 2.39462 131.543 2.44801C132.013 2.50249 132.454 2.3476 132.848 2.0562L132.55 1.65442L132.252 1.25264C132.012 1.43038 131.82 1.47343 131.657 1.45464C131.486 1.43477 131.266 1.33616 130.999 1.07613L130.65 1.43465ZM132.55 1.65442L132.848 2.0562C133.429 1.62558 133.985 1.38903 134.518 1.31613L134.45 0.820744L134.382 0.32536C133.648 0.425772 132.938 0.74501 132.252 1.25264L132.55 1.65442ZM134.45 0.820744L134.518 1.31613C135.108 1.23536 135.698 1.23204 136.288 1.30609L136.35 0.809979L136.412 0.31387C135.736 0.228961 135.059 0.23281 134.382 0.32536L134.45 0.820744ZM136.35 0.809979L136.288 1.30609C136.948 1.3889 137.608 1.4182 138.268 1.39387L138.25 0.894213L138.232 0.394552C137.625 0.416877 137.019 0.390018 136.412 0.31387L136.35 0.809979ZM138.25 0.894213L138.268 1.39387C138.863 1.37196 139.459 1.41778 140.056 1.53182L140.15 1.0407L140.244 0.54958C139.574 0.421661 138.903 0.369819 138.232 0.394552L138.25 0.894213ZM140.15 1.0407L140.056 1.53182C140.694 1.6536 141.331 1.76695 141.969 1.87187L142.05 1.37851L142.131 0.885142C141.502 0.781617 140.873 0.669764 140.244 0.54958L140.15 1.0407ZM142.05 1.37851L141.969 1.87187C142.665 1.98651 143.363 1.96698 144.057 1.81415L143.95 1.32582L143.843 0.837504C143.271 0.963354 142.701 0.97895 142.131 0.885142L142.05 1.37851ZM143.95 1.32582L144.057 1.81415C144.578 1.69972 145.101 1.7569 145.644 2.00285L145.85 1.54745L146.056 1.09206C145.332 0.763815 144.589 0.673243 143.843 0.837504L143.95 1.32582ZM145.85 1.54745L145.644 2.00285C146.428 2.35843 147.228 2.3125 147.993 1.8878L147.75 1.45066L147.507 1.01351C147.006 1.29207 146.539 1.31067 146.056 1.09206L145.85 1.54745ZM147.75 1.45066L147.993 1.8878C148.582 1.56089 149.16 1.3566 149.728 1.26645L149.65 0.772617L149.572 0.278784C148.874 0.389439 148.185 0.637175 147.507 1.01351L147.75 1.45066ZM149.65 0.772617L149.728 1.26645C150.29 1.17746 150.851 1.20945 151.418 1.36493L151.55 0.882767L151.682 0.400601C150.982 0.208407 150.277 0.166971 149.572 0.278784L149.65 0.772617ZM151.55 0.882767L151.418 1.36493C152.03 1.53315 152.645 1.74363 153.26 1.99673L153.45 1.53433L153.64 1.07193C152.989 0.803957 152.336 0.580064 151.682 0.400601L151.55 0.882767ZM153.45 1.53433L153.26 1.99673C154.065 2.32789 154.872 2.21284 155.626 1.7148L155.35 1.2976L155.074 0.880403C154.562 1.21908 154.102 1.26185 153.64 1.07193L153.45 1.53433ZM155.35 1.2976L155.626 1.7148C156.133 1.37936 156.588 1.34319 157.048 1.54613L157.25 1.08857L157.452 0.630998C156.646 0.27593 155.833 0.379121 155.074 0.880403L155.35 1.2976ZM157.25 1.08857L157.048 1.54613C157.735 1.84854 158.431 2.01481 159.134 2.03757L159.15 1.53783L159.166 1.03809C158.602 1.01984 158.032 0.886605 157.452 0.630998L157.25 1.08857ZM159.15 1.53783L159.134 2.03757C159.794 2.05895 160.455 2.02649 161.115 1.9403L161.05 1.44451L160.985 0.948721C160.379 1.02796 159.772 1.05771 159.166 1.03809L159.15 1.53783ZM161.05 1.44451L161.115 1.9403C161.637 1.87212 162.169 1.96777 162.723 2.25013L162.95 1.80466L163.177 1.35919C162.464 0.995913 161.73 0.851469 160.985 0.948721L161.05 1.44451ZM162.95 1.80466L162.723 2.25013C163.121 2.45289 163.541 2.53531 163.971 2.47391C164.396 2.41321 164.793 2.21737 165.161 1.92464L164.85 1.53331L164.539 1.14199C164.273 1.35297 164.038 1.45421 163.829 1.48396C163.626 1.51301 163.413 1.47925 163.177 1.35919L162.95 1.80466ZM164.85 1.53331L165.161 1.92464C165.736 1.46771 166.273 1.25314 166.777 1.22613L166.75 0.726848L166.723 0.227564C165.961 0.268412 165.231 0.591486 164.539 1.14199L164.85 1.53331ZM166.75 0.726848L166.777 1.22613C167.338 1.19606 167.904 1.28352 168.478 1.49437L168.65 1.02505L168.822 0.555738C168.13 0.30112 167.429 0.189776 166.723 0.227564L166.75 0.726848ZM168.65 1.02505L168.478 1.49437C169.233 1.77194 169.998 1.74831 170.746 1.43032L170.55 0.970195L170.354 0.510066C169.835 0.730696 169.334 0.743629 168.822 0.555738L168.65 1.02505ZM170.55 0.970195L170.746 1.43032C171.217 1.22976 171.681 1.26275 172.189 1.57306L172.45 1.14632L172.711 0.719587C171.952 0.256448 171.149 0.17202 170.354 0.510066L170.55 0.970195ZM172.45 1.14632L172.189 1.57306C172.898 2.00603 173.638 2.20696 174.395 2.13851L174.35 1.64054L174.305 1.14257C173.796 1.18861 173.268 1.06006 172.711 0.719587L172.45 1.14632ZM174.35 1.64054L174.395 2.13851C175.105 2.07437 175.803 1.85048 176.488 1.47868L176.25 1.03921L176.012 0.599734C175.43 0.915223 174.862 1.09222 174.305 1.14257L174.35 1.64054ZM176.25 1.03921L176.488 1.47868C177.005 1.1982 177.49 1.16226 177.978 1.34114L178.15 0.871635L178.322 0.402125C177.544 0.117159 176.761 0.192936 176.012 0.599734L176.25 1.03921ZM178.15 0.871635L177.978 1.34114C178.651 1.58742 179.327 1.74064 180.008 1.79842L180.05 1.30021L180.092 0.802008C179.506 0.752198 178.916 0.619698 178.322 0.402125L178.15 0.871635ZM180.05 1.30021L180.008 1.79842C180.627 1.851 181.246 1.93042 181.865 2.03673L181.95 1.54394L182.035 1.05114C181.387 0.940077 180.74 0.857018 180.092 0.802008L180.05 1.30021ZM181.95 1.54394L181.865 2.03673C182.604 2.1634 183.336 2.06049 184.053 1.74327L183.85 1.28612L183.647 0.828965C183.097 1.07288 182.563 1.14185 182.035 1.05114L181.95 1.54394ZM183.85 1.28612L184.053 1.74327C184.642 1.48211 185.224 1.32424 185.801 1.26493L185.75 0.767552L185.699 0.270176C185.009 0.341145 184.325 0.528988 183.647 0.828965L183.85 1.28612ZM185.75 0.767552L185.801 1.26493C186.421 1.20119 187.04 1.16313 187.66 1.15076L187.65 0.650855L187.64 0.150955C186.993 0.163887 186.346 0.203633 185.699 0.270176L185.75 0.767552ZM187.65 0.650855L187.66 1.15076C188.185 1.14027 188.726 1.29092 189.293 1.63098L189.55 1.20232L189.807 0.77366C189.107 0.353126 188.382 0.136126 187.64 0.150955L187.65 0.650855ZM189.55 1.20232L189.293 1.63098C190.019 2.06728 190.782 2.22239 191.558 2.05066L191.45 1.56248L191.342 1.07429C190.851 1.18294 190.347 1.09795 189.807 0.77366L189.55 1.20232ZM191.45 1.56248L191.558 2.05066C192.097 1.93127 192.636 1.96446 193.185 2.15631L193.35 1.68433L193.515 1.21234C192.797 0.961344 192.069 0.913298 191.342 1.07429L191.45 1.56248ZM193.35 1.68433L193.185 2.15631C193.895 2.40442 194.614 2.47007 195.334 2.34681L195.25 1.85396L195.166 1.36112C194.62 1.45453 194.072 1.40708 193.515 1.21234L193.35 1.68433ZM195.25 1.85396L195.334 2.34681C195.956 2.24052 196.577 2.1576 197.198 2.09802L197.15 1.6003L197.102 1.10259C196.457 1.16455 195.811 1.25074 195.166 1.36112L195.25 1.85396ZM197.15 1.6003L197.198 2.09802C197.779 2.04225 198.361 2.07683 198.945 2.20274L199.05 1.71397L199.155 1.22521C198.473 1.07801 197.788 1.03682 197.102 1.10259L197.15 1.6003ZM199.05 1.71397L198.945 2.20274C199.704 2.36655 200.457 2.24408 201.182 1.86398L200.95 1.42109L200.718 0.978189C200.177 1.26171 199.662 1.3345 199.155 1.22521L199.05 1.71397ZM200.95 1.42109L201.182 1.86398C201.759 1.56163 202.322 1.40387 202.874 1.37763L202.85 0.878192L202.826 0.378756C202.111 0.412751 201.408 0.616921 200.718 0.978189L200.95 1.42109ZM202.85 0.878192L202.874 1.37763C203.442 1.35058 204.014 1.4311 204.592 1.62314L204.75 1.14865L204.908 0.67415C204.219 0.445352 203.524 0.345562 202.826 0.378756L202.85 0.878192ZM204.75 1.14865L204.592 1.62314C205.223 1.83269 205.854 2.04806 206.485 2.26923L206.65 1.7974L206.815 1.32556C206.18 1.10258 205.544 0.885443 204.908 0.67415L204.75 1.14865ZM206.65 1.7974L206.485 2.26923C207.169 2.50912 207.859 2.6291 208.553 2.62528L208.55 2.12529L208.547 1.6253C207.975 1.62845 207.398 1.52983 206.815 1.32556L206.65 1.7974ZM208.55 2.12529L208.553 2.62528C209.232 2.62154 209.91 2.52476 210.584 2.33645L210.45 1.85486L210.316 1.37327C209.723 1.53856 209.134 1.62207 208.547 1.6253L208.55 2.12529ZM210.45 1.85486L210.584 2.33645C211.213 2.1609 211.842 1.99484 212.471 1.83825L212.35 1.35307L212.229 0.867891C211.591 1.02676 210.953 1.19522 210.316 1.37327L210.45 1.85486ZM212.35 1.35307L212.471 1.83825C213.06 1.69154 213.646 1.62982 214.231 1.65176L214.25 1.15211L214.269 0.652463C213.587 0.626896 212.907 0.699147 212.229 0.867891L212.35 1.35307ZM214.25 1.15211L214.231 1.65176C214.925 1.67778 215.616 1.5801 216.302 1.36196L216.15 0.885494L215.998 0.409028C215.417 0.593883 214.842 0.673948 214.269 0.652463L214.25 1.15211ZM216.15 0.885494L216.302 1.36196C216.878 1.17849 217.449 1.10728 218.017 1.14463L218.05 0.645704L218.083 0.146781C217.384 0.100854 216.688 0.189498 215.998 0.409028L216.15 0.885494ZM218.05 0.645704L218.017 1.14463C218.647 1.18606 219.278 1.23354 219.908 1.28709L219.95 0.788887L219.992 0.290682C219.356 0.236596 218.719 0.188629 218.083 0.146781L218.05 0.645704ZM219.95 0.788887L219.908 1.28709C220.552 1.34184 221.196 1.37519 221.841 1.38713L221.85 0.887219L221.859 0.387305C221.237 0.375772 220.615 0.343568 219.992 0.290682L219.95 0.788887ZM221.85 0.887219L221.841 1.38713C222.493 1.39922 223.145 1.37445 223.797 1.31286L223.75 0.815081L223.703 0.317297C223.088 0.375368 222.474 0.398693 221.859 0.387305L221.85 0.887219ZM223.75 0.815081L223.797 1.31286C224.438 1.2523 225.079 1.17653 225.72 1.08556L225.65 0.590524L225.58 0.0954835C224.954 0.184269 224.329 0.258204 223.703 0.317297L223.75 0.815081ZM225.65 0.590524L225.72 1.08556C226.218 1.01499 226.733 1.12941 227.284 1.47481L227.55 1.05115L227.816 0.627482C227.1 0.178969 226.349 -0.0136936 225.58 0.0954835L225.65 0.590524ZM227.55 1.05115L227.284 1.47481C227.941 1.88616 228.601 2.22536 229.264 2.49075L229.45 2.0265L229.636 1.56224C229.033 1.32108 228.426 1.01004 227.816 0.627482L227.55 1.05115ZM229.45 2.0265L229.264 2.49075C229.681 2.65719 230.111 2.68305 230.539 2.55938C230.957 2.43832 231.343 2.18288 231.7 1.83435L231.35 1.47696L231 1.11956C230.723 1.39067 230.476 1.53664 230.261 1.59876C230.055 1.65828 229.853 1.64908 229.636 1.56224L229.45 2.0265ZM231.35 1.47696L231.7 1.83435C232.268 1.27854 232.755 1.11533 233.181 1.17447L233.25 0.679204L233.319 0.18394C232.479 0.0674773 231.699 0.436096 231 1.11956L231.35 1.47696ZM233.25 0.679204L233.181 1.17447C233.743 1.25226 234.315 1.45411 234.9 1.7913L235.15 1.35801L235.4 0.924729C234.718 0.532444 234.024 0.281748 233.319 0.18394L233.25 0.679204ZM235.15 1.35801L234.9 1.7913C235.633 2.21313 236.4 2.3437 237.176 2.14212L237.05 1.6582L236.924 1.17428C236.433 1.30193 235.934 1.23237 235.4 0.924729L235.15 1.35801ZM237.05 1.6582L237.176 2.14212C237.76 1.9902 238.341 1.93186 238.921 1.96536L238.95 1.4662L238.979 0.967031C238.292 0.927319 237.606 0.996976 236.924 1.17428L237.05 1.6582ZM238.95 1.4662L238.921 1.96536C239.495 1.99852 240.074 2.13318 240.66 2.37415L240.85 1.91172L241.04 1.44928C240.36 1.16944 239.672 1.00709 238.979 0.967031L238.95 1.4662ZM240.85 1.91172L240.66 2.37415C241.444 2.69649 242.237 2.63082 242.994 2.20702L242.75 1.77069L242.506 1.33437C241.996 1.6194 241.523 1.64774 241.04 1.44928L240.85 1.91172ZM242.75 1.77069L242.994 2.20702C243.474 1.93829 243.922 1.9394 244.403 2.21246L244.65 1.77746L244.897 1.34246C244.112 0.897659 243.292 0.894258 242.506 1.33437L242.75 1.77069ZM244.65 1.77746L244.403 2.21246C244.8 2.43705 245.223 2.53831 245.661 2.48434C246.094 2.431 246.496 2.23161 246.865 1.93114L246.55 1.54323L246.235 1.15532C245.971 1.36993 245.739 1.46712 245.539 1.49185C245.343 1.51596 245.134 1.47679 244.897 1.34246L244.65 1.77746ZM246.55 1.54323L246.865 1.93114C247.12 1.72392 247.332 1.65297 247.507 1.6507C247.681 1.64844 247.889 1.71321 248.141 1.91139L248.45 1.51853L248.759 1.12567C248.378 0.825236 247.953 0.644815 247.493 0.650785C247.035 0.656743 246.613 0.847453 246.235 1.15532L246.55 1.54323ZM248.45 1.51853L248.141 1.91139C248.52 2.21022 248.941 2.39267 249.395 2.39697C249.85 2.40127 250.273 2.22632 250.655 1.93298L250.35 1.53651L250.045 1.14003C249.794 1.33332 249.583 1.3987 249.405 1.39701C249.226 1.39532 249.013 1.32547 248.759 1.12567L248.45 1.51853ZM250.35 1.53651L250.655 1.93298C250.914 1.73357 251.141 1.64847 251.339 1.63308C251.533 1.61794 251.746 1.66644 251.989 1.81504L252.25 1.38872L252.511 0.962399C252.12 0.722885 251.7 0.60196 251.261 0.636089C250.826 0.669959 250.419 0.852813 250.045 1.14003L250.35 1.53651ZM252.25 1.38872L251.989 1.81504C252.667 2.23091 253.359 2.50666 254.063 2.63069L254.15 2.13828L254.237 1.64586C253.674 1.54671 253.099 1.32274 252.511 0.962399L252.25 1.38872ZM254.15 2.13828L254.063 2.63069C254.756 2.75273 255.45 2.74895 256.142 2.61949L256.05 2.12801L255.958 1.63653C255.384 1.74395 254.811 1.74702 254.237 1.64586L254.15 2.13828ZM256.05 2.12801L256.142 2.61949C256.795 2.49737 257.447 2.33486 258.099 2.13217L257.95 1.65475L257.801 1.17733C257.186 1.36878 256.572 1.52178 255.958 1.63653L256.05 2.12801ZM257.95 1.65475L258.099 2.13217C258.673 1.95343 259.242 1.88982 259.808 1.93771L259.85 1.43949L259.892 0.941268C259.192 0.882029 258.494 0.961931 257.801 1.17733L257.95 1.65475ZM259.85 1.43949L259.808 1.93771C260.547 2.00024 261.275 1.83597 261.981 1.46689L261.75 1.0237L261.519 0.580497C260.959 0.872937 260.419 0.985869 259.892 0.941268L259.85 1.43949ZM261.75 1.0237L261.981 1.46689C262.212 1.34637 262.418 1.3166 262.615 1.35067C262.818 1.38594 263.054 1.49737 263.322 1.73066L263.65 1.35329L263.978 0.975914C263.613 0.658717 263.215 0.439977 262.785 0.365382C262.349 0.289584 261.921 0.370261 261.519 0.580497L261.75 1.0237ZM263.65 1.35329L263.322 1.73066C264.04 2.35466 264.837 2.63473 265.673 2.42175L265.55 1.9372L265.427 1.45266C264.997 1.5621 264.527 1.4529 263.978 0.975914L263.65 1.35329ZM265.55 1.9372L265.673 2.42175C266.261 2.27222 266.845 2.21088 267.428 2.23625L267.45 1.73672L267.472 1.2372C266.788 1.20745 266.106 1.27976 265.427 1.45266L265.55 1.9372ZM267.45 1.73672L267.428 2.23625C268.016 2.26182 268.606 2.36734 269.2 2.55462L269.35 2.07779L269.5 1.60096C268.827 1.3886 268.151 1.26675 267.472 1.2372L267.45 1.73672ZM269.35 2.07779L269.2 2.55462C270.044 2.82098 270.854 2.55851 271.578 1.9274L271.25 1.55032L270.922 1.17324C270.38 1.64505 269.923 1.73422 269.5 1.60096L269.35 2.07779ZM271.25 1.55032L271.578 1.9274C272.117 1.45832 272.569 1.37715 272.989 1.5204L273.15 1.04717L273.311 0.573941C272.465 0.285139 271.65 0.539396 270.922 1.17324L271.25 1.55032ZM273.15 1.04717L272.989 1.5204C273.599 1.72865 274.211 1.98669 274.826 2.29513L275.05 1.84831L275.274 1.40149C274.622 1.07379 273.968 0.797744 273.311 0.573941L273.15 1.04717ZM275.05 1.84831L274.826 2.29513C275.525 2.64646 276.242 2.81667 276.969 2.78933L276.95 2.28969L276.931 1.79004C276.392 1.81032 275.841 1.68628 275.274 1.40149L275.05 1.84831ZM276.95 2.28969L276.969 2.78933C277.659 2.7634 278.344 2.62244 279.024 2.37014L278.85 1.90138L278.676 1.43262C278.089 1.65043 277.508 1.76835 276.931 1.79004L276.95 2.28969ZM278.85 1.90138L279.024 2.37014C279.604 2.155 280.176 2.05331 280.744 2.06007L280.75 1.56011L280.756 1.06014C280.057 1.05182 279.363 1.17764 278.676 1.43262L278.85 1.90138ZM280.75 1.56011L280.744 2.06007C281.455 2.06854 282.159 1.91512 282.852 1.6092L282.65 1.15183L282.448 0.69445C281.874 0.947984 281.311 1.06675 280.756 1.06014L280.75 1.56011ZM282.65 1.15183L282.852 1.6092C283.353 1.38782 283.837 1.39152 284.341 1.62334L284.55 1.16907L284.759 0.714791C283.996 0.36417 283.213 0.356377 282.448 0.69445L282.65 1.15183ZM284.55 1.16907L284.341 1.62334C284.986 1.91997 285.632 2.18655 286.278 2.42298L286.45 1.95341L286.622 1.48384C286.001 1.25692 285.38 1.00061 284.759 0.714791L284.55 1.16907ZM286.45 1.95341L286.278 2.42298C287.051 2.70581 287.83 2.64122 288.58 2.25309L288.35 1.80908L288.12 1.36506C287.603 1.63273 287.115 1.66436 286.622 1.48384L286.45 1.95341ZM288.35 1.80908L288.58 2.25309C289.164 1.9508 289.736 1.77632 290.299 1.72033L290.25 1.22278L290.201 0.725231C289.497 0.79517 288.803 1.01155 288.12 1.36506L288.35 1.80908ZM290.25 1.22278L290.299 1.72033C290.94 1.65666 291.58 1.57921 292.221 1.48798L292.15 0.992982L292.079 0.49798C291.453 0.587219 290.827 0.662967 290.201 0.725231L290.25 1.22278ZM292.15 0.992982L292.221 1.48798C292.817 1.40294 293.414 1.3846 294.01 1.43276L294.05 0.934384L294.09 0.436007C293.42 0.381838 292.749 0.402559 292.079 0.49798L292.15 0.992982ZM294.05 0.934384L294.01 1.43276C294.666 1.48578 295.322 1.4934 295.979 1.45563L295.95 0.956452L295.921 0.457278C295.311 0.492405 294.701 0.485321 294.09 0.436007L294.05 0.934384ZM295.95 0.956452L295.979 1.45563C296.542 1.42322 297.109 1.50626 297.683 1.70997L297.85 1.23874L298.017 0.767506C297.325 0.521933 296.625 0.416773 295.921 0.457278L295.95 0.956452ZM297.85 1.23874L297.683 1.70997C298.342 1.94381 299.003 2.11733 299.666 2.22977L299.75 1.73681L299.834 1.24385C299.23 1.14148 298.625 0.982954 298.017 0.767506L297.85 1.23874ZM299.75 1.73681L299.666 2.22977C300.418 2.35719 301.16 2.22377 301.878 1.8548L301.65 1.41002L301.422 0.965248C300.873 1.2468 300.349 1.33124 299.834 1.24385L299.75 1.73681ZM301.65 1.41002L301.878 1.8548C302.399 1.58733 302.892 1.5511 303.387 1.72155L303.55 1.24871L303.713 0.775876C302.942 0.510878 302.167 0.582188 301.422 0.965248L301.65 1.41002ZM303.55 1.24871L303.387 1.72155C304.058 1.95195 304.731 2.09665 305.408 2.15384L305.45 1.65562L305.492 1.1574C304.902 1.1075 304.309 0.980929 303.713 0.775876L303.55 1.24871ZM305.45 1.65562L305.408 2.15384C305.992 2.20326 306.581 2.33834 307.174 2.56177L307.35 2.09389L307.526 1.626C306.853 1.37217 306.174 1.21507 305.492 1.1574L305.45 1.65562ZM307.35 2.09389L307.174 2.56177C308.052 2.89264 308.884 2.57563 309.603 1.85907L309.25 1.50494L308.897 1.15081C308.349 1.69677 307.915 1.7724 307.526 1.626L307.35 2.09389ZM309.25 1.50494L309.603 1.85907C309.873 1.58971 310.097 1.48142 310.274 1.45507C310.439 1.43041 310.629 1.46731 310.864 1.63118L311.15 1.22119L311.436 0.811192C311.038 0.532971 310.594 0.396116 310.126 0.466042C309.669 0.534278 309.26 0.78891 308.897 1.15081L309.25 1.50494ZM311.15 1.22119L310.864 1.63118C311.237 1.89141 311.635 2.05568 312.055 2.09357C312.478 2.1317 312.889 2.03881 313.28 1.83658L313.05 1.39255L312.82 0.948514C312.577 1.07414 312.356 1.11661 312.145 1.09762C311.932 1.0784 311.697 0.993059 311.436 0.811192L311.15 1.22119ZM313.05 1.39255L313.28 1.83658C313.803 1.56582 314.297 1.52543 314.793 1.68921L314.95 1.21441L315.107 0.739622C314.336 0.485202 313.564 0.563569 312.82 0.948514L313.05 1.39255ZM314.95 1.21441L314.793 1.68921C315.442 1.90348 316.092 2.08238 316.742 2.22575L316.85 1.73747L316.958 1.24919C316.341 1.11335 315.724 0.943544 315.107 0.739622L314.95 1.21441ZM316.85 1.73747L316.742 2.22575C317.526 2.39847 318.293 2.22486 319.019 1.7608L318.75 1.33953L318.481 0.918261C317.94 1.26399 317.441 1.35567 316.958 1.24919L316.85 1.73747ZM318.75 1.33953L319.019 1.7608C319.527 1.43616 319.985 1.40129 320.451 1.6034L320.65 1.14479L320.849 0.68617C320.048 0.338157 319.24 0.43311 318.481 0.918261L318.75 1.33953ZM320.65 1.14479L320.451 1.6034C321.083 1.87814 321.716 2.1547 322.349 2.43307L322.55 1.97543L322.751 1.51778C322.117 1.23876 321.483 0.961555 320.849 0.68617L320.65 1.14479ZM322.55 1.97543L322.349 2.43307C322.755 2.61212 323.18 2.66226 323.608 2.56812C324.028 2.47548 324.419 2.25059 324.78 1.93217L324.45 1.55692L324.12 1.18167C323.848 1.42095 323.605 1.54466 323.392 1.59153C323.187 1.63688 322.978 1.61742 322.751 1.51778L322.55 1.97543ZM324.45 1.55692L324.78 1.93217C325.347 1.4336 325.851 1.25913 326.309 1.29674L326.35 0.798424L326.391 0.300103C325.582 0.233648 324.82 0.564845 324.12 1.18167L324.45 1.55692ZM326.35 0.798424L326.309 1.29674C326.888 1.34433 327.472 1.48583 328.062 1.72504L328.25 1.26168L328.438 0.798319C327.761 0.523925 327.078 0.356586 326.391 0.300103L326.35 0.798424ZM328.25 1.26168L328.062 1.72504C328.731 1.99638 329.405 2.17964 330.082 2.27248L330.15 1.77712L330.218 1.28175C329.628 1.20094 329.035 1.04058 328.438 0.798319L328.25 1.26168ZM330.15 1.77712L330.082 2.27248C330.741 2.36279 331.4 2.40181 332.059 2.38943L332.05 1.88952L332.041 1.38961C331.433 1.40101 330.826 1.3651 330.218 1.28175L330.15 1.77712ZM332.05 1.88952L332.059 2.38943C332.783 2.37585 333.494 2.1731 334.188 1.798L333.95 1.35815L333.712 0.918305C333.139 1.22792 332.584 1.37941 332.041 1.38961L332.05 1.88952ZM333.95 1.35815L334.188 1.798C334.729 1.50553 335.241 1.42934 335.745 1.53755L335.85 1.0487L335.955 0.559855C335.192 0.395952 334.438 0.526062 333.712 0.918305L333.95 1.35815ZM335.85 1.0487L335.745 1.53755C336.333 1.66387 336.926 1.87616 337.525 2.17774L337.75 1.73117L337.975 1.28459C337.307 0.948329 336.634 0.705645 335.955 0.559855L335.85 1.0487ZM337.75 1.73117L337.525 2.17774C337.934 2.38338 338.366 2.45141 338.805 2.35687C339.235 2.26425 339.63 2.02476 339.991 1.68739L339.65 1.32203L339.309 0.956661C339.036 1.21097 338.798 1.33551 338.595 1.37928C338.4 1.42111 338.2 1.39787 337.975 1.28459L337.75 1.73117ZM339.65 1.32203L339.991 1.68739C340.247 1.44882 340.438 1.39326 340.577 1.39966C340.721 1.40632 340.926 1.48535 341.192 1.75862L341.55 1.40973L341.908 1.06084C341.541 0.683962 341.112 0.423301 340.623 0.400725C340.128 0.377889 339.687 0.603549 339.309 0.956661L339.65 1.32203ZM341.55 1.40973L341.192 1.75862C341.894 2.47919 342.696 2.85255 343.564 2.64982L343.45 2.16294L343.336 1.67606C342.937 1.76936 342.473 1.64058 341.908 1.06084L341.55 1.40973ZM343.45 2.16294L343.564 2.64982C344.266 2.48574 344.955 2.16952 345.63 1.71335L345.35 1.29905L345.07 0.884753C344.479 1.28441 343.901 1.54411 343.336 1.67606L343.45 2.16294ZM345.35 1.29905L345.63 1.71335C346.208 1.32245 346.764 1.11267 347.3 1.0583L347.25 0.560853L347.2 0.063404C346.469 0.137473 345.758 0.419823 345.07 0.884753L345.35 1.29905ZM347.25 0.560853L347.3 1.0583C347.897 0.997841 348.493 1.00401 349.089 1.07689L349.15 0.580574L349.211 0.0842634C348.541 0.00240684 347.87 -0.00456786 347.2 0.063404L347.25 0.560853ZM349.15 0.580574L349.089 1.07689C349.751 1.15776 350.414 1.18057 351.077 1.14519L351.05 0.645903L351.023 0.146614C350.419 0.178861 349.815 0.158113 349.211 0.0842634L349.15 0.580574ZM351.05 0.645903L351.077 1.14519C351.555 1.11966 352.071 1.29475 352.636 1.75101L352.95 1.36192L353.264 0.972834C352.563 0.406778 351.812 0.104524 351.023 0.146614L351.05 0.645903ZM352.95 1.36192L352.636 1.75101C353.342 2.32067 354.102 2.61092 354.9 2.53093L354.85 2.03342L354.8 1.53592C354.331 1.5829 353.825 1.42548 353.264 0.972834L352.95 1.36192ZM354.85 2.03342L354.9 2.53093C355.537 2.46705 356.174 2.39571 356.811 2.31689L356.75 1.82067L356.689 1.32445C356.059 1.40233 355.43 1.47281 354.8 1.53592L354.85 2.03342ZM356.75 1.82067L356.811 2.31689C357.426 2.24083 358.041 2.19964 358.655 2.19326L358.65 1.69329L358.645 1.19331C357.993 1.20009 357.34 1.24382 356.689 1.32445L356.75 1.82067ZM358.65 1.69329L358.655 2.19326C359.224 2.18735 359.798 2.2881 360.378 2.50017L360.55 2.03054L360.722 1.56091C360.035 1.31015 359.342 1.18607 358.645 1.19331L358.65 1.69329ZM360.55 2.03054L360.378 2.50017C361.062 2.74977 361.751 2.88046 362.444 2.88812L362.45 2.38815L362.456 1.88818C361.882 1.88185 361.305 1.77413 360.722 1.56091L360.55 2.03054ZM362.45 2.38815L362.444 2.88812C363.131 2.8957 363.815 2.79546 364.495 2.58972L364.35 2.11115L364.205 1.63259C363.618 1.81016 363.036 1.89459 362.456 1.88818L362.45 2.38815ZM364.35 2.11115L364.495 2.58972C365.099 2.40682 365.702 2.28403 366.302 2.2206L366.25 1.72336L366.198 1.22612C365.532 1.29642 364.867 1.43216 364.205 1.63259L364.35 2.11115ZM366.25 1.72336L366.302 2.2206C366.925 2.15485 367.548 2.10916 368.171 2.08354L368.15 1.58396L368.129 1.08438C367.485 1.11089 366.841 1.15814 366.198 1.22612L366.25 1.72336ZM368.15 1.58396L368.171 2.08354C368.865 2.05495 369.555 1.90089 370.237 1.62631L370.05 1.16247L369.863 0.698636C369.279 0.933899 368.702 1.06084 368.129 1.08438L368.15 1.58396ZM370.05 1.16247L370.237 1.62631C370.782 1.40669 371.314 1.35995 371.844 1.47516L371.95 0.986572L372.056 0.49798C371.32 0.337872 370.584 0.408407 369.863 0.698636L370.05 1.16247ZM371.95 0.986572L371.844 1.47516C372.544 1.62736 373.247 1.63378 373.948 1.49407L373.85 1.00371L373.752 0.513358C373.187 0.62611 372.623 0.621101 372.056 0.49798L371.95 0.986572ZM373.85 1.00371L373.948 1.49407C374.51 1.38201 375.071 1.39254 375.634 1.52649L375.75 1.04002L375.866 0.553561C375.163 0.386634 374.457 0.372949 373.752 0.513358L373.85 1.00371ZM375.75 1.04002L375.634 1.52649C376.211 1.66351 376.797 1.90783 377.392 2.26635L377.65 1.83808L377.908 1.40981C377.236 1.00514 376.555 0.717424 375.866 0.553561L375.75 1.04002ZM377.65 1.83808L377.392 2.26635C378.127 2.70913 378.901 2.84581 379.684 2.62825L379.55 2.14651L379.416 1.66476C378.932 1.79917 378.44 1.73023 377.908 1.40981L377.65 1.83808ZM379.55 2.14651L379.684 2.62825C380.286 2.46102 380.886 2.35744 381.484 2.31671L381.45 1.81787L381.416 1.31902C380.748 1.36451 380.081 1.48003 379.416 1.66476L379.55 2.14651ZM381.45 1.81787L381.484 2.31671C382.089 2.27554 382.694 2.28609 383.299 2.34841L383.35 1.85104L383.401 1.35367C382.74 1.28554 382.078 1.27397 381.416 1.31902L381.45 1.81787ZM383.35 1.85104L383.299 2.34841C383.969 2.41743 384.639 2.41174 385.31 2.33138L385.25 1.83494L385.19 1.33849C384.594 1.41005 383.998 1.41509 383.401 1.35367L383.35 1.85104ZM385.25 1.83494L385.31 2.33138C385.93 2.257 386.55 2.20755 387.17 2.18302L387.15 1.68341L387.13 1.1838C386.484 1.20939 385.837 1.26096 385.19 1.33849L385.25 1.83494ZM387.15 1.68341L387.17 2.18302C387.772 2.1592 388.374 2.19172 388.977 2.28077L389.05 1.78614L389.123 1.29151C388.459 1.19347 387.795 1.15751 387.13 1.1838L387.15 1.68341ZM389.05 1.78614L388.977 2.28077C389.633 2.3777 390.29 2.42833 390.947 2.43256L390.95 1.93257L390.953 1.43258C390.344 1.42866 389.734 1.38167 389.123 1.29151L389.05 1.78614ZM390.95 1.93257L390.947 2.43256C391.57 2.43657 392.194 2.45903 392.817 2.49993L392.85 2.001L392.883 1.50208C392.24 1.45989 391.596 1.43672 390.953 1.43258L390.95 1.93257ZM392.85 2.001L392.817 2.49993C393.448 2.54129 394.078 2.58817 394.709 2.64059L394.75 2.14231L394.791 1.64403C394.155 1.59113 393.519 1.54381 392.883 1.50208L392.85 2.001ZM394.75 2.14231L394.709 2.64059C395.452 2.70242 396.182 2.52749 396.89 2.1412L396.65 1.7024L396.41 1.26359C395.851 1.56918 395.314 1.68752 394.791 1.64403L394.75 2.14231ZM396.65 1.7024L396.89 2.1412C397.449 1.83584 397.985 1.71854 398.507 1.76365L398.55 1.26551L398.593 0.767358C397.849 0.703109 397.118 0.877069 396.41 1.26359L396.65 1.7024ZM398.55 1.26551L398.507 1.76365C399.223 1.82546 399.934 1.71368 400.634 1.43685L400.45 0.971877L400.266 0.506907C399.7 0.730935 399.144 0.814905 398.593 0.767358L398.55 1.26551ZM400.45 0.971877L400.634 1.43685C401.092 1.25579 401.552 1.30492 402.068 1.65695L402.35 1.24381L402.632 0.830672C401.881 0.319259 401.075 0.1871 400.266 0.506907L400.45 0.971877ZM402.35 1.24381L402.068 1.65695C402.447 1.91531 402.855 2.06865 403.286 2.08077C403.718 2.09291 404.13 1.96193 404.515 1.72118L404.25 1.29726L403.985 0.873337C403.736 1.02867 403.516 1.08683 403.314 1.08116C403.111 1.07546 402.886 1.00404 402.632 0.830672L402.35 1.24381ZM404.25 1.29726L404.515 1.72118C405.052 1.3856 405.547 1.30451 406.029 1.42431L406.15 0.939048L406.271 0.453788C405.486 0.259009 404.715 0.416725 403.985 0.873337L404.25 1.29726ZM406.15 0.939048L406.029 1.42431C406.634 1.5745 407.241 1.78175 407.85 2.04696L408.05 1.58851L408.25 1.13006C407.592 0.843892 406.932 0.618171 406.271 0.453788L406.15 0.939048ZM408.05 1.58851L407.85 2.04696C408.663 2.40078 409.479 2.27858 410.235 1.75456L409.95 1.34361L409.665 0.932667C409.155 1.28655 408.703 1.32761 408.25 1.13006L408.05 1.58851ZM409.95 1.34361L410.235 1.75456C410.486 1.5807 410.704 1.51587 410.897 1.51689C411.091 1.51791 411.31 1.58522 411.562 1.76254L411.85 1.35362L412.138 0.944703C411.756 0.676398 411.342 0.519222 410.903 0.516907C410.463 0.51459 410.048 0.667571 409.665 0.932667L409.95 1.34361ZM411.85 1.35362L411.562 1.76254C411.95 2.03545 412.376 2.18575 412.828 2.16013C413.277 2.13469 413.692 1.93936 414.066 1.6332L413.75 1.24599L413.434 0.858769C413.175 1.06999 412.956 1.15129 412.772 1.16173C412.591 1.17199 412.383 1.11742 412.138 0.944703L411.85 1.35362ZM413.75 1.24599L414.066 1.6332C414.332 1.41602 414.567 1.31274 414.773 1.28228C414.974 1.25261 415.184 1.2861 415.419 1.40827L415.65 0.964835L415.881 0.521401C415.482 0.313617 415.06 0.228995 414.627 0.293047C414.199 0.356303 413.801 0.558574 413.434 0.858769L413.75 1.24599ZM415.65 0.964835L415.419 1.40827C416.15 1.7893 416.909 1.897 417.673 1.70274L417.55 1.21816L417.427 0.733585C416.924 0.861444 416.416 0.800261 415.881 0.521401L415.65 0.964835ZM417.55 1.21816L417.673 1.70274C418.272 1.55049 418.869 1.46659 419.464 1.45017L419.45 0.950363L419.436 0.450553C418.765 0.469071 418.095 0.563702 417.427 0.733585L417.55 1.21816ZM419.45 0.950363L419.464 1.45017C420.088 1.43295 420.712 1.43257 421.337 1.44902L421.35 0.94919L421.363 0.449364C420.721 0.432441 420.079 0.432838 419.436 0.450553L419.45 0.950363ZM421.35 0.94919L421.337 1.44902C421.971 1.46574 422.606 1.48011 423.241 1.49216L423.25 0.992246L423.259 0.492336C422.627 0.480342 421.995 0.466017 421.363 0.449364L421.35 0.94919ZM423.25 0.992246L423.241 1.49216C423.837 1.50347 424.434 1.58073 425.033 1.72469L425.15 1.23853L425.267 0.752362C424.599 0.591983 423.93 0.50506 423.259 0.492336L423.25 0.992246ZM425.15 1.23853L425.033 1.72469C425.713 1.88808 426.396 1.94993 427.08 1.90892L427.05 1.40982L427.02 0.910717C426.437 0.945657 425.853 0.893308 425.267 0.752362L425.15 1.23853ZM427.05 1.40982L427.08 1.90892C427.707 1.87135 428.333 1.84621 428.96 1.83351L428.95 1.33361L428.94 0.833713C428.3 0.84668 427.66 0.872349 427.02 0.910717L427.05 1.40982ZM428.95 1.33361L428.96 1.83351C429.521 1.82214 430.088 1.9287 430.664 2.16011L430.85 1.69618L431.036 1.23226C430.346 0.954576 429.646 0.819413 428.94 0.833713L428.95 1.33361ZM430.85 1.69618L430.664 2.16011C431.324 2.42565 431.987 2.62467 432.653 2.75606L432.75 2.26552L432.847 1.77499C432.246 1.65636 431.642 1.47582 431.036 1.23226L430.85 1.69618ZM432.75 2.26552L432.653 2.75606C433.323 2.88819 433.993 2.94452 434.665 2.92451L434.65 2.42473L434.635 1.92496C434.04 1.94269 433.444 1.89288 432.847 1.77499L432.75 2.26552ZM434.65 2.42473L434.665 2.92451C435.42 2.90202 436.148 2.6164 436.844 2.11192L436.55 1.70721L436.256 1.3025C435.685 1.71699 435.147 1.90971 434.635 1.92496L434.65 2.42473ZM436.55 1.70721L436.844 2.11192C437.415 1.69721 437.954 1.50328 438.467 1.48637L438.45 0.986644L438.434 0.486916C437.679 0.511808 436.951 0.798255 436.256 1.3025L436.55 1.70721ZM438.45 0.986644L438.467 1.48637C439.04 1.46744 439.617 1.54884 440.199 1.73373L440.35 1.25721L440.501 0.780697C439.817 0.563028 439.126 0.46405 438.434 0.486916L438.45 0.986644ZM440.35 1.25721L440.199 1.73373C440.854 1.94213 441.511 2.10013 442.17 2.20731L442.25 1.71381L442.33 1.22031C441.722 1.12125 441.112 0.974847 440.501 0.780697L440.35 1.25721ZM442.25 1.71381L442.17 2.20731C442.788 2.30792 443.406 2.43835 444.025 2.59869L444.15 2.11467L444.275 1.63066C443.628 1.46277 442.979 1.32596 442.33 1.22031L442.25 1.71381ZM444.15 2.11467L444.025 2.59869C444.876 2.81932 445.679 2.50452 446.391 1.83837L446.05 1.47305L445.709 1.10774C445.155 1.6253 444.691 1.73825 444.275 1.63066L444.15 2.11467ZM446.05 1.47305L446.391 1.83837C446.659 1.58833 446.885 1.48429 447.068 1.45894C447.243 1.43481 447.44 1.47356 447.675 1.62851L447.95 1.21094L448.225 0.793368C447.827 0.531207 447.39 0.405088 446.932 0.468323C446.482 0.530346 446.074 0.765917 445.709 1.10774L446.05 1.47305ZM447.95 1.21094L447.675 1.62851C448.059 1.8814 448.473 2.02298 448.909 2.01507C449.344 2.00716 449.755 1.85113 450.135 1.58703L449.85 1.17644L449.565 0.765848C449.311 0.94187 449.089 1.01164 448.891 1.01523C448.694 1.01882 448.474 0.957595 448.225 0.793368L447.95 1.21094ZM449.85 1.17644L450.135 1.58703C450.688 1.20273 451.198 1.07469 451.683 1.14027L451.75 0.644779L451.817 0.149292C451.035 0.0435277 450.278 0.269925 449.565 0.765848L449.85 1.17644ZM451.75 0.644779L451.683 1.14027C452.242 1.21593 452.813 1.41808 453.398 1.75883L453.65 1.32681L453.902 0.894789C453.22 0.497508 452.524 0.244974 451.817 0.149292L451.75 0.644779ZM453.65 1.32681L453.398 1.75883C454.116 2.17719 454.865 2.3443 455.629 2.22246L455.55 1.72871L455.471 1.23496C454.968 1.31528 454.45 1.21445 453.902 0.894789L453.65 1.32681ZM455.55 1.72871L455.629 2.22246C456.159 2.13782 456.695 2.21032 457.248 2.45497L457.45 1.99779L457.652 1.54061C456.938 1.22433 456.208 1.11745 455.471 1.23496L455.55 1.72871ZM457.45 1.99779L457.248 2.45497C458.069 2.81854 458.89 2.67999 459.645 2.12936L459.35 1.72543L459.055 1.3215C458.543 1.69494 458.098 1.73797 457.652 1.54061L457.45 1.99779ZM459.35 1.72543L459.645 2.12936C460.212 1.71555 460.742 1.53769 461.244 1.54369L461.25 1.04372L461.256 0.543759C460.491 0.534619 459.755 0.811225 459.055 1.3215L459.35 1.72543ZM461.25 1.04372L461.244 1.54369C461.832 1.55071 462.422 1.63707 463.014 1.80427L463.15 1.32304L463.286 0.84182C462.612 0.651727 461.935 0.551873 461.256 0.543759L461.25 1.04372ZM463.15 1.32304L463.014 1.80427C463.701 1.99797 464.392 2.07183 465.085 2.02343L465.05 1.52464L465.015 1.02586C464.441 1.06594 463.866 1.00541 463.286 0.84182L463.15 1.32304ZM465.05 1.52464L465.085 2.02343C465.739 1.97771 466.393 1.89031 467.047 1.76139L466.95 1.27085L466.853 0.780305C466.24 0.90129 465.627 0.983093 465.015 1.02586L465.05 1.52464ZM466.95 1.27085L467.047 1.76139C467.67 1.6384 468.293 1.5351 468.917 1.45148L468.85 0.955924L468.784 0.460367C468.14 0.546738 467.497 0.653391 466.853 0.780305L466.95 1.27085ZM468.85 0.955924L468.917 1.45148C469.495 1.37386 470.073 1.39207 470.653 1.50674L470.75 1.01624L470.847 0.52573C470.16 0.389992 469.472 0.367994 468.784 0.460367L468.85 0.955924ZM470.75 1.01624L470.653 1.50674C471.301 1.63479 471.949 1.73338 472.597 1.80245L472.65 1.30526L472.703 0.808074C472.085 0.74219 471.466 0.648095 470.847 0.52573L470.75 1.01624ZM472.65 1.30526L472.597 1.80245C473.163 1.86272 473.737 2.03823 474.322 2.33745L474.55 1.89228L474.778 1.44711C474.096 1.09859 473.404 0.882757 472.703 0.808074L472.65 1.30526ZM474.55 1.89228L474.322 2.33745C475.014 2.69122 475.721 2.88376 476.438 2.90171L476.45 2.40187L476.463 1.90202C475.913 1.88826 475.353 1.74109 474.778 1.44711L474.55 1.89228ZM476.45 2.40187L476.438 2.90171C477.095 2.91817 477.753 2.88688 478.41 2.80792L478.35 2.31149L478.29 1.81506C477.681 1.88831 477.072 1.91727 476.463 1.90202L476.45 2.40187ZM478.35 2.31149L478.41 2.80792C479.091 2.72609 479.767 2.54644 480.439 2.27182L480.25 1.80899L480.061 1.34617C479.466 1.58933 478.876 1.74467 478.29 1.81506L478.35 2.31149ZM480.25 1.80899L480.439 2.27182C480.958 2.05977 481.461 2.05153 481.976 2.24294L482.15 1.77437L482.324 1.30579C481.572 1.02558 480.809 1.04043 480.061 1.34617L480.25 1.80899ZM482.15 1.77437L481.976 2.24294C482.738 2.52694 483.51 2.4894 484.26 2.14259L484.05 1.68877L483.84 1.23494C483.323 1.47389 482.828 1.49341 482.324 1.30579L482.15 1.77437ZM484.05 1.68877L484.26 2.14259C484.811 1.88771 485.344 1.81155 485.87 1.89667L485.95 1.40308L486.03 0.909489C485.289 0.789768 484.556 0.904075 483.84 1.23494L484.05 1.68877ZM485.95 1.40308L485.87 1.89667C486.588 2.01274 487.304 1.94704 488.012 1.70546L487.85 1.23229L487.688 0.759115C487.129 0.950083 486.579 0.998247 486.03 0.909489L485.95 1.40308ZM487.85 1.23229L488.012 1.70546C488.612 1.50025 489.211 1.36453 489.806 1.29699L489.75 0.800175L489.694 0.303357C489.023 0.379413 488.354 0.531762 487.688 0.759115L487.85 1.23229ZM489.75 0.800175L489.806 1.29699C490.429 1.2264 491.052 1.17603 491.674 1.14587L491.65 0.646453L491.626 0.147039C490.982 0.178246 490.338 0.230357 489.694 0.303357L489.75 0.800175ZM491.65 0.646453L491.674 1.14587C492.168 1.12193 492.691 1.28662 493.255 1.69861L493.55 1.29498L493.845 0.891357C493.142 0.377272 492.398 0.109604 491.626 0.147039L491.65 0.646453ZM493.55 1.29498L493.255 1.69861C493.629 1.97191 494.032 2.14441 494.46 2.17882C494.891 2.21345 495.307 2.10479 495.698 1.88192L495.45 1.44762L495.202 1.01331C494.96 1.15173 494.742 1.19827 494.54 1.18203C494.335 1.16555 494.105 1.08109 493.845 0.891357L493.55 1.29498ZM495.45 1.44762L495.698 1.88192C496.265 1.55853 496.81 1.41419 497.34 1.42506L497.35 0.925165L497.36 0.42527C496.624 0.410168 495.902 0.614127 495.202 1.01331L495.45 1.44762ZM497.35 0.925165L497.34 1.42506C497.839 1.4353 498.371 1.6344 498.942 2.08033L499.25 1.68619L499.558 1.29205C498.862 0.749247 498.128 0.441001 497.36 0.42527L497.35 0.925165ZM499.25 1.68619L498.942 2.08033C499.318 2.37385 499.731 2.5579 500.175 2.58035C500.621 2.60294 501.043 2.45916 501.431 2.19589L501.15 1.78231L500.869 1.36873C500.623 1.53574 500.412 1.59108 500.225 1.58163C500.036 1.57204 499.815 1.49289 499.558 1.29205L499.25 1.68619ZM501.15 1.78231L501.431 2.19589C502.021 1.79512 502.596 1.54057 503.156 1.41838L503.05 0.929848L502.944 0.441315C502.238 0.59517 501.546 0.908928 500.869 1.36873L501.15 1.78231ZM503.05 0.929848L503.156 1.41838C503.723 1.29492 504.287 1.28952 504.853 1.40181L504.95 0.911375L505.047 0.420942C504.346 0.281814 503.644 0.288729 502.944 0.441315L503.05 0.929848ZM504.95 0.911375L504.853 1.40181C505.548 1.53975 506.245 1.54512 506.94 1.41768L506.85 0.925866L506.76 0.434054C506.189 0.538705 505.619 0.534411 505.047 0.420942L504.95 0.911375ZM506.85 0.925866L506.94 1.41768C507.416 1.3305 507.916 1.44342 508.463 1.82702L508.75 1.41755L509.037 1.00809C508.318 0.50401 507.551 0.289137 506.76 0.434054L506.85 0.925866ZM508.75 1.41755L508.463 1.82702C508.835 2.08746 509.231 2.25366 509.649 2.29639C510.07 2.33939 510.481 2.25396 510.872 2.0596L510.65 1.61174L510.428 1.16388C510.186 1.2839 509.963 1.3233 509.751 1.30157C509.536 1.27957 509.299 1.19148 509.037 1.00809L508.75 1.41755ZM510.65 1.61174L510.872 2.0596C511.451 1.77231 512.017 1.62036 512.574 1.59314L512.55 1.09373L512.526 0.594328C511.816 0.629016 511.116 0.822402 510.428 1.16388L510.65 1.61174ZM512.55 1.09373L512.574 1.59314C513.16 1.56451 513.747 1.6187 514.336 1.75684L514.45 1.27004L514.564 0.783244C513.887 0.624387 513.207 0.561038 512.526 0.594328L512.55 1.09373ZM514.45 1.27004L514.336 1.75684C514.991 1.91045 515.647 2.01795 516.304 2.07911L516.35 1.58126L516.396 1.08342C515.786 1.02661 515.176 0.926627 514.564 0.783244L514.45 1.27004ZM516.35 1.58126L516.304 2.07911C516.901 2.13472 517.5 2.25575 518.101 2.44325L518.25 1.9659L518.399 1.48856C517.734 1.28117 517.066 1.14578 516.396 1.08342L516.35 1.58126ZM518.25 1.9659L518.101 2.44325C518.787 2.65707 519.478 2.75042 520.172 2.72018L520.15 2.22065L520.128 1.72112C519.555 1.7461 518.98 1.66962 518.399 1.48856L518.25 1.9659ZM520.15 2.22065L520.172 2.72018C520.892 2.68879 521.599 2.47594 522.29 2.09734L522.05 1.65882L521.81 1.22031C521.234 1.53559 520.675 1.69729 520.128 1.72112L520.15 2.22065ZM522.05 1.65882L522.29 2.09734C522.832 1.80035 523.345 1.72046 523.849 1.8246L523.95 1.33498L524.051 0.845347C523.288 0.687405 522.534 0.823415 521.81 1.22031L522.05 1.65882ZM523.95 1.33498L523.849 1.8246C524.462 1.95144 525.076 2.11823 525.69 2.32526L525.85 1.8514L526.01 1.37754C525.358 1.15809 524.705 0.9806 524.051 0.845347L523.95 1.33498ZM525.85 1.8514L525.69 2.32526C526.42 2.57103 527.159 2.58594 527.893 2.36747L527.75 1.88828L527.607 1.40908C527.074 1.56793 526.546 1.55825 526.01 1.37754L525.85 1.8514ZM527.75 1.88828L527.893 2.36747C528.559 2.16915 529.221 1.89844 529.88 1.55686L529.65 1.11294L529.42 0.669015C528.812 0.983908 528.208 1.23009 527.607 1.40908L527.75 1.88828ZM529.65 1.11294L529.88 1.55686C530.441 1.26628 530.981 1.15281 531.51 1.19531L531.55 0.696912L531.59 0.198519C530.852 0.139236 530.126 0.303118 529.42 0.669015L529.65 1.11294ZM531.55 0.696912L531.51 1.19531C532.109 1.24343 532.709 1.35358 533.312 1.52655L533.45 1.04596L533.588 0.56537C532.924 0.374722 532.258 0.252167 531.59 0.198519L531.55 0.696912ZM533.45 1.04596L533.312 1.52655C533.987 1.72025 534.665 1.82149 535.345 1.82864L535.35 1.32867L535.355 0.828693C534.769 0.822524 534.18 0.73529 533.588 0.56537L533.45 1.04596ZM535.35 1.32867L535.345 1.82864C535.995 1.83548 536.646 1.80877 537.296 1.74854L537.25 1.25067L537.204 0.752802C536.588 0.809884 535.971 0.835173 535.355 0.828693L535.35 1.32867ZM537.25 1.25067L537.296 1.74854C537.825 1.6996 538.364 1.80726 538.923 2.09222L539.15 1.64672L539.377 1.20121C538.67 0.840798 537.942 0.684426 537.204 0.752802L537.25 1.25067ZM539.15 1.64672L538.923 2.09222C539.327 2.29801 539.755 2.37322 540.191 2.29268C540.62 2.21347 541.016 1.99128 541.38 1.67134L541.05 1.29579L540.72 0.920226C540.451 1.15693 540.214 1.27155 540.009 1.30931C539.812 1.34575 539.606 1.3181 539.377 1.20121L539.15 1.64672ZM541.05 1.29579L541.38 1.67134C541.65 1.43433 541.888 1.31836 542.093 1.27926C542.292 1.24153 542.498 1.26798 542.727 1.38218L542.95 0.934768L543.173 0.487356C542.769 0.2856 542.341 0.214233 541.907 0.296841C541.479 0.378085 541.084 0.600606 540.72 0.920226L541.05 1.29579ZM542.95 0.934768L542.727 1.38218C543.37 1.70298 544.013 1.99791 544.657 2.26688L544.85 1.80551L545.043 1.34414C544.42 1.08405 543.797 0.798479 543.173 0.487356L542.95 0.934768ZM544.85 1.80551L544.657 2.26688C545.455 2.59998 546.258 2.50593 547.015 2.03386L546.75 1.60964L546.485 1.18543C545.975 1.50359 545.512 1.54011 545.043 1.34414L544.85 1.80551ZM546.75 1.60964L547.015 2.03386C547.596 1.6711 548.16 1.46588 548.709 1.40076L548.65 0.904243L548.591 0.407726C547.873 0.492905 547.171 0.757962 546.485 1.18543L546.75 1.60964ZM548.65 0.904243L548.709 1.40076C549.316 1.32875 549.922 1.30581 550.529 1.33184L550.55 0.832298L550.571 0.332758C549.911 0.30441 549.251 0.329429 548.591 0.407726L548.65 0.904243ZM550.55 0.832298L550.529 1.33184C551.047 1.35409 551.589 1.54782 552.162 1.9513L552.45 1.5426L552.738 1.1339C552.044 0.644689 551.32 0.364888 550.571 0.332758L550.55 0.832298ZM552.45 1.5426L552.162 1.9513C552.533 2.21289 552.929 2.38067 553.347 2.42552C553.767 2.47067 554.178 2.38775 554.57 2.19568L554.35 1.74668L554.13 1.29767C553.889 1.41589 553.666 1.45411 553.453 1.43124C553.238 1.40807 553 1.31866 552.738 1.1339L552.45 1.5426ZM554.35 1.74668L554.57 2.19568C555.049 1.96077 555.508 1.97393 556.004 2.2545L556.25 1.81946L556.496 1.38443C555.725 0.947354 554.917 0.911995 554.13 1.29767L554.35 1.74668ZM556.25 1.81946L556.004 2.2545C556.74 2.67194 557.512 2.78827 558.288 2.56471L558.15 2.08422L558.012 1.60373C557.522 1.7448 557.026 1.68462 556.496 1.38443L556.25 1.81946ZM558.15 2.08422L558.288 2.56471C558.922 2.38243 559.555 2.20046 560.188 2.01878L560.05 1.53818L559.912 1.05757C559.279 1.23932 558.645 1.42138 558.012 1.60373L558.15 2.08422ZM560.05 1.53818L560.188 2.01878C560.81 1.84026 561.432 1.68517 562.054 1.55347L561.95 1.06433L561.846 0.575188C561.201 0.711855 560.557 0.872664 559.912 1.05757L560.05 1.53818ZM561.95 1.06433L562.054 1.55347C562.672 1.42235 563.291 1.31991 563.909 1.24607L563.85 0.749601L563.791 0.253129C563.142 0.330569 562.494 0.437944 561.846 0.575188L561.95 1.06433ZM563.85 0.749601L563.909 1.24607C564.384 1.1894 564.891 1.33298 565.448 1.7562L565.75 1.35811L566.053 0.960024C565.343 0.420625 564.583 0.15853 563.791 0.253129L563.85 0.749601ZM565.75 1.35811L565.448 1.7562C566.183 2.31529 566.986 2.51214 567.807 2.24011L567.65 1.76546L567.493 1.29081C567.048 1.43827 566.584 1.36356 566.053 0.960024L565.75 1.35811ZM567.65 1.76546L567.807 2.24011C568.319 2.07073 568.825 2.09519 569.349 2.32521L569.55 1.86728L569.751 1.40934C569.009 1.08411 568.248 1.04069 567.493 1.29081L567.65 1.76546ZM569.55 1.86728L569.349 2.32521C570.036 2.6261 570.732 2.79128 571.434 2.81348L571.45 2.31373L571.466 1.81398C570.902 1.79616 570.331 1.66371 569.751 1.40934L569.55 1.86728ZM571.45 2.31373L571.434 2.81348C572.1 2.83452 572.765 2.79136 573.43 2.68427L573.35 2.19064L573.27 1.69701C572.668 1.79407 572.067 1.83297 571.466 1.81398L571.45 2.31373ZM573.35 2.19064L573.43 2.68427C574.135 2.57061 574.828 2.30344 575.508 1.89452L575.25 1.46607L574.992 1.03761C574.405 1.39063 573.832 1.60651 573.27 1.69701L573.35 2.19064ZM575.25 1.46607L575.508 1.89452C576.085 1.54721 576.644 1.36258 577.188 1.3216L577.15 0.823016L577.112 0.32443C576.389 0.378919 575.682 0.622981 574.992 1.03761L575.25 1.46607ZM577.15 0.823016L577.188 1.3216C577.764 1.27817 578.342 1.33179 578.923 1.48439L579.05 1.00077L579.177 0.517153C578.492 0.337284 577.803 0.272403 577.112 0.32443L577.15 0.823016ZM579.05 1.00077L578.923 1.48439C579.579 1.65655 580.236 1.78002 580.894 1.85449L580.95 1.35766L581.006 0.860838C580.397 0.791916 579.788 0.677459 579.177 0.517153L579.05 1.00077ZM580.95 1.35766L580.894 1.85449C581.599 1.9343 582.302 1.86376 582.999 1.64681L582.85 1.16941L582.701 0.692015C582.131 0.869456 581.568 0.924413 581.006 0.860838L580.95 1.35766ZM582.85 1.16941L582.999 1.64681C583.609 1.45685 584.217 1.31609 584.825 1.22406L584.75 0.729697L584.675 0.235338C584.016 0.335198 583.358 0.487574 582.701 0.692015L582.85 1.16941ZM584.75 0.729697L584.825 1.22406C585.318 1.14934 585.831 1.26283 586.381 1.61451L586.65 1.19327L586.919 0.772039C586.203 0.313726 585.449 0.118167 584.675 0.235338L584.75 0.729697ZM586.65 1.19327L586.381 1.61451C586.764 1.85968 587.175 1.99638 587.607 1.99048C588.038 1.98458 588.447 1.83702 588.827 1.58329L588.55 1.16729L588.273 0.751296C588.02 0.919888 587.795 0.987805 587.593 0.990571C587.391 0.99333 587.169 0.931862 586.919 0.772039L586.65 1.19327ZM588.55 1.16729L588.827 1.58329C589.059 1.42888 589.249 1.39534 589.417 1.42373C589.597 1.45415 589.824 1.568 590.096 1.84066L590.45 1.48785L590.804 1.13505C590.442 0.771686 590.036 0.514103 589.583 0.437667C589.118 0.359209 588.674 0.4834 588.273 0.751296L588.55 1.16729ZM590.45 1.48785L590.096 1.84066C590.468 2.2149 590.911 2.4655 591.415 2.45079C591.914 2.43619 592.348 2.16392 592.714 1.77503L592.35 1.43237L591.986 1.08971C591.719 1.37383 591.519 1.44731 591.385 1.45121C591.256 1.45499 591.065 1.39683 590.804 1.13505L590.45 1.48785ZM592.35 1.43237L592.714 1.77503C592.981 1.49117 593.18 1.41911 593.312 1.41588C593.441 1.41274 593.633 1.47196 593.894 1.73714L594.25 1.38603L594.606 1.03492C594.234 0.657986 593.792 0.403872 593.288 0.416181C592.787 0.428405 592.352 0.700574 591.986 1.08971L592.35 1.43237ZM594.25 1.38603L593.894 1.73714C594.257 2.10519 594.669 2.36461 595.132 2.42859C595.606 2.49419 596.051 2.34323 596.447 2.05125L596.15 1.64881L595.853 1.24636C595.616 1.42131 595.428 1.46002 595.269 1.43802C595.098 1.41441 594.876 1.30898 594.606 1.03492L594.25 1.38603ZM596.15 1.64881L596.447 2.05125C597.024 1.62527 597.574 1.40455 598.099 1.35338L598.05 0.855745L598.001 0.358107C597.259 0.430498 596.542 0.738484 595.853 1.24636L596.15 1.64881ZM598.05 0.855745L598.099 1.35338C598.712 1.29352 599.326 1.27022 599.939 1.28345L599.95 0.783563L599.961 0.283679C599.308 0.269593 598.654 0.294414 598.001 0.358107L598.05 0.855745ZM599.95 0.783563L599.939 1.28345C600.578 1.29723 601.218 1.29955 601.857 1.29039L601.85 0.790441L601.843 0.290492C601.215 0.299478 600.588 0.297207 599.961 0.283679L599.95 0.783563ZM601.85 0.790441L601.857 1.29039C602.366 1.28311 602.899 1.45333 603.466 1.84533L603.75 1.43416L604.035 1.02299C603.334 0.538561 602.601 0.279632 601.843 0.290492L601.85 0.790441ZM603.75 1.43416L603.466 1.84533C603.855 2.11514 604.283 2.25988 604.737 2.22649C605.186 2.19341 605.599 1.99013 605.971 1.67719L605.65 1.29421L605.329 0.911217C605.068 1.12981 604.848 1.21561 604.663 1.22919C604.483 1.24245 604.278 1.19141 604.035 1.02299L603.75 1.43416ZM605.65 1.29421L605.971 1.67719C606.513 1.22273 606.977 1.12997 607.408 1.25777L607.55 0.778361L607.692 0.298957C606.857 0.0514965 606.054 0.302629 605.329 0.911217L605.65 1.29421ZM607.55 0.778361L607.408 1.25777C607.985 1.42858 608.571 1.71323 609.169 2.11976L609.45 1.70642L609.731 1.29308C609.062 0.837457 608.382 0.503403 607.692 0.298957L607.55 0.778361ZM609.45 1.70642L609.169 2.11976C609.557 2.38422 609.981 2.52724 610.43 2.5003C610.875 2.47357 611.288 2.28277 611.663 1.98263L611.35 1.59233L611.037 1.20203C610.779 1.40902 610.558 1.49081 610.37 1.5021C610.185 1.5132 609.976 1.45969 609.731 1.29308L609.45 1.70642ZM611.35 1.59233L611.663 1.98263C611.916 1.77932 612.128 1.7099 612.303 1.70868C612.479 1.70747 612.689 1.77361 612.941 1.97212L613.25 1.57919L613.559 1.18625C613.178 0.886396 612.754 0.705539 612.297 0.708706C611.839 0.71187 611.417 0.898206 611.037 1.20203L611.35 1.59233ZM613.25 1.57919L612.941 1.97212C613.313 2.26511 613.719 2.45451 614.154 2.49469C614.593 2.53523 615.015 2.41931 615.408 2.18282L615.15 1.75452L614.892 1.32622C614.651 1.47122 614.44 1.51682 614.246 1.49892C614.048 1.48065 613.82 1.39164 613.559 1.18625L613.25 1.57919ZM615.15 1.75452L615.408 2.18282C615.98 1.83798 616.532 1.66837 617.066 1.65078L617.05 1.15105L617.034 0.651322C616.302 0.675394 615.586 0.908096 614.892 1.32622L615.15 1.75452ZM617.05 1.15105L617.066 1.65078C617.627 1.63234 618.193 1.73221 618.768 1.95706L618.95 1.49142L619.132 1.02578C618.44 0.755148 617.74 0.628101 617.034 0.651322L617.05 1.15105ZM618.95 1.49142L618.768 1.95706C619.424 2.21386 620.083 2.41509 620.743 2.56011L620.85 2.07176L620.957 1.58341C620.351 1.45013 619.742 1.26447 619.132 1.02578L618.95 1.49142ZM620.85 2.07176L620.743 2.56011C621.433 2.71169 622.125 2.74083 622.818 2.64652L622.75 2.1511L622.683 1.65567C622.108 1.73389 621.534 1.71014 620.957 1.58341L620.85 2.07176ZM622.75 2.1511L622.818 2.64652C623.41 2.56589 624.001 2.55983 624.593 2.62827L624.65 2.13158L624.707 1.63489C624.033 1.55682 623.357 1.56378 622.683 1.65567L622.75 2.1511ZM624.65 2.13158L624.593 2.62827C625.334 2.71402 626.065 2.56655 626.776 2.20734L626.55 1.76113L626.324 1.31492C625.768 1.59615 625.233 1.69564 624.707 1.63489L624.65 2.13158ZM626.55 1.76113L626.776 2.20734C627.34 1.92186 627.887 1.80274 628.423 1.8321L628.45 1.33284L628.477 0.833593C627.746 0.79355 627.026 0.959959 626.324 1.31492L626.55 1.76113ZM628.45 1.33284L628.423 1.8321C629.042 1.86603 629.662 1.92597 630.281 2.01193L630.35 1.51668L630.419 1.02142C629.772 0.931674 629.125 0.869055 628.477 0.833593L628.45 1.33284ZM630.35 1.51668L630.281 2.01193C630.913 2.09959 631.545 2.19005 632.177 2.28331L632.25 1.78867L632.323 1.29403C631.688 1.20034 631.053 1.10947 630.419 1.02142L630.35 1.51668ZM632.25 1.78867L632.177 2.28331C632.849 2.38254 633.523 2.40143 634.196 2.33978L634.15 1.84186L634.104 1.34395C633.511 1.39831 632.917 1.38174 632.323 1.29403L632.25 1.78867ZM634.15 1.84186L634.196 2.33978C634.868 2.27817 635.538 2.13719 636.206 1.91819L636.05 1.44311L635.894 0.968034C635.295 1.16468 634.698 1.28954 634.104 1.34395L634.15 1.84186ZM636.05 1.44311L636.206 1.91819C636.826 1.71471 637.446 1.54014 638.065 1.39436L637.95 0.907675L637.835 0.420986C637.188 0.573473 636.541 0.755856 635.894 0.968034L636.05 1.44311ZM637.95 0.907675L638.065 1.39436C638.677 1.25004 639.29 1.14649 639.901 1.08349L639.85 0.586123L639.799 0.0887548C639.144 0.156238 638.489 0.267049 637.835 0.420986L637.95 0.907675ZM639.85 0.586123L639.901 1.08349C640.412 1.03083 640.94 1.15122 641.496 1.47913L641.75 1.04843L642.004 0.617726C641.293 0.198758 640.554 0.0109361 639.799 0.0887548L639.85 0.586123ZM641.75 1.04843L641.496 1.47913C642.238 1.91689 643.02 2.03037 643.805 1.77523L643.65 1.29973L643.495 0.824234C643.014 0.980906 642.528 0.926852 642.004 0.617726L641.75 1.04843ZM643.65 1.29973L643.805 1.77523C644.337 1.60208 644.862 1.60245 645.395 1.77646L645.55 1.30117L645.705 0.825879C644.971 0.586158 644.229 0.585572 643.495 0.824234L643.65 1.29973ZM645.55 1.30117L645.395 1.77646C646.05 1.99037 646.706 2.15546 647.363 2.27133L647.45 1.77892L647.537 1.28651C646.927 1.17911 646.317 1.02569 645.705 0.825879L645.55 1.30117ZM647.45 1.77892L647.363 2.27133C648.118 2.40446 648.864 2.2667 649.584 1.8862L649.35 1.44416L649.116 1.00213C648.569 1.29125 648.048 1.37666 647.537 1.28651L647.45 1.77892ZM649.35 1.44416L649.584 1.8862C649.822 1.76024 650.037 1.72204 650.241 1.74643C650.448 1.7713 650.682 1.86612 650.945 2.06834L651.25 1.67185L651.555 1.27537C651.185 0.990987 650.785 0.804555 650.359 0.753531C649.93 0.70202 649.511 0.793274 649.116 1.00213L649.35 1.44416ZM651.25 1.67185L650.945 2.06834C651.643 2.60415 652.38 2.90207 653.149 2.90337L653.15 2.40337L653.151 1.90338C652.653 1.90253 652.124 1.71276 651.555 1.27537L651.25 1.67185ZM653.15 2.40337L653.149 2.90337C653.821 2.90452 654.492 2.82881 655.161 2.67699L655.05 2.18939L654.939 1.70179C654.342 1.83743 653.746 1.90439 653.151 1.90338L653.15 2.40337ZM655.05 2.18939L655.161 2.67699C655.832 2.52455 656.5 2.29006 657.164 1.97557L656.95 1.52372L656.736 1.07186C656.133 1.35747 655.534 1.56676 654.939 1.70179L655.05 2.18939ZM656.95 1.52372L657.164 1.97557C657.632 1.75394 658.085 1.77848 658.585 2.09047L658.85 1.66623L659.115 1.24199C658.348 0.763874 657.535 0.69341 656.736 1.07186L656.95 1.52372ZM658.85 1.66623L658.585 2.09047C659.329 2.55415 660.117 2.67981 660.909 2.41316L660.75 1.93925L660.591 1.46534C660.117 1.62476 659.638 1.56841 659.115 1.24199L658.85 1.66623ZM660.75 1.93925L660.909 2.41316C661.463 2.22711 662.007 2.19173 662.551 2.30163L662.65 1.81152L662.749 1.32142C662.027 1.17554 661.304 1.22532 660.591 1.46534L660.75 1.93925ZM662.65 1.81152L662.551 2.30163C663.364 2.46578 664.143 2.2105 664.861 1.6416L664.55 1.24986L664.239 0.858114C663.69 1.29388 663.203 1.41303 662.749 1.32142L662.65 1.81152ZM664.55 1.24986L664.861 1.6416C665.401 1.21279 665.873 1.11786 666.317 1.2401L666.45 0.758053L666.583 0.276008C665.76 0.049323 664.965 0.282265 664.239 0.858114L664.55 1.24986ZM666.45 0.758053L666.317 1.2401C667.04 1.43918 667.767 1.43392 668.489 1.22498L668.35 0.744701L668.211 0.264424C667.666 0.422204 667.127 0.425846 666.583 0.276008L666.45 0.758053ZM668.35 0.744701L668.489 1.22498C668.973 1.08485 669.464 1.14938 669.994 1.46483L670.25 1.03519L670.506 0.605558C669.769 0.166964 668.994 0.0378307 668.211 0.264424L668.35 0.744701ZM670.25 1.03519L669.994 1.46483C670.707 1.8893 671.451 2.07387 672.211 1.98123L672.15 1.48491L672.089 0.988583C671.583 1.05038 671.059 0.935134 670.506 0.605558L670.25 1.03519ZM672.15 1.48491L672.211 1.98123C672.764 1.91375 673.32 1.97553 673.885 2.17262L674.05 1.70053L674.215 1.22843C673.513 0.9836 672.803 0.901632 672.089 0.988583L672.15 1.48491ZM674.05 1.70053L673.885 2.17262C674.612 2.42616 675.349 2.45489 676.082 2.2542L675.95 1.77194L675.818 1.28968C675.285 1.43569 674.755 1.41681 674.215 1.22843L674.05 1.70053ZM675.95 1.77194L676.082 2.2542C676.701 2.08466 677.32 1.94409 677.939 1.83239L677.85 1.34035L677.761 0.848304C677.113 0.965353 676.465 1.11251 675.818 1.28968L675.95 1.77194ZM677.85 1.34035L677.939 1.83239C678.564 1.71946 679.189 1.62233 679.815 1.54099L679.75 1.04517L679.686 0.549349C679.044 0.632827 678.403 0.732482 677.761 0.848304L677.85 1.34035ZM679.75 1.04517L679.815 1.54099C680.416 1.46276 681.016 1.44353 681.617 1.48317L681.65 0.984256L681.683 0.485342C681.017 0.441381 680.351 0.462762 679.686 0.549349L679.75 1.04517ZM681.65 0.984256L681.617 1.48317C682.255 1.52527 682.893 1.55869 683.531 1.58342L683.55 1.08379L683.569 0.58417C682.941 0.559788 682.312 0.526845 681.683 0.485342L681.65 0.984256ZM683.55 1.08379L683.531 1.58342C684.188 1.60891 684.846 1.58682 685.503 1.51721L685.45 1.01999L685.397 0.52277C684.788 0.587343 684.179 0.607791 683.569 0.58417L683.55 1.08379ZM685.45 1.01999L685.503 1.51721C686.099 1.45402 686.695 1.45739 687.292 1.52735L687.35 1.03075L687.408 0.534153C686.738 0.455569 686.068 0.451763 685.397 0.52277L685.45 1.01999ZM687.35 1.03075L687.292 1.52735C687.881 1.59642 688.473 1.74495 689.07 1.97517L689.25 1.50868L689.43 1.0422C688.76 0.78371 688.086 0.613615 687.408 0.534153L687.35 1.03075ZM689.25 1.50868L689.07 1.97517C689.733 2.2309 690.399 2.41583 691.067 2.52871L691.15 2.0357L691.233 1.54268C690.635 1.44158 690.034 1.27517 689.43 1.0422L689.25 1.50868ZM691.15 2.0357L691.067 2.52871C691.862 2.66298 692.629 2.42917 693.345 1.9055L693.05 1.50183L692.755 1.09816C692.205 1.5003 691.705 1.62239 691.233 1.54268L691.15 2.0357ZM693.05 1.50183L693.345 1.9055C693.603 1.71698 693.83 1.63629 694.032 1.62352C694.231 1.61091 694.447 1.66172 694.691 1.8093L694.95 1.38132L695.208 0.953338C694.82 0.718358 694.403 0.597972 693.968 0.625527C693.536 0.652926 693.13 0.823773 692.755 1.09816L693.05 1.50183ZM694.95 1.38132L694.691 1.8093C695.395 2.23419 696.125 2.44555 696.872 2.41193L696.85 1.91244L696.828 1.41294C696.308 1.43628 695.772 1.29357 695.208 0.953338L694.95 1.38132ZM696.85 1.91244L696.872 2.41193C697.606 2.37895 698.321 2.13372 699.015 1.70117L698.75 1.27697L698.485 0.852763C697.912 1.21054 697.361 1.38895 696.828 1.41294L696.85 1.91244ZM698.75 1.27697L699.015 1.70117C699.554 1.36439 700.054 1.27683 700.54 1.38645L700.65 0.898725L700.76 0.411004C699.979 0.234615 699.212 0.399209 698.485 0.852763L698.75 1.27697ZM700.65 0.898725L700.54 1.38645C701.186 1.53237 701.833 1.65136 702.48 1.74335L702.55 1.24833L702.62 0.75331C702.001 0.665168 701.38 0.551085 700.76 0.411004L700.65 0.898725ZM702.55 1.24833L702.48 1.74335C703.193 1.84475 703.904 1.77641 704.607 1.54351L704.45 1.06885L704.293 0.594201C703.73 0.780727 703.174 0.832039 702.62 0.75331L702.55 1.24833ZM704.45 1.06885L704.607 1.54351C705.164 1.3592 705.712 1.31991 706.26 1.42043L706.35 0.928643L706.44 0.436857C705.721 0.304896 705.003 0.359074 704.293 0.594201L704.45 1.06885ZM706.35 0.928643L706.26 1.42043C706.814 1.52219 707.384 1.76224 707.971 2.15696L708.25 1.7421L708.529 1.32724C707.849 0.869838 707.153 0.567578 706.44 0.436857L706.35 0.928643ZM708.25 1.7421L707.971 2.15696C708.346 2.40894 708.745 2.56429 709.165 2.59389C709.587 2.62362 709.996 2.52402 710.385 2.31745L710.15 1.87599L709.915 1.43454C709.67 1.56477 709.447 1.61126 709.235 1.59636C709.022 1.58133 708.788 1.50133 708.529 1.32724L708.25 1.7421ZM710.15 1.87599L710.385 2.31745C710.87 2.05916 711.327 2.0599 711.814 2.32083L712.05 1.88018L712.286 1.43952C711.506 1.02126 710.696 1.01921 709.915 1.43454L710.15 1.87599ZM712.05 1.88018L711.814 2.32083C712.537 2.70878 713.288 2.8416 714.049 2.68871L713.95 2.19852L713.851 1.70833C713.345 1.81018 712.829 1.73076 712.286 1.43952L712.05 1.88018ZM713.95 2.19852L714.049 2.68871C714.742 2.54924 715.426 2.28026 716.101 1.88933L715.85 1.45676L715.599 1.02418C715.007 1.36754 714.425 1.59306 713.851 1.70833L713.95 2.19852ZM715.85 1.45676L716.101 1.88933C716.622 1.58714 717.105 1.53913 717.588 1.70438L717.75 1.23134L717.912 0.758303C717.128 0.489823 716.345 0.592092 715.599 1.02418L715.85 1.45676ZM717.75 1.23134L717.588 1.70438C718.317 1.95391 719.055 1.97466 719.789 1.7632L719.65 1.28276L719.512 0.80233C718.978 0.956029 718.45 0.9425 717.912 0.758303L717.75 1.23134ZM719.65 1.28276L719.789 1.7632C720.344 1.60308 720.893 1.58364 721.445 1.70245L721.55 1.21368L721.655 0.724904C720.94 0.570664 720.223 0.597283 719.512 0.80233L719.65 1.28276ZM721.55 1.21368L721.445 1.70245C722.045 1.8318 722.647 2.02556 723.253 2.28499L723.45 1.82538L723.647 1.36577C722.986 1.08265 722.322 0.868603 721.655 0.724904L721.55 1.21368ZM723.45 1.82538L723.253 2.28499C723.997 2.60377 724.759 2.63701 725.514 2.3756L725.35 1.90315L725.186 1.4307C724.674 1.60816 724.169 1.58956 723.647 1.36577L723.45 1.82538ZM725.35 1.90315L725.514 2.3756C726.067 2.18398 726.61 2.14471 727.153 2.25165L727.25 1.76107L727.347 1.27049C726.623 1.128 725.9 1.18346 725.186 1.4307L725.35 1.90315ZM727.25 1.76107L727.153 2.25165C727.887 2.39615 728.619 2.31873 729.336 2.0303L729.15 1.56637L728.964 1.10243C728.415 1.32304 727.879 1.37541 727.347 1.27049L727.25 1.76107ZM729.15 1.56637L729.336 2.0303C729.824 1.83455 730.302 1.86165 730.813 2.13729L731.05 1.69728L731.287 1.25726C730.532 0.849323 729.743 0.789156 728.964 1.10243L729.15 1.56637ZM731.05 1.69728L730.813 2.13729C731.574 2.54826 732.368 2.59536 733.149 2.25693L732.95 1.79817L732.751 1.33942C732.265 1.55003 731.793 1.52986 731.287 1.25726L731.05 1.69728ZM732.95 1.79817L733.149 2.25693C733.782 1.98245 734.415 1.70817 735.049 1.43412L734.85 0.975245L734.651 0.516374C734.018 0.79051 733.385 1.06486 732.751 1.33942L732.95 1.79817ZM734.85 0.975245L735.049 1.43412C735.488 1.24405 735.931 1.29214 736.447 1.68443L736.75 1.28641L737.053 0.888387C736.302 0.317595 735.479 0.158246 734.651 0.516374L734.85 0.975245ZM736.75 1.28641L736.447 1.68443C737.141 2.21141 737.868 2.51767 738.625 2.55519L738.65 2.0558L738.675 1.55641C738.165 1.53116 737.626 1.32449 737.053 0.888387L736.75 1.28641ZM738.65 2.0558L738.625 2.55519C739.389 2.59304 740.128 2.34764 740.832 1.86659L740.55 1.45376L740.268 1.04092C739.705 1.42538 739.178 1.58134 738.675 1.55641L738.65 2.0558ZM740.55 1.45376L740.832 1.86659C741.374 1.49659 741.867 1.39945 742.341 1.50572L742.45 1.01785L742.56 0.529991C741.766 0.351953 740.993 0.545413 740.268 1.04092L740.55 1.45376ZM742.45 1.01785L742.341 1.50572C742.925 1.63683 743.515 1.86138 744.113 2.18376L744.35 1.74375L744.587 1.30373C743.918 0.942554 743.242 0.683182 742.56 0.529991L742.45 1.01785ZM744.35 1.74375L744.113 2.18376C744.883 2.59971 745.686 2.62518 746.468 2.24714L746.25 1.79701L746.032 1.34688C745.547 1.58137 745.083 1.57134 744.587 1.30373L744.35 1.74375ZM746.25 1.79701L746.468 2.24714C747.093 1.94488 747.717 1.6641 748.342 1.40476L748.15 0.943007L747.958 0.481258C747.316 0.748043 746.674 1.0366 746.032 1.34688L746.25 1.79701ZM748.15 0.943007L748.342 1.40476C748.758 1.23171 749.195 1.29109 749.723 1.74716L750.05 1.36872L750.377 0.990279C749.638 0.352603 748.808 0.128172 747.958 0.481258L748.15 0.943007ZM750.05 1.36872L749.723 1.74716C750.093 2.06661 750.502 2.27922 750.948 2.32582C751.4 2.37304 751.83 2.24356 752.224 1.9857L751.95 1.56733L751.676 1.14896C751.437 1.30557 751.234 1.35022 751.052 1.33124C750.865 1.31164 750.64 1.21771 750.377 0.990279L750.05 1.36872ZM751.95 1.56733L752.224 1.9857C752.48 1.81819 752.71 1.74492 752.921 1.73607C753.13 1.72727 753.355 1.7806 753.602 1.92179L753.85 1.48746L754.098 1.05314C753.712 0.8331 753.303 0.719125 752.879 0.736949C752.456 0.754721 752.054 0.901997 751.676 1.14896L751.95 1.56733ZM753.85 1.48746L753.602 1.92179C754.31 2.32559 755.044 2.51032 755.793 2.4465L755.75 1.9483L755.708 1.45011C755.19 1.49428 754.656 1.37178 754.098 1.05314L753.85 1.48746ZM755.75 1.9483L755.793 2.4465C756.401 2.39464 757.009 2.3889 757.617 2.42926L757.65 1.93036L757.683 1.43146C757.025 1.38775 756.366 1.39397 755.708 1.45011L755.75 1.9483ZM757.65 1.93036L757.617 2.42926C758.269 2.47258 758.922 2.47799 759.575 2.44549L759.55 1.94611L759.525 1.44673C758.911 1.4773 758.297 1.47222 757.683 1.43146L757.65 1.93036ZM759.55 1.94611L759.575 2.44549C760.293 2.40976 760.998 2.19731 761.688 1.82287L761.45 1.38339L761.212 0.943905C760.635 1.25669 760.074 1.4194 759.525 1.44673L759.55 1.94611ZM761.45 1.38339L761.688 1.82287C762.241 1.52287 762.769 1.42092 763.285 1.48883L763.35 0.993109L763.415 0.497391C762.664 0.398446 761.925 0.556679 761.212 0.943905L761.45 1.38339ZM763.35 0.993109L763.285 1.48883C763.977 1.58003 764.669 1.548 765.359 1.39384L765.25 0.905883L765.141 0.417926C764.564 0.54692 763.99 0.573037 763.415 0.497391L763.35 0.993109ZM765.25 0.905883L765.359 1.39384C765.894 1.27433 766.428 1.31269 766.975 1.51698L767.15 1.04863L767.325 0.580285C766.605 0.311091 765.873 0.254284 765.141 0.417926L765.25 0.905883ZM767.15 1.04863L766.975 1.51698C767.649 1.76898 768.328 1.92331 769.011 1.97721L769.05 1.47877L769.089 0.980318C768.505 0.934198 767.918 0.80177 767.325 0.580285L767.15 1.04863ZM769.05 1.47877L769.011 1.97721C769.649 2.02762 770.287 2.06844 770.926 2.09967L770.95 1.60027L770.974 1.10087C770.346 1.07012 769.718 1.02994 769.089 0.980318L769.05 1.47877ZM770.95 1.60027L770.926 2.09967C771.607 2.13301 772.287 2.06908 772.965 1.90904L772.85 1.42243L772.735 0.935808C772.146 1.07487 771.56 1.12951 770.974 1.10087L770.95 1.60027ZM772.85 1.42243L772.965 1.90904C773.611 1.75658 774.256 1.5783 774.901 1.37426L774.75 0.89755L774.599 0.420837C773.977 0.617534 773.356 0.78917 772.735 0.935808L772.85 1.42243ZM774.75 0.89755L774.901 1.37426C775.489 1.18832 776.072 1.09508 776.653 1.09206L776.65 0.592071L776.647 0.0920782C775.961 0.0956374 775.278 0.206045 774.599 0.420837L774.75 0.89755ZM776.65 0.592071L776.653 1.09206C777.141 1.08953 777.667 1.28305 778.236 1.74238L778.55 1.35315L778.864 0.963915C778.167 0.401905 777.425 0.0880429 776.647 0.0920782L776.65 0.592071ZM778.55 1.35315L778.236 1.74238C778.94 2.30958 779.695 2.60591 780.488 2.54625L780.45 2.04766L780.412 1.54907C779.939 1.58473 779.427 1.41806 778.864 0.963915L778.55 1.35315ZM780.45 2.04766L780.488 2.54625C781.074 2.50212 781.661 2.53979 782.25 2.66003L782.35 2.17014L782.45 1.68024C781.772 1.54186 781.093 1.49788 780.412 1.54907L780.45 2.04766ZM782.35 2.17014L782.25 2.66003C783.071 2.82772 783.855 2.55333 784.57 1.95873L784.25 1.57425L783.93 1.18978C783.379 1.64832 782.895 1.77118 782.45 1.68024L782.35 2.17014ZM784.25 1.57425L784.57 1.95873C784.835 1.73783 785.069 1.63513 785.271 1.60609C785.468 1.57787 785.676 1.61299 785.911 1.74071L786.15 1.30157L786.389 0.862423C785.99 0.645362 785.566 0.553551 785.129 0.616229C784.698 0.678082 784.298 0.884113 783.93 1.18978L784.25 1.57425ZM786.15 1.30157L785.911 1.74071C786.607 2.11973 787.322 2.31902 788.049 2.31998L788.05 1.81998L788.051 1.31998C787.512 1.31927 786.959 1.17295 786.389 0.862423L786.15 1.30157ZM788.05 1.81998L788.049 2.31998C788.723 2.32087 789.395 2.24127 790.066 2.08206L789.95 1.59559L789.834 1.10912C789.238 1.25076 788.644 1.32076 788.051 1.31998L788.05 1.81998ZM789.95 1.59559L790.066 2.08206C790.611 1.95259 791.153 1.97081 791.703 2.13963L791.85 1.66165L791.997 1.18368C791.28 0.96356 790.556 0.937738 789.834 1.10912L789.95 1.59559ZM791.85 1.66165L791.703 2.13963C792.408 2.35593 793.119 2.40797 793.831 2.29184L793.75 1.79836L793.67 1.30489C793.115 1.39542 792.559 1.35632 791.997 1.18368L791.85 1.66165ZM793.75 1.79836L793.831 2.29184C794.446 2.19149 795.06 2.12627 795.675 2.09607L795.65 1.59667L795.625 1.09727C794.973 1.12934 794.321 1.19857 793.67 1.30489L793.75 1.79836ZM795.65 1.59667L795.675 2.09607C796.315 2.0646 796.955 2.0199 797.595 1.96196L797.55 1.46399L797.505 0.966029C796.878 1.02273 796.252 1.06648 795.625 1.09727L795.65 1.59667ZM797.55 1.46399L797.595 1.96196C798.292 1.89886 798.982 1.70354 799.663 1.38271L799.45 0.930399L799.237 0.478092C798.651 0.75408 798.074 0.914487 797.505 0.966029L797.55 1.46399ZM799.45 0.930399L799.663 1.38271C799.883 1.27907 800.081 1.2619 800.277 1.31149C800.483 1.36362 800.725 1.49983 801.001 1.7687L801.35 1.41109L801.699 1.05347C801.341 0.703474 800.95 0.450135 800.523 0.342036C800.085 0.231396 799.65 0.283322 799.237 0.478092L799.45 0.930399ZM801.35 1.41109L801.001 1.7687C801.709 2.46052 802.512 2.80187 803.371 2.58737L803.25 2.10225L803.129 1.61714C802.722 1.71882 802.258 1.59939 801.699 1.05347L801.35 1.41109ZM803.25 2.10225L803.371 2.58737C803.96 2.44046 804.405 2.4297 804.732 2.50927L804.85 2.02348L804.968 1.53769C804.428 1.40612 803.807 1.44787 803.129 1.61714L803.25 2.10225ZM804.85 2.02348L804.732 2.50927C804.967 2.56662 805.246 2.60571 805.493 2.52443C805.633 2.47875 805.773 2.39111 805.873 2.24394C805.97 2.10042 806 1.94394 806 1.81022H805.5H805C805 1.80038 805.003 1.74569 805.046 1.68189C805.092 1.61442 805.151 1.5844 805.182 1.57427C805.206 1.56641 805.205 1.57256 805.161 1.57024C805.12 1.56805 805.057 1.55923 804.968 1.53769L804.85 2.02348ZM805.5 1.81022L805.983 1.6803L805.883 1.30868L805.4 1.4386L804.917 1.56852L805.017 1.94015L805.5 1.81022ZM805.4 1.4386V1.9386H805.5V1.4386V0.938599H805.4V1.4386Z" fill="#B76059"/>
</svg>
