<svg width="141" height="139" viewBox="0 0 141 139" fill="none" xmlns="http://www.w3.org/2000/svg">
<path opacity="0.56" d="M14.9274 2.56099C15.1155 2.46945 15.3005 2.48116 15.4824 2.59614L16.028 2.94106C16.2099 3.05604 16.3923 3.12985 16.5752 3.1625L17.1239 3.26046C17.3068 3.29311 17.489 3.3285 17.6702 3.36662L18.2141 3.48099C18.3954 3.51912 18.5761 3.55825 18.7561 3.5984L19.2961 3.71885C19.4761 3.759 19.6682 3.72618 19.8726 3.62037L20.4857 3.30295C20.69 3.19715 20.8727 3.21869 21.0337 3.36757L21.5166 3.81423C21.6775 3.96312 21.8623 3.99553 22.0707 3.91147L22.696 3.65928C22.9044 3.57521 23.0899 3.59306 23.2524 3.71282L23.7398 4.0721C23.9023 4.19186 24.072 4.27964 24.2488 4.33544L24.7794 4.50283C24.9563 4.55863 25.1443 4.57998 25.3434 4.56689L25.9408 4.52763C26.14 4.51454 26.3257 4.54517 26.4981 4.61953L27.0154 4.84259C27.1878 4.91694 27.3381 5.04676 27.4663 5.23204L27.8511 5.78788C27.9794 5.97316 28.1263 6.10518 28.292 6.18395L28.7891 6.42024C28.9547 6.499 29.1353 6.54498 29.3307 6.55818L29.9168 6.59777C30.1122 6.61096 30.2872 6.66976 30.4419 6.77416L30.9061 7.08737C31.0608 7.19178 31.24 7.24863 31.4436 7.25795L32.0547 7.2859C32.2584 7.29521 32.4521 7.32703 32.636 7.38135L33.1877 7.5443C33.3716 7.59862 33.5448 7.6729 33.7074 7.76716L34.1952 8.04992C34.3577 8.14418 34.4824 8.29718 34.5692 8.50891L34.8294 9.14413C34.9162 9.35587 35.0277 9.52515 35.1639 9.65198L35.5727 10.0325C35.7089 10.1593 35.8543 10.2724 36.0088 10.3717L36.4723 10.6698C36.6267 10.7692 36.7769 10.8747 36.9226 10.9864L37.3598 11.3216C37.5055 11.4333 37.6733 11.5183 37.8632 11.5767L38.4329 11.7517C38.6227 11.8101 38.797 11.8897 38.9555 11.9905L39.4312 12.2931C39.5897 12.3939 39.7551 12.4886 39.9273 12.5772L40.4439 12.8428C40.6161 12.9314 40.7534 13.0577 40.8558 13.2217L41.1631 13.7138C41.2655 13.8779 41.3917 14.0172 41.5418 14.1317L41.992 14.4755C42.1421 14.59 42.2787 14.718 42.4019 14.8592L42.7715 15.283C42.8948 15.4243 43.0104 15.5719 43.1186 15.7258L43.4431 16.1877C43.5512 16.3416 43.6589 16.4953 43.766 16.6488L44.0874 17.1092C44.1946 17.2626 44.2956 17.4203 44.3906 17.5821L44.6756 18.0676C44.7706 18.2294 44.9083 18.3597 45.0887 18.4586L45.6298 18.7551C45.8102 18.8539 45.8881 19.0252 45.8636 19.2689L45.79 19.9999C45.7654 20.2436 45.8633 20.3252 46.0835 20.2447L46.7442 20.0034C46.9644 19.923 47.1757 19.8775 47.378 19.867L47.9848 19.8354C48.187 19.8249 48.3317 19.6975 48.4188 19.4531L48.6801 18.7201C48.7672 18.4757 48.9184 18.3654 49.1337 18.389L49.7795 18.4598C49.9948 18.4834 50.175 18.4279 50.3202 18.2935L50.7555 17.8901C50.9006 17.7557 51.0628 17.6618 51.2421 17.6084L51.7801 17.4482C51.9594 17.3948 52.1552 17.3919 52.3676 17.4393L53.0048 17.5816C53.2172 17.629 53.3906 17.5591 53.5248 17.3718L53.9277 16.8099C54.062 16.6227 54.2311 16.5481 54.4352 16.5861L55.0473 16.7002C55.2513 16.7383 55.4455 16.7467 55.6298 16.7254L56.1827 16.6616C56.367 16.6403 56.5513 16.622 56.7355 16.6066L57.2881 16.5604C57.4723 16.545 57.643 16.4585 57.8 16.3008L58.2712 15.8279C58.4283 15.6702 58.602 15.5979 58.7924 15.6109L59.3634 15.6498C59.5537 15.6628 59.7451 15.694 59.9375 15.7435L60.5146 15.892C60.707 15.9415 60.891 15.9229 61.0664 15.836L61.5928 15.5754C61.7683 15.4886 61.9497 15.4623 62.1371 15.4966L62.6992 15.5996C62.8866 15.6339 63.0717 15.6425 63.2545 15.6254L63.8029 15.5741C63.9858 15.557 64.1684 15.4765 64.3507 15.3328L64.8978 14.9014C65.0802 14.7576 65.2644 14.7559 65.4505 14.8962L66.0086 15.3172C66.1947 15.4576 66.3804 15.5318 66.5658 15.5398L67.122 15.5641C67.3074 15.5722 67.4927 15.5726 67.6781 15.5652L68.2343 15.5432C68.4197 15.5358 68.6058 15.4609 68.7927 15.3184L69.3533 14.8908C69.5402 14.7483 69.7268 14.6926 69.9131 14.7237L70.4719 14.8172C70.6582 14.8484 70.8425 14.901 71.0247 14.975L71.5714 15.1971C71.7537 15.2711 71.9361 15.3234 72.1186 15.3541L72.6663 15.446C72.8489 15.4766 73.035 15.4799 73.2245 15.4558L73.7933 15.3837C73.9828 15.3596 74.1628 15.4036 74.3331 15.5157L74.844 15.8518C75.0143 15.9639 75.1879 16.0467 75.3646 16.1003L75.8949 16.261C76.0716 16.3146 76.2499 16.3579 76.4298 16.391L76.9693 16.4902C77.1492 16.5233 77.3408 16.5096 77.5442 16.4491L78.1544 16.2678C78.3578 16.2073 78.5488 16.2031 78.7275 16.2552L79.2634 16.4115C79.442 16.4636 79.6198 16.5179 79.7965 16.5746L80.3268 16.7446C80.5036 16.8013 80.6656 16.9017 80.8127 17.0459L81.2541 17.4785C81.4013 17.6227 81.5598 17.7288 81.7298 17.7967L82.2398 18.0007C82.4098 18.0687 82.6131 18.055 82.8498 17.9594L83.5599 17.6729C83.7966 17.5774 83.9902 17.592 84.1407 17.7166L84.5921 18.0905C84.7426 18.2151 84.9035 18.3145 85.0747 18.3885L85.5882 18.6105C85.7593 18.6845 85.9286 18.763 86.0958 18.846L86.5976 19.0951C86.7648 19.1782 86.9068 19.3072 87.0234 19.4821L87.3734 20.0071C87.49 20.182 87.6621 20.2575 87.8895 20.2334L88.572 20.1613C88.7994 20.1373 88.9813 20.1932 89.1176 20.3291L89.5263 20.7368C89.6626 20.8727 89.7968 21.0094 89.9291 21.1469L90.3258 21.5593C90.458 21.6968 90.6243 21.7846 90.8245 21.8226L91.4251 21.9369C91.6253 21.975 91.7596 22.1043 91.8281 22.3248L92.0337 22.9862C92.1022 23.2067 92.2319 23.3446 92.4228 23.4002L92.9955 23.5667C93.1864 23.6222 93.3362 23.7296 93.4447 23.8888L93.7704 24.3664C93.879 24.5256 93.9992 24.6696 94.1311 24.7986L94.5269 25.1854C94.6588 25.3143 94.8353 25.3961 95.0565 25.4309L95.7199 25.5351C95.9411 25.5699 96.0734 25.6978 96.1169 25.9188L96.2474 26.582C96.291 26.8031 96.3808 26.976 96.5169 27.1007L96.9253 27.4747C97.0615 27.5993 97.2349 27.6916 97.4457 27.7515L98.0779 27.9311C98.2887 27.991 98.3921 28.1448 98.3881 28.3926L98.3763 29.1359C98.3724 29.3837 98.4867 29.5326 98.7191 29.5827L99.4166 29.7329C99.6491 29.7829 99.8072 29.8936 99.8908 30.0649L100.142 30.5787C100.225 30.75 100.327 30.9078 100.446 31.0521L100.802 31.485C100.921 31.6293 101.013 31.7918 101.078 31.9727L101.272 32.5151C101.337 32.696 101.391 32.8819 101.434 33.0731L101.564 33.6464C101.607 33.8375 101.709 33.9925 101.87 34.1115L102.353 34.4683C102.514 34.5873 102.625 34.7362 102.685 34.915L102.865 35.4514C102.925 35.6302 103.03 35.7851 103.181 35.9162L103.634 36.3095C103.784 36.4406 103.89 36.5953 103.95 36.7737L104.129 37.3089C104.189 37.4873 104.238 37.6696 104.277 37.8558L104.394 38.4143C104.433 38.6004 104.456 38.7915 104.464 38.9876L104.487 39.5757C104.495 39.7717 104.555 39.9471 104.665 40.1019L104.998 40.5661C105.109 40.7209 105.251 40.867 105.423 41.0043L105.94 41.4165C106.113 41.5538 106.18 41.7263 106.143 41.9337L106.031 42.5561C105.994 42.7636 105.991 42.9592 106.021 43.143L106.112 43.6944C106.142 43.8782 106.158 44.0647 106.159 44.254L106.164 44.8218C106.166 45.0111 106.202 45.1922 106.273 45.3651L106.486 45.8839C106.557 46.0568 106.632 46.2297 106.711 46.4028L106.948 46.9218C107.027 47.0948 107.068 47.275 107.071 47.4623L107.08 48.0244C107.083 48.2118 107.112 48.3953 107.167 48.575L107.331 49.114C107.385 49.2937 107.421 49.476 107.437 49.6612L107.485 50.2165C107.501 50.4016 107.538 50.5856 107.594 50.7684L107.763 51.317C107.82 51.4998 107.882 51.6836 107.95 51.8684L108.153 52.4228C108.221 52.6075 108.197 52.7946 108.08 52.9839L107.731 53.5517C107.614 53.741 107.611 53.9287 107.72 54.1147L108.048 54.6728C108.158 54.8588 108.214 55.0448 108.216 55.2308L108.224 55.7888C108.227 55.9748 108.206 56.1254 108.163 56.2404L108.032 56.5855C107.988 56.7006 108.039 56.8431 108.183 57.0132L108.617 57.5235C108.762 57.6936 108.923 57.8028 109.1 57.8513L109.631 57.9966C109.808 58.0451 109.98 58.1099 110.145 58.1911L110.643 58.4348C110.809 58.516 110.983 58.5729 111.167 58.6057L111.717 58.7038C111.901 58.7366 112.09 58.7587 112.284 58.7701L112.868 58.8046C113.063 58.816 113.257 58.8323 113.452 58.8534L114.034 58.9167C114.228 58.9378 114.384 59.0424 114.5 59.2306L114.85 59.7951C114.966 59.9833 115.114 60.1058 115.291 60.1625L115.825 60.3328C116.003 60.3895 116.179 60.4525 116.351 60.5217L116.87 60.7294C117.043 60.7986 117.228 60.8487 117.426 60.8797L118.018 60.9727C118.215 61.0037 118.38 61.0893 118.513 61.2295L118.912 61.6503C119.045 61.7905 119.209 61.8834 119.402 61.9289L119.983 62.0655C120.177 62.111 120.333 62.2118 120.453 62.368L120.811 62.8365C120.931 62.9926 121.074 63.114 121.243 63.2006L121.747 63.4605C121.915 63.5471 122.047 63.6808 122.142 63.8617L122.426 64.4045C122.521 64.5854 122.626 64.7516 122.74 64.903L123.081 65.3574C123.195 65.5089 123.376 65.5843 123.624 65.5835L124.366 65.5811C124.614 65.5804 124.755 65.6976 124.792 65.933L124.901 66.6391C124.937 66.8744 125.051 67.0264 125.243 67.0951L125.819 67.301C126.011 67.3696 126.159 67.4826 126.264 67.6398L126.58 68.1115C126.685 68.2688 126.787 68.4281 126.885 68.5895L127.179 69.0736C127.277 69.235 127.406 69.3687 127.567 69.4747L128.049 69.7929C128.21 69.8989 128.351 70.0224 128.472 70.1635L128.837 70.5866C128.959 70.7276 129.075 70.8729 129.186 71.0225L129.519 71.4713C129.63 71.6209 129.732 71.777 129.825 71.9396L130.103 72.4272C130.196 72.5897 130.285 72.7543 130.37 72.9208L130.625 73.4204C130.71 73.5869 130.82 73.7371 130.954 73.8708L131.358 74.2721C131.493 74.4058 131.6 74.5574 131.679 74.7268L131.917 75.235C131.996 75.4044 132.116 75.5507 132.276 75.674L132.757 76.0437C132.918 76.167 133.023 76.3214 133.073 76.507L133.223 77.0639C133.273 77.2495 133.294 77.4476 133.287 77.6583L133.267 78.2904C133.26 78.5011 133.319 78.6791 133.444 78.8245L133.819 79.2606C133.944 79.4059 134.041 79.5646 134.109 79.7364L134.316 80.2521C134.385 80.424 134.442 80.6005 134.487 80.7816L134.622 81.3248C134.667 81.5059 134.775 81.6641 134.946 81.7994L135.459 82.2054C135.63 82.3408 135.749 82.4962 135.816 82.6717L136.016 83.1982C136.083 83.3738 136.085 83.5685 136.023 83.7823L135.835 84.424C135.772 84.6379 135.825 84.8183 135.993 84.9653L136.496 85.4064C136.664 85.5534 136.755 85.7217 136.769 85.9113L136.809 86.4801C136.822 86.6697 136.792 86.8674 136.717 87.0733L136.492 87.6909C136.417 87.8968 136.406 88.0885 136.459 88.266L136.619 88.7986C136.672 88.9761 136.765 89.1484 136.897 89.3154L137.293 89.8165C137.425 89.9835 137.489 90.1614 137.486 90.3503L137.477 90.9169C137.474 91.1058 137.484 91.2929 137.507 91.4783L137.576 92.0345C137.599 92.2199 137.578 92.4079 137.513 92.5985L137.317 93.1704C137.251 93.361 137.206 93.549 137.181 93.7344L137.108 94.2906C137.083 94.476 137.127 94.6602 137.24 94.8434L137.578 95.3929C137.691 95.576 137.736 95.7609 137.713 95.9476L137.644 96.5078C137.621 96.6945 137.643 96.8824 137.71 97.0715L137.91 97.6388C137.977 97.828 138.007 98.0167 137.999 98.2051L137.975 98.7702C137.967 98.9586 137.922 99.1429 137.84 99.3231L137.595 99.8636C137.513 100.044 137.455 100.226 137.42 100.409L137.316 100.96C137.282 101.144 137.205 101.32 137.087 101.489L136.733 101.996C136.615 102.165 136.613 102.354 136.727 102.563L137.069 103.188C137.183 103.397 137.189 103.586 137.086 103.756L136.779 104.264C136.677 104.433 136.626 104.614 136.629 104.806L136.635 105.381C136.637 105.573 136.624 105.762 136.596 105.949L136.514 106.508C136.487 106.695 136.409 106.866 136.282 107.023L135.899 107.492C135.771 107.649 135.723 107.83 135.755 108.037L135.851 108.658C135.883 108.865 135.838 109.046 135.718 109.202L135.357 109.668C135.237 109.824 135.109 109.975 134.974 110.121L134.569 110.56C134.434 110.706 134.329 110.863 134.255 111.031L134.03 111.536C133.955 111.704 133.871 111.868 133.777 112.027L133.495 112.504C133.401 112.663 133.327 112.832 133.273 113.01L133.11 113.545C133.056 113.724 133.025 113.915 133.015 114.119L132.986 114.733C132.976 114.937 132.918 115.116 132.812 115.27L132.492 115.733C132.386 115.887 132.315 116.062 132.279 116.259L132.172 116.849C132.136 117.046 132.069 117.224 131.969 117.383L131.67 117.862C131.57 118.022 131.397 118.13 131.149 118.186L130.407 118.356C130.159 118.413 130.014 118.539 129.97 118.735L129.839 119.321C129.795 119.517 129.742 119.708 129.681 119.895L129.496 120.457C129.435 120.645 129.328 120.797 129.177 120.915L128.722 121.267C128.571 121.384 128.406 121.489 128.228 121.58L127.694 121.854C127.516 121.945 127.419 122.108 127.404 122.345L127.358 123.053C127.342 123.289 127.254 123.461 127.094 123.567L126.614 123.885C126.454 123.991 126.305 124.106 126.166 124.231L125.75 124.606C125.611 124.731 125.465 124.847 125.31 124.954L124.846 125.274C124.691 125.381 124.568 125.524 124.477 125.702L124.204 126.236C124.113 126.414 123.965 126.526 123.76 126.571L123.145 126.708C122.94 126.753 122.773 126.843 122.644 126.979L122.258 127.385C122.129 127.521 121.99 127.643 121.84 127.752L121.391 128.08C121.241 128.19 121.076 128.276 120.895 128.34L120.352 128.532C120.171 128.596 120.042 128.737 119.965 128.955L119.732 129.61C119.654 129.829 119.511 129.947 119.303 129.966L118.677 130.021C118.468 130.039 118.275 130.077 118.095 130.136L117.557 130.313C117.378 130.371 117.21 130.45 117.054 130.547L116.585 130.84C116.428 130.937 116.27 131.031 116.109 131.121L115.627 131.391C115.467 131.481 115.315 131.591 115.173 131.722L114.746 132.114C114.603 132.245 114.43 132.308 114.226 132.304L113.614 132.292C113.41 132.288 113.233 132.344 113.082 132.462L112.631 132.814C112.481 132.932 112.321 133.027 112.151 133.099L111.64 133.317C111.47 133.39 111.3 133.463 111.13 133.537L110.62 133.76C110.451 133.834 110.267 133.866 110.07 133.855L109.479 133.823C109.282 133.813 109.098 133.842 108.928 133.912L108.416 134.121C108.245 134.191 108.083 134.299 107.93 134.445L107.469 134.881C107.315 135.027 107.145 135.108 106.958 135.125L106.396 135.174C106.209 135.191 106.024 135.219 105.843 135.258L105.298 135.376C105.116 135.415 104.937 135.473 104.761 135.55L104.232 135.779C104.056 135.856 103.872 135.88 103.679 135.851L103.103 135.766C102.911 135.737 102.718 135.69 102.524 135.624L101.943 135.425C101.75 135.359 101.564 135.357 101.385 135.419L100.849 135.604C100.67 135.666 100.489 135.709 100.305 135.732L99.7536 135.8C99.5697 135.823 99.3856 135.834 99.2011 135.834L98.6476 135.833C98.4631 135.833 98.2782 135.811 98.0929 135.768L97.537 135.637C97.3517 135.594 97.1664 135.643 96.981 135.784L96.4249 136.21C96.2395 136.351 96.0541 136.354 95.8687 136.217L95.3126 135.806C95.1272 135.669 94.9418 135.67 94.7564 135.809L94.2003 136.226C94.0149 136.365 93.8295 136.391 93.6441 136.305L93.088 136.047C92.9026 135.961 92.7172 135.952 92.5318 136.02L91.9757 136.224C91.7903 136.292 91.6049 136.286 91.4195 136.204L90.8634 135.961C90.678 135.88 90.4926 135.836 90.3072 135.829L89.7511 135.807C89.5657 135.8 89.3803 135.828 89.1949 135.891L88.6388 136.079C88.4534 136.141 88.268 136.187 88.0826 136.214L87.5265 136.297C87.3411 136.325 87.1557 136.353 86.9704 136.383L86.4142 136.47C86.2288 136.499 86.0434 136.469 85.858 136.379L85.3019 136.109C85.1165 136.019 84.9312 135.953 84.7458 135.909L84.1896 135.78C84.0042 135.736 83.8188 135.727 83.6335 135.75L83.0773 135.82C82.8919 135.844 82.7066 135.885 82.5212 135.945L81.965 136.124C81.7796 136.184 81.5943 136.171 81.4089 136.087L80.8527 135.833C80.6673 135.748 80.482 135.742 80.2966 135.816L79.7404 136.036C79.5551 136.11 79.3697 136.18 79.1843 136.248L78.6281 136.452C78.4428 136.519 78.2574 136.505 78.072 136.409L77.5159 136.121C77.3305 136.025 77.1451 135.974 76.9597 135.966L76.4035 135.943C76.2182 135.935 76.0328 135.941 75.8474 135.961L75.2913 136.021C75.1059 136.04 74.9205 136.038 74.7351 136.012L74.179 135.936C73.9936 135.911 73.8082 135.895 73.6228 135.889L73.0667 135.871C72.8813 135.865 72.6959 135.839 72.5105 135.793L71.9544 135.654C71.769 135.608 71.5836 135.576 71.3982 135.559L70.8421 135.507C70.6567 135.49 70.4713 135.565 70.2859 135.733L69.7298 136.236C69.5444 136.404 69.359 136.482 69.1736 136.469L68.6175 136.431C68.4321 136.419 68.2467 136.394 68.0614 136.359L67.5052 136.252C67.3198 136.216 67.1344 136.178 66.9491 136.137L66.3929 136.016C66.2075 135.975 66.0221 136.006 65.8368 136.106L65.2806 136.409C65.0952 136.509 64.9098 136.469 64.7245 136.288L64.1683 135.745C63.9829 135.564 63.7976 135.524 63.6122 135.625L63.056 135.929C62.8706 136.03 62.6853 136.113 62.4999 136.176L61.9437 136.365C61.7583 136.428 61.573 136.43 61.3876 136.371L60.8314 136.195C60.6461 136.136 60.4607 136.075 60.2753 136.013L59.7191 135.826C59.5338 135.763 59.3484 135.742 59.163 135.76L58.6068 135.816C58.4215 135.835 58.2361 135.849 58.0507 135.858L57.4946 135.886C57.3092 135.895 57.1238 135.879 56.9384 135.838L56.3823 135.715C56.1969 135.675 56.0115 135.701 55.8261 135.795L55.27 136.077C55.0846 136.17 54.8992 136.154 54.7138 136.026L54.1577 135.645C53.9723 135.517 53.7869 135.501 53.6015 135.597L53.0454 135.884C52.86 135.979 52.6746 136.053 52.4892 136.104L51.9331 136.256C51.7477 136.307 51.5623 136.289 51.3769 136.201L50.8208 135.938C50.6354 135.85 50.45 135.791 50.2646 135.76L49.7085 135.667C49.5231 135.636 49.3377 135.609 49.1523 135.587L48.5962 135.518C48.4108 135.495 48.2254 135.524 48.0401 135.604L47.4839 135.847C47.2985 135.927 47.1131 135.967 46.9278 135.967L46.3716 135.965C46.1862 135.964 46.0008 135.993 45.8155 136.052L45.2593 136.227C45.0739 136.285 44.8885 136.262 44.7032 136.158L44.147 135.846C43.9616 135.742 43.7763 135.676 43.5909 135.649L43.0347 135.566C42.8493 135.538 42.664 135.589 42.4786 135.719L41.9224 136.108C41.7371 136.237 41.5517 136.283 41.3663 136.245L40.8101 136.132C40.6248 136.094 40.4394 136.049 40.254 135.998L39.6978 135.843C39.5125 135.792 39.3271 135.798 39.1417 135.862L38.5855 136.055C38.4002 136.12 38.2148 136.144 38.0294 136.127L37.4733 136.079C37.2879 136.063 37.1025 136.04 36.9171 136.009L36.361 135.916C36.1756 135.885 35.9902 135.896 35.8048 135.948L35.2487 136.103C35.0633 136.155 34.8779 136.172 34.6925 136.154L34.1364 136.101C33.951 136.083 33.7656 136.026 33.5802 135.93L33.0241 135.643C32.8387 135.547 32.6533 135.582 32.4679 135.75L31.9118 136.251C31.7264 136.419 31.541 136.463 31.3556 136.384L30.7995 136.147C30.6141 136.068 30.4287 136.039 30.2433 136.058L29.6872 136.117C29.5018 136.137 29.3164 136.159 29.1311 136.182L28.5749 136.251C28.3895 136.274 28.2041 136.306 28.0188 136.346L27.4626 136.466C27.2772 136.506 27.0918 136.472 26.9065 136.366L26.3503 136.047C26.1649 135.941 25.9795 135.867 25.7942 135.826L25.238 135.702C25.0526 135.661 24.8673 135.666 24.6819 135.716L24.1257 135.866C23.9403 135.916 23.755 135.948 23.5696 135.962L23.0134 136.002C22.828 136.015 22.6427 136.058 22.4573 136.131L21.9011 136.35C21.7158 136.423 21.5304 136.382 21.345 136.227L20.7888 135.761C20.6035 135.606 20.4181 135.576 20.2327 135.671L19.6765 135.957C19.4912 136.052 19.3058 136.139 19.1204 136.217L18.5643 136.452C18.3789 136.531 18.1935 136.478 18.0081 136.294L17.452 135.741C17.2666 135.557 17.0812 135.498 16.8958 135.564L16.3397 135.764C16.1543 135.83 15.9689 135.856 15.7835 135.842L15.2274 135.798C15.042 135.784 14.8566 135.812 14.6712 135.882L14.1151 136.094C13.9297 136.164 13.7443 136.228 13.5589 136.284L13.0028 136.454C12.8174 136.51 12.632 136.515 12.4466 136.468L11.8905 136.326C11.7051 136.279 11.5197 136.259 11.3343 136.266L10.7782 136.285C10.5928 136.292 10.4074 136.292 10.2221 136.286L9.6659 136.266C9.48051 136.26 9.29513 136.217 9.10975 136.137L8.5536 135.897C8.36822 135.817 8.18284 135.819 7.99746 135.904L7.44131 136.159C7.25593 136.244 7.07055 136.237 6.88517 136.138L6.32901 135.841C6.14363 135.742 5.95826 135.693 5.77287 135.695L5.21672 135.702C5.03134 135.704 4.84596 135.691 4.66058 135.664L4.10443 135.583C3.91905 135.556 3.73367 135.544 3.54828 135.546L2.99213 135.554C2.80675 135.556 2.62137 135.562 2.43599 135.572L1.87984 135.6C1.69446 135.61 1.50908 135.69 1.3237 135.841L0.767548 136.295C0.582165 136.446 0.396782 136.491 0.211399 136.429L-0.344749 136.245C-0.530132 136.183 -0.715515 136.141 -0.900894 136.119L-1.45704 136.051C-1.64243 136.029 -1.8278 135.979 -2.01319 135.901L-2.56934 135.667C-2.75472 135.589 -2.9401 135.573 -3.12548 135.618L-3.68163 135.755C-3.86701 135.801 -4.05239 135.848 -4.23778 135.897L-4.79392 136.045C-4.97931 136.094 -5.16469 136.123 -5.35007 136.129L-5.90622 136.149C-6.09161 136.156 -6.27699 136.143 -6.46237 136.111L-7.01851 136.013C-7.2039 135.98 -7.38928 136.003 -7.57466 136.081L-8.13081 136.315C-8.31619 136.393 -8.50158 136.428 -8.68696 136.421L-9.24311 136.401C-9.42849 136.394 -9.61387 136.387 -9.79925 136.379L-10.3554 136.357C-10.5408 136.35 -10.7262 136.346 -10.9115 136.344L-11.4677 136.34C-11.6531 136.339 -11.8385 136.33 -12.0238 136.312L-12.58 136.259C-12.7654 136.242 -12.9507 136.168 -13.1361 136.039L-13.6923 135.652C-13.8777 135.523 -14.063 135.461 -14.2484 135.467L-14.8046 135.484C-14.99 135.489 -15.1753 135.521 -15.3607 135.579L-15.9168 135.752C-16.1022 135.81 -16.2893 135.89 -16.4782 135.992L-17.045 136.297C-17.2339 136.399 -17.4167 136.367 -17.5933 136.202L-18.1232 135.707C-18.2999 135.542 -18.4818 135.477 -18.6691 135.512L-19.2311 135.618C-19.4184 135.654 -19.6001 135.631 -19.7762 135.548L-20.3044 135.302C-20.4805 135.219 -20.6623 135.187 -20.8498 135.205L-21.4121 135.257C-21.5995 135.275 -21.7804 135.247 -21.9548 135.175L-22.4777 134.958C-22.652 134.885 -22.8304 134.839 -23.0129 134.818L-23.5604 134.756C-23.7429 134.736 -23.9308 134.735 -24.1243 134.755L-24.7047 134.813C-24.8982 134.833 -25.0932 134.852 -25.2897 134.87L-25.8794 134.923C-26.0759 134.941 -26.2456 134.862 -26.3884 134.688L-26.8167 134.164C-26.9594 133.989 -27.1199 133.879 -27.2981 133.833L-27.8326 133.696C-28.0108 133.651 -28.1954 133.622 -28.3863 133.61L-28.9591 133.574C-29.1501 133.563 -29.3497 133.568 -29.5579 133.591L-30.1825 133.659C-30.3907 133.682 -30.5533 133.591 -30.6704 133.387L-31.0216 132.776C-31.1387 132.572 -31.293 132.458 -31.4846 132.434L-32.0594 132.363C-32.251 132.339 -32.4167 132.26 -32.5564 132.124L-32.9754 131.716C-33.115 131.58 -33.2624 131.462 -33.4174 131.363L-33.8823 131.063C-34.0373 130.963 -34.1927 130.865 -34.3484 130.768L-34.8157 130.477C-34.9714 130.38 -35.1453 130.313 -35.3375 130.278L-35.9139 130.171C-36.1061 130.135 -36.2632 130.042 -36.3853 129.889L-36.7515 129.433C-36.8736 129.28 -37.025 129.174 -37.2059 129.115L-37.7486 128.936C-37.9294 128.876 -38.1077 128.81 -38.2833 128.738L-38.81 128.522C-38.9856 128.45 -39.1597 128.374 -39.3323 128.294L-39.8503 128.054C-40.0229 127.974 -40.1815 127.874 -40.3261 127.756L-40.7597 127.401C-40.9042 127.283 -41.0164 127.126 -41.0962 126.933L-41.3356 126.351C-41.4155 126.157 -41.5503 126.028 -41.7403 125.963L-42.31 125.77C-42.4999 125.705 -42.6752 125.622 -42.8358 125.52L-43.3177 125.216C-43.4783 125.114 -43.6372 125.009 -43.7943 124.901L-44.2657 124.577C-44.4228 124.469 -44.5497 124.331 -44.6463 124.164L-44.9361 123.662C-45.0327 123.495 -45.1133 123.315 -45.178 123.122L-45.3719 122.545C-45.4365 122.353 -45.5607 122.213 -45.7443 122.126L-46.2952 121.864C-46.4789 121.776 -46.5816 121.622 -46.6034 121.401L-46.6689 120.738C-46.6907 120.516 -46.7531 120.33 -46.8563 120.177L-47.1656 119.721C-47.2688 119.568 -47.4465 119.469 -47.6989 119.422L-48.4562 119.282C-48.7086 119.236 -48.8467 119.107 -48.8706 118.897L-48.9421 118.266C-48.9659 118.056 -49.0067 117.86 -49.0644 117.677L-49.2374 117.128C-49.2951 116.945 -49.4277 116.808 -49.6352 116.716L-50.2579 116.44C-50.4654 116.348 -50.5471 116.183 -50.5029 115.944L-50.3702 115.228C-50.326 114.989 -50.3433 114.787 -50.4221 114.621L-50.6585 114.123C-50.7373 113.958 -50.8254 113.796 -50.9227 113.639L-51.2148 113.169C-51.3121 113.012 -51.4177 112.858 -51.5314 112.708L-51.8726 112.256C-51.9864 112.105 -52.0786 111.944 -52.1493 111.773L-52.3613 111.26C-52.432 111.089 -52.535 110.93 -52.6704 110.784L-53.0765 110.344C-53.2119 110.197 -53.2933 110.03 -53.3207 109.841L-53.4029 109.276C-53.4304 109.087 -53.4384 108.894 -53.427 108.695L-53.3928 108.098C-53.3814 107.9 -53.4105 107.715 -53.48 107.543L-53.6886 107.029C-53.7582 106.858 -53.8075 106.681 -53.8365 106.498L-53.9236 105.948C-53.9527 105.765 -54.0167 105.59 -54.1157 105.424L-54.4127 104.926C-54.5117 104.76 -54.5884 104.588 -54.6426 104.409L-54.8054 103.873C-54.8596 103.695 -54.8584 103.507 -54.8017 103.309L-54.6316 102.714C-54.5749 102.516 -54.6326 102.337 -54.8048 102.175L-55.3212 101.691C-55.4934 101.53 -55.5422 101.351 -55.4675 101.154L-55.2436 100.562C-55.169 100.365 -55.1686 100.177 -55.2425 99.9979L-55.464 99.4602C-55.5378 99.281 -55.5434 99.0961 -55.4806 98.9057L-55.2923 98.3344C-55.2296 98.144 -55.274 97.9588 -55.4255 97.7788L-55.8802 97.2389C-56.0317 97.0589 -56.0395 96.8745 -55.9035 96.6858L-55.4956 96.1195C-55.3597 95.9308 -55.3468 95.7424 -55.457 95.5545L-55.7878 94.9906C-55.898 94.8026 -55.9474 94.615 -55.936 94.4278L-55.9018 93.8661C-55.8903 93.6788 -55.884 93.4913 -55.8826 93.3035L-55.8786 92.74C-55.8773 92.5521 -55.81 92.371 -55.6769 92.1966L-55.2775 91.6734C-55.1443 91.499 -55.1197 91.3128 -55.2035 91.1147L-55.4549 90.5205C-55.5387 90.3224 -55.576 90.1291 -55.5667 89.9406L-55.5389 89.375C-55.5296 89.1864 -55.4846 89.0042 -55.4037 88.8281L-55.1612 88.3001C-55.0804 88.1241 -54.9984 87.9497 -54.9154 87.7771L-54.6662 87.259C-54.5832 87.0863 -54.547 86.9029 -54.5577 86.7088L-54.5899 86.1264C-54.6007 85.9323 -54.5385 85.7572 -54.4036 85.6011L-53.9987 85.1329C-53.8637 84.9768 -53.7536 84.8155 -53.6685 84.6489L-53.413 84.1492C-53.3279 83.9826 -53.3267 83.7878 -53.4096 83.5647L-53.6582 82.8953C-53.7411 82.6722 -53.7102 82.4877 -53.5654 82.3417L-53.1312 81.9038C-52.9865 81.7578 -52.9249 81.5802 -52.9464 81.3709L-53.011 80.7429C-53.0326 80.5336 -53.0022 80.3443 -52.92 80.1752L-52.6734 79.668C-52.5912 79.4989 -52.4442 79.361 -52.2323 79.2543L-51.5967 78.9344C-51.3848 78.8277 -51.2494 78.6863 -51.1906 78.5101L-51.0141 77.9816C-50.9553 77.8054 -50.8891 77.6324 -50.8155 77.4626L-50.5949 76.9532C-50.5214 76.7834 -50.4407 76.6172 -50.3529 76.4546L-50.0894 75.9669C-50.0016 75.8043 -49.9233 75.6356 -49.8546 75.4606L-49.6484 74.9359C-49.5796 74.7609 -49.5264 74.5746 -49.4886 74.3769L-49.3754 73.7837C-49.3376 73.586 -49.2398 73.428 -49.0819 73.3098L-48.6082 72.955C-48.4503 72.8367 -48.3253 72.696 -48.2332 72.5328L-47.9569 72.0431C-47.8647 71.8799 -47.7222 71.7558 -47.5294 71.6707L-46.9507 71.4156C-46.7579 71.3306 -46.6209 71.2022 -46.5399 71.0306L-46.2967 70.5158C-46.2157 70.3443 -46.141 70.1653 -46.0726 69.9789L-45.8674 69.4198C-45.7991 69.2334 -45.7102 69.0636 -45.6007 68.9102L-45.2725 68.4502C-45.1631 68.2968 -45.0152 68.1806 -44.8289 68.1015L-44.2701 67.864C-44.0839 67.7849 -43.9639 67.6395 -43.9102 67.4277L-43.7491 66.7927C-43.6954 66.581 -43.5976 66.4133 -43.4557 66.2897L-43.03 65.9188C-42.8881 65.7952 -42.6958 65.7307 -42.4531 65.7252L-41.7251 65.7088C-41.4824 65.7034 -41.3166 65.6096 -41.2276 65.4276L-40.9606 64.8816C-40.8716 64.6996 -40.7366 64.574 -40.5556 64.5048L-40.0125 64.2972C-39.8315 64.228 -39.6877 64.1098 -39.581 63.9426L-39.2611 63.441C-39.1545 63.2738 -39.0369 63.1192 -38.9082 62.9773L-38.5222 62.5514C-38.3936 62.4094 -38.2191 62.3368 -37.9988 62.3335L-37.3381 62.3236C-37.1178 62.3203 -36.9315 62.2669 -36.7791 62.1633L-36.3218 61.8525C-36.1693 61.7489 -36.0228 61.6343 -35.8822 61.5086L-35.4603 61.1314C-35.3196 61.0057 -35.1692 60.8964 -35.0089 60.8034L-34.5281 60.5244C-34.3678 60.4314 -34.2159 60.3208 -34.0725 60.1927L-33.6422 59.8083C-33.4988 59.6802 -33.3314 59.6007 -33.1401 59.5699L-32.5661 59.4776C-32.3748 59.4468 -32.2025 59.3752 -32.0492 59.2628L-31.5893 58.9255C-31.4361 58.8131 -31.2639 58.7453 -31.0729 58.7222L-30.5 58.653C-30.309 58.6299 -30.1446 58.5371 -30.0067 58.3746L-29.5931 57.8871C-29.4552 57.7246 -29.2715 57.6921 -29.0418 57.7896L-28.3526 58.082C-28.1229 58.1795 -27.9337 58.1578 -27.785 58.0168L-27.3387 57.5939C-27.19 57.453 -27.0559 57.3438 -26.9366 57.2662L-26.5786 57.0337C-26.4592 56.9562 -26.4386 56.8317 -26.5166 56.6604L-26.7508 56.1464C-26.8289 55.9751 -26.8481 55.7881 -26.8085 55.5855L-26.6896 54.9777C-26.65 54.7751 -26.6912 54.5929 -26.8133 54.4312L-27.1794 53.9458C-27.3014 53.784 -27.3466 53.6051 -27.3148 53.4091L-27.2196 52.8211C-27.1878 52.6251 -27.21 52.4397 -27.2862 52.2649L-27.5148 51.7407C-27.591 51.5659 -27.6851 51.3921 -27.797 51.2193L-28.1327 50.7006C-28.2446 50.5278 -28.3064 50.3472 -28.3182 50.1591L-28.3533 49.5945C-28.365 49.4063 -28.321 49.2143 -28.2212 49.0185L-27.9218 48.4309C-27.822 48.2351 -27.7824 48.0451 -27.8031 47.8611L-27.8649 47.3089C-27.8855 47.1249 -27.955 46.9412 -28.0735 46.758L-28.4287 46.2081C-28.5471 46.0249 -28.5893 45.8396 -28.5554 45.6523L-28.4537 45.0905C-28.4198 44.9033 -28.387 44.7166 -28.3555 44.5306L-28.2608 43.9726C-28.2292 43.7866 -28.1966 43.6006 -28.1628 43.4146L-28.0616 42.8566C-28.0279 42.6706 -27.9891 42.4847 -27.9453 42.2989L-27.8138 41.7416C-27.77 41.5558 -27.7408 41.3709 -27.7261 41.187L-27.6822 40.6351C-27.6676 40.4511 -27.7257 40.2628 -27.8565 40.0701L-28.2491 39.4922C-28.38 39.2995 -28.4315 39.1102 -28.4035 38.9242L-28.3197 38.3661C-28.2917 38.1801 -28.242 37.9969 -28.1704 37.8166L-27.9557 37.2757C-27.8841 37.0954 -27.8367 36.9131 -27.8135 36.7288L-27.744 36.1758C-27.7208 35.9915 -27.6991 35.8064 -27.6789 35.6207L-27.6184 35.0635C-27.5982 34.8777 -27.602 34.6868 -27.63 34.4905L-27.7138 33.9019C-27.7417 33.7057 -27.7256 33.5179 -27.6656 33.3387L-27.4855 32.8008C-27.4255 32.6216 -27.3232 32.4544 -27.1788 32.2993L-26.7456 31.8341C-26.6011 31.679 -26.4946 31.5154 -26.426 31.3433L-26.2202 30.8269C-26.1516 30.6548 -26.0785 30.4846 -26.001 30.3162L-25.7685 29.8112C-25.6909 29.6428 -25.6947 29.4452 -25.7796 29.2184L-26.0345 28.5379C-26.1194 28.311 -26.1268 28.1103 -26.0565 27.9358L-25.8457 27.4122C-25.7754 27.2376 -25.679 27.0747 -25.5563 26.9233L-25.1884 26.469C-25.0658 26.3176 -24.9808 26.1501 -24.9334 25.9665L-24.7912 25.4156C-24.7438 25.232 -24.6417 25.075 -24.4848 24.9446L-24.0143 24.5536C-23.8575 24.4232 -23.7322 24.2784 -23.6384 24.1192L-23.3572 23.6416C-23.2634 23.4824 -23.1543 23.3322 -23.0298 23.1911L-22.6563 22.7679C-22.5318 22.6268 -22.4255 22.4757 -22.3375 22.3146L-22.0733 21.8313C-21.9852 21.6703 -21.9465 21.4761 -21.957 21.2489L-21.9885 20.5674C-21.9991 20.3402 -21.9453 20.1537 -21.8272 20.0078L-21.4729 19.5701C-21.3548 19.4242 -21.2196 19.2916 -21.0673 19.1724L-20.6103 18.8146C-20.4579 18.6954 -20.3608 18.5341 -20.3188 18.3308L-20.193 17.7207C-20.151 17.5173 -20.0711 17.3425 -19.9534 17.1961L-19.6001 16.757C-19.4823 16.6107 -19.3523 16.475 -19.2102 16.3502L-18.7837 15.9755C-18.6415 15.8506 -18.4995 15.7265 -18.3577 15.6031L-17.9324 15.2329C-17.7906 15.1095 -17.6681 14.9676 -17.5648 14.8072L-17.255 14.326C-17.1517 14.1656 -16.984 14.0717 -16.752 14.0445L-16.0559 13.9629C-15.8239 13.9357 -15.69 13.8043 -15.6542 13.5688L-15.5467 12.8622C-15.5108 12.6266 -15.3867 12.4895 -15.1742 12.4506L-14.5369 12.3341C-14.3245 12.2953 -14.1672 12.1918 -14.0653 12.0235L-13.7593 11.5187C-13.6574 11.3504 -13.5206 11.2254 -13.3491 11.1436L-12.8347 10.8982C-12.6632 10.8164 -12.5273 10.6859 -12.4271 10.5066L-12.1265 9.96892C-12.0262 9.78967 -11.8966 9.65022 -11.7377 9.55054L-11.2607 9.25153C-11.1017 9.15185 -10.9245 9.08175 -10.7292 9.04122L-10.1433 8.91961C-9.94794 8.87908 -9.77765 8.79949 -9.63238 8.68084L-9.19658 8.32489C-9.05131 8.20624 -8.90303 8.09125 -8.75175 7.97993L-8.29791 7.64596C-8.14663 7.53463 -7.96949 7.47292 -7.7665 7.46082L-7.15754 7.42451C-6.95454 7.41241 -6.77039 7.36567 -6.60506 7.2843L-6.10909 7.04017C-5.94377 6.9588 -5.78345 6.86586 -5.62816 6.76135L-5.16226 6.44782C-5.00696 6.34331 -4.84601 6.25027 -4.67941 6.1687L-4.17961 5.92401C-4.01301 5.84245 -3.84693 5.75819 -3.68136 5.67122L-3.18467 5.41033C-3.0191 5.32337 -2.83689 5.2841 -2.63803 5.29253L-2.04145 5.3178C-1.84259 5.32623 -1.66045 5.28644 -1.49503 5.19843L-0.998775 4.93442C-0.833355 4.84641 -0.65929 4.7866 -0.476578 4.75497L0.0715523 4.6601C0.254265 4.62848 0.419479 4.52667 0.5672 4.35468L1.01036 3.8387C1.15808 3.66671 1.327 3.57611 1.51713 3.56691L2.08751 3.53932C2.27764 3.53013 2.46313 3.50102 2.64397 3.452L3.18649 3.30494C3.36732 3.25592 3.5592 3.27468 3.7621 3.36123L4.37082 3.62088C4.57373 3.70743 4.75853 3.67724 4.92524 3.53032L5.42534 3.08956C5.59204 2.94264 5.77434 2.91986 5.97223 3.02123L6.56588 3.32533C6.76376 3.4267 6.95247 3.44308 7.132 3.37447L7.67058 3.16865C7.85011 3.10004 8.03271 3.06831 8.21837 3.07346L8.77534 3.08891C8.961 3.09406 9.14605 3.06601 9.33051 3.00477L9.88387 2.82102C10.0683 2.75977 10.2536 2.7156 10.4396 2.68851L10.9977 2.60724C11.1838 2.58015 11.3695 2.60273 11.5548 2.67498L12.111 2.89172C12.2964 2.96396 12.4818 3.01153 12.6671 3.03443L13.2233 3.10311C13.4087 3.126 13.5497 3.12663 13.6463 3.10499L13.9361 3.04007C14.0327 3.01843 14.081 3.00472 14.081 2.99894V2.98159C14.081 2.97581 14.175 2.92715 14.3631 2.83561L14.9274 2.56099Z" fill="white" stroke="white" stroke-width="5"/>
</svg>
