<svg width="296" height="205" viewBox="0 0 296 205" fill="none" xmlns="http://www.w3.org/2000/svg">
<path opacity="0.56" d="M108.891 2.59097C109.173 2.45434 109.451 2.47183 109.724 2.64343L110.542 3.15824C110.815 3.32984 111.088 3.44001 111.363 3.48875L112.186 3.63495C112.46 3.68369 112.733 3.7365 113.005 3.79341L113.821 3.96411C114.093 4.02101 114.364 4.07942 114.634 4.13935L115.444 4.31912C115.714 4.37905 116.002 4.33005 116.309 4.17213L117.229 3.69838C117.535 3.54046 117.809 3.57261 118.051 3.79483L118.775 4.46148C119.016 4.6837 119.293 4.73207 119.606 4.60661L120.544 4.2302C120.857 4.10473 121.135 4.13137 121.379 4.31012L122.11 4.84636C122.354 5.02511 122.608 5.15612 122.873 5.2394L123.669 5.48924C123.934 5.57252 124.216 5.60439 124.515 5.58486L125.411 5.52625C125.71 5.50672 125.989 5.55244 126.247 5.66342L127.023 5.99634C127.282 6.10732 127.507 6.30108 127.7 6.57761L128.277 7.40723C128.469 7.68376 128.69 7.88081 128.938 7.99837L129.684 8.35104C129.932 8.4686 130.203 8.53723 130.496 8.55692L131.375 8.61601C131.668 8.6357 131.931 8.72346 132.163 8.87929L132.859 9.34677C133.091 9.50259 133.36 9.58745 133.666 9.60136L134.582 9.64307C134.888 9.65697 135.178 9.70446 135.454 9.78553L136.282 10.0287C136.557 10.1098 136.817 10.2207 137.061 10.3614L137.793 10.7834C138.037 10.9241 138.224 11.1524 138.354 11.4685L138.744 12.4166C138.874 12.7326 139.042 12.9852 139.246 13.1745L139.859 13.7424C140.063 13.9317 140.281 14.1005 140.513 14.2488L141.208 14.6937C141.44 14.842 141.665 14.9995 141.884 15.1662L142.54 15.6665C142.758 15.8332 143.01 15.9601 143.295 16.0472L144.149 16.3085C144.434 16.3956 144.696 16.5144 144.933 16.6649L145.647 17.1165C145.885 17.267 146.133 17.4084 146.391 17.5405L147.166 17.937C147.424 18.0692 147.63 18.2577 147.784 18.5025L148.245 19.237C148.398 19.4818 148.588 19.6898 148.813 19.8608L149.488 20.3738C149.713 20.5448 149.918 20.7357 150.103 20.9465L150.657 21.5791C150.842 21.7899 151.016 22.0102 151.178 22.24L151.665 22.9293C151.827 23.159 151.988 23.3884 152.149 23.6175L152.631 24.3047C152.792 24.5337 152.944 24.769 153.086 25.0106L153.513 25.7351C153.656 25.9767 153.863 26.1712 154.133 26.3187L154.945 26.7613C155.215 26.9088 155.332 27.1644 155.295 27.5281L155.185 28.6192C155.148 28.9829 155.295 29.1047 155.625 28.9846L156.616 28.6245C156.947 28.5044 157.264 28.4365 157.567 28.4208L158.477 28.3737C158.781 28.358 158.998 28.1678 159.128 27.8031L159.52 26.709C159.651 26.3443 159.878 26.1796 160.201 26.2148L161.169 26.3205C161.492 26.3557 161.763 26.273 161.98 26.0723L162.633 25.4703C162.851 25.2696 163.094 25.1295 163.363 25.0498L164.17 24.8107C164.439 24.7311 164.733 24.7266 165.051 24.7974L166.007 25.0097C166.326 25.0805 166.586 24.9762 166.787 24.6966L167.392 23.8581C167.593 23.5786 167.847 23.4672 168.153 23.524L169.071 23.6943C169.377 23.7511 169.668 23.7636 169.945 23.7318L170.774 23.6366C171.051 23.6048 171.327 23.5775 171.603 23.5545L172.432 23.4856C172.709 23.4626 172.965 23.3335 173.2 23.0982L173.907 22.3923C174.143 22.157 174.403 22.049 174.689 22.0684L175.545 22.1265C175.831 22.1459 176.118 22.1925 176.406 22.2664L177.272 22.4881C177.561 22.5619 177.836 22.5341 178.1 22.4044L178.889 22.0155C179.152 21.8859 179.425 21.8467 179.706 21.8979L180.549 22.0515C180.83 22.1027 181.108 22.1156 181.382 22.09L182.204 22.0135C182.479 21.988 182.753 21.8679 183.026 21.6533L183.847 21.0095C184.12 20.7949 184.397 20.7923 184.676 21.0018L185.513 21.6301C185.792 21.8396 186.071 21.9503 186.349 21.9624L187.183 21.9986C187.461 22.0107 187.739 22.0112 188.017 22.0003L188.851 21.9674C189.13 21.9564 189.409 21.8446 189.689 21.6319L190.53 20.9937C190.81 20.7809 191.09 20.6978 191.37 20.7443L192.208 20.8839C192.487 20.9304 192.764 21.0089 193.037 21.1194L193.857 21.4508C194.131 21.5613 194.404 21.6394 194.678 21.6851L195.5 21.8223C195.773 21.868 196.052 21.8729 196.337 21.837L197.19 21.7293C197.474 21.6934 197.744 21.759 198 21.9263L198.766 22.4281C199.022 22.5953 199.282 22.7189 199.547 22.7989L200.342 23.0388C200.607 23.1188 200.875 23.1834 201.145 23.2328L201.954 23.3808C202.224 23.4302 202.511 23.4097 202.816 23.3195L203.732 23.0489C204.037 22.9586 204.323 22.9524 204.591 23.0301L205.395 23.2633C205.663 23.3411 205.93 23.4222 206.195 23.5068L206.99 23.7605C207.255 23.8451 207.498 23.995 207.719 24.2102L208.381 24.8559C208.602 25.0711 208.84 25.2294 209.095 25.3309L209.86 25.6353C210.115 25.7368 210.42 25.7163 210.775 25.5737L211.84 25.1461C212.195 25.0036 212.485 25.0253 212.711 25.2113L213.388 25.7694C213.614 25.9554 213.855 26.1036 214.112 26.2141L214.882 26.5454C215.139 26.6559 215.393 26.7731 215.644 26.897L216.396 27.2688C216.647 27.3927 216.86 27.5853 217.035 27.8464L217.56 28.6299C217.735 28.891 217.993 29.0037 218.334 28.9678L219.358 28.8601C219.699 28.8242 219.972 28.9077 220.176 29.1105L220.79 29.719C220.994 29.9219 221.195 30.1259 221.394 30.3311L221.989 30.9466C222.187 31.1518 222.436 31.2829 222.737 31.3397L223.638 31.5103C223.938 31.5671 224.139 31.7601 224.242 32.0892L224.551 33.0763C224.653 33.4054 224.848 33.6113 225.134 33.6942L225.993 33.9428C226.28 34.0256 226.504 34.1859 226.667 34.4235L227.156 35.1363C227.319 35.3739 227.499 35.589 227.697 35.7814L228.29 36.3587C228.488 36.5511 228.753 36.6733 229.085 36.7251L230.08 36.8807C230.412 36.9326 230.61 37.1235 230.675 37.4534L230.871 38.4433C230.936 38.7732 231.071 39.0313 231.275 39.2173L231.888 39.7756C232.092 39.9616 232.352 40.0994 232.669 40.1887L233.617 40.4568C233.933 40.5462 234.088 40.7758 234.082 41.1456L234.065 42.255C234.059 42.6248 234.23 42.8471 234.579 42.9218L235.625 43.146C235.974 43.2207 236.211 43.3859 236.336 43.6416L236.713 44.4085C236.838 44.6642 236.99 44.8997 237.168 45.115L237.703 45.7611C237.882 45.9764 238.019 46.2191 238.116 46.489L238.408 47.2987C238.505 47.5686 238.586 47.8461 238.651 48.1314L238.845 48.9871C238.91 49.2723 239.064 49.5037 239.305 49.6813L240.03 50.2139C240.272 50.3914 240.438 50.6136 240.528 50.8805L240.797 51.6811C240.887 51.948 241.045 52.1792 241.272 52.3749L241.95 52.9618C242.177 53.1575 242.335 53.3885 242.424 53.6547L242.694 54.4536C242.783 54.7198 242.857 54.9919 242.916 55.2698L243.091 56.1033C243.15 56.3812 243.185 56.6664 243.196 56.959L243.231 57.8368C243.243 58.1294 243.332 58.3912 243.498 58.6221L243.998 59.3151C244.164 59.546 244.377 59.764 244.635 59.9691L245.41 60.5842C245.669 60.7893 245.77 61.0466 245.714 61.3563L245.547 62.2852C245.492 62.5949 245.486 62.8869 245.532 63.1612L245.667 63.9841C245.713 64.2584 245.736 64.5368 245.739 64.8193L245.747 65.6668C245.749 65.9493 245.803 66.2196 245.91 66.4777L246.229 67.252C246.336 67.5101 246.448 67.7682 246.566 68.0264L246.922 68.8011C247.04 69.0593 247.102 69.3282 247.107 69.6079L247.121 70.4468C247.125 70.7265 247.169 71.0004 247.251 71.2686L247.496 72.0731C247.578 72.3412 247.631 72.6134 247.655 72.8897L247.728 73.7186C247.752 73.9949 247.806 74.2695 247.891 74.5424L248.145 75.3611C248.23 75.634 248.323 75.9083 248.425 76.1841L248.73 77.0115C248.831 77.2873 248.795 77.5665 248.62 77.849L248.096 78.6966C247.922 78.9791 247.916 79.2592 248.08 79.5368L248.573 80.3698C248.737 80.6474 248.821 80.9251 248.825 81.2027L248.836 82.0355C248.84 82.3131 248.809 82.5378 248.744 82.7095L248.548 83.2246C248.482 83.3963 248.558 83.6091 248.775 83.8629L249.426 84.6245C249.643 84.8784 249.885 85.0415 250.15 85.1138L250.947 85.3307C251.212 85.403 251.47 85.4998 251.718 85.621L252.464 85.9847C252.713 86.1059 252.975 86.1909 253.25 86.2397L254.076 86.3863C254.351 86.4351 254.635 86.4681 254.927 86.4852L255.803 86.5366C256.095 86.5537 256.386 86.578 256.677 86.6095L257.551 86.7039C257.842 86.7354 258.076 86.8916 258.25 87.1724L258.775 88.0151C258.95 88.296 259.17 88.4787 259.437 88.5634L260.238 88.8175C260.505 88.9022 260.768 88.9962 261.027 89.0995L261.805 89.4095C262.065 89.5128 262.343 89.5876 262.639 89.6339L263.526 89.7726C263.822 89.8189 264.07 89.9466 264.27 90.156L264.868 90.7839C265.068 90.9933 265.313 91.1319 265.603 91.1998L266.475 91.4036C266.765 91.4716 267 91.6221 267.179 91.8552L267.717 92.5544C267.896 92.7874 268.112 92.9686 268.364 93.0979L269.121 93.4857C269.373 93.615 269.57 93.8146 269.713 94.0846L270.14 94.8947C270.282 95.1647 270.439 95.4127 270.609 95.6388L271.122 96.317C271.293 96.5431 271.564 96.6556 271.935 96.6544L273.049 96.6509C273.42 96.6497 273.633 96.8248 273.688 97.176L273.851 98.2299C273.905 98.5811 274.077 98.808 274.364 98.9105L275.228 99.2178C275.516 99.3203 275.739 99.4889 275.897 99.7236L276.37 100.428C276.528 100.662 276.68 100.9 276.828 101.141L277.269 101.864C277.416 102.104 277.61 102.304 277.851 102.462L278.573 102.937C278.814 103.095 279.026 103.28 279.209 103.49L279.756 104.122C279.939 104.332 280.113 104.549 280.28 104.772L280.779 105.442C280.945 105.665 281.098 105.898 281.237 106.141L281.655 106.869C281.794 107.111 281.927 107.357 282.055 107.606L282.437 108.351C282.565 108.6 282.73 108.824 282.932 109.024L283.537 109.622C283.739 109.822 283.9 110.048 284.019 110.301L284.375 111.06C284.494 111.312 284.674 111.531 284.915 111.715L285.636 112.267C285.877 112.451 286.034 112.681 286.109 112.958L286.334 113.789C286.409 114.066 286.441 114.362 286.431 114.677L286.4 115.62C286.39 115.934 286.478 116.2 286.666 116.417L287.228 117.068C287.415 117.285 287.561 117.522 287.664 117.778L287.974 118.548C288.078 118.804 288.163 119.068 288.231 119.338L288.433 120.149C288.5 120.419 288.662 120.655 288.919 120.857L289.689 121.463C289.946 121.665 290.124 121.897 290.224 122.159L290.525 122.945C290.625 123.207 290.628 123.498 290.534 123.817L290.252 124.775C290.158 125.094 290.237 125.363 290.489 125.583L291.245 126.241C291.497 126.46 291.633 126.711 291.653 126.994L291.713 127.843C291.733 128.126 291.687 128.421 291.575 128.729L291.238 129.651C291.126 129.958 291.109 130.244 291.189 130.509L291.428 131.304C291.508 131.569 291.647 131.826 291.845 132.075L292.439 132.823C292.637 133.072 292.734 133.338 292.729 133.62L292.716 134.465C292.711 134.747 292.726 135.027 292.761 135.303L292.865 136.134C292.899 136.41 292.868 136.691 292.769 136.975L292.475 137.829C292.377 138.113 292.309 138.394 292.272 138.671L292.161 139.501C292.124 139.777 292.19 140.053 292.36 140.326L292.867 141.146C293.036 141.419 293.104 141.695 293.069 141.974L292.966 142.81C292.932 143.089 292.965 143.369 293.065 143.651L293.366 144.498C293.466 144.78 293.51 145.062 293.498 145.343L293.462 146.187C293.451 146.468 293.383 146.743 293.261 147.012L292.892 147.819C292.77 148.088 292.682 148.359 292.631 148.633L292.475 149.455C292.423 149.729 292.308 149.992 292.131 150.245L291.599 151.002C291.422 151.254 291.419 151.536 291.59 151.847L292.104 152.781C292.275 153.093 292.283 153.375 292.13 153.628L291.669 154.386C291.515 154.639 291.44 154.909 291.443 155.195L291.452 156.054C291.455 156.34 291.436 156.622 291.395 156.901L291.271 157.736C291.23 158.015 291.114 158.271 290.922 158.504L290.348 159.205C290.157 159.438 290.085 159.709 290.133 160.018L290.276 160.945C290.324 161.254 290.257 161.524 290.077 161.756L289.536 162.453C289.355 162.685 289.164 162.91 288.961 163.128L288.354 163.783C288.151 164.001 287.994 164.236 287.882 164.487L287.545 165.24C287.433 165.492 287.306 165.736 287.165 165.973L286.742 166.685C286.601 166.923 286.49 167.175 286.409 167.441L286.166 168.239C286.085 168.506 286.037 168.791 286.022 169.096L285.979 170.011C285.965 170.316 285.877 170.584 285.718 170.814L285.238 171.504C285.079 171.734 284.972 171.995 284.918 172.289L284.758 173.17C284.705 173.464 284.603 173.729 284.454 173.968L284.005 174.682C283.856 174.92 283.595 175.082 283.224 175.166L282.11 175.42C281.739 175.504 281.52 175.693 281.455 175.984L281.258 176.86C281.192 177.152 281.113 177.437 281.021 177.717L280.744 178.556C280.652 178.835 280.492 179.063 280.265 179.238L279.583 179.764C279.356 179.939 279.109 180.095 278.842 180.231L278.041 180.64C277.774 180.776 277.629 181.02 277.606 181.373L277.536 182.43C277.513 182.783 277.382 183.038 277.141 183.196L276.421 183.671C276.181 183.829 275.957 184.002 275.749 184.188L275.125 184.748C274.917 184.934 274.697 185.107 274.465 185.267L273.769 185.745C273.537 185.905 273.353 186.117 273.216 186.383L272.806 187.181C272.669 187.447 272.447 187.614 272.14 187.681L271.217 187.884C270.91 187.952 270.659 188.087 270.466 188.289L269.887 188.896C269.694 189.098 269.485 189.28 269.26 189.444L268.587 189.933C268.362 190.097 268.114 190.226 267.843 190.321L267.029 190.607C266.757 190.703 266.563 190.913 266.447 191.239L266.098 192.217C265.981 192.543 265.767 192.72 265.454 192.747L264.516 192.829C264.203 192.857 263.912 192.914 263.643 193.002L262.836 193.265C262.567 193.353 262.315 193.469 262.081 193.615L261.377 194.052C261.143 194.197 260.905 194.337 260.664 194.471L259.941 194.875C259.7 195.009 259.473 195.173 259.259 195.368L258.619 195.954C258.405 196.148 258.145 196.243 257.839 196.237L256.921 196.219C256.615 196.213 256.349 196.297 256.124 196.473L255.447 196.999C255.222 197.174 254.981 197.316 254.726 197.424L253.96 197.749C253.705 197.858 253.45 197.967 253.195 198.078L252.431 198.41C252.176 198.521 251.901 198.568 251.605 198.553L250.719 198.505C250.424 198.489 250.148 198.533 249.892 198.637L249.124 198.95C248.868 199.054 248.625 199.215 248.394 199.432L247.703 200.084C247.473 200.301 247.218 200.422 246.937 200.447L246.094 200.521C245.813 200.546 245.536 200.588 245.264 200.647L244.447 200.822C244.174 200.881 243.906 200.967 243.641 201.082L242.848 201.424C242.584 201.538 242.307 201.574 242.019 201.532L241.155 201.404C240.866 201.362 240.577 201.291 240.287 201.192L239.415 200.896C239.125 200.797 238.846 200.794 238.577 200.886L237.773 201.163C237.505 201.256 237.233 201.319 236.958 201.353L236.13 201.455C235.855 201.49 235.578 201.507 235.302 201.506L234.471 201.505C234.195 201.504 233.917 201.472 233.639 201.407L232.806 201.212C232.528 201.147 232.25 201.22 231.972 201.432L231.137 202.067C230.859 202.278 230.581 202.282 230.303 202.077L229.469 201.464C229.191 201.259 228.913 201.26 228.635 201.468L227.8 202.09C227.522 202.298 227.244 202.337 226.966 202.209L226.132 201.823C225.854 201.695 225.576 201.682 225.298 201.783L224.464 202.088C224.186 202.19 223.907 202.18 223.629 202.059L222.795 201.696C222.517 201.575 222.239 201.509 221.961 201.498L221.127 201.466C220.849 201.455 220.571 201.497 220.292 201.59L219.458 201.871C219.18 201.965 218.902 202.032 218.624 202.074L217.79 202.198C217.512 202.239 217.234 202.281 216.956 202.325L216.121 202.455C215.843 202.499 215.565 202.453 215.287 202.319L214.453 201.916C214.175 201.782 213.897 201.683 213.619 201.618L212.784 201.425C212.506 201.36 212.228 201.346 211.95 201.381L211.116 201.485C210.838 201.52 210.56 201.583 210.282 201.672L209.448 201.939C209.17 202.028 208.891 202.01 208.613 201.883L207.779 201.504C207.501 201.377 207.223 201.369 206.945 201.479L206.111 201.808C205.833 201.917 205.555 202.023 205.276 202.124L204.442 202.428C204.164 202.529 203.886 202.508 203.608 202.365L202.774 201.935C202.496 201.792 202.218 201.714 201.94 201.703L201.105 201.668C200.827 201.657 200.549 201.666 200.271 201.695L199.437 201.784C199.159 201.814 198.881 201.81 198.603 201.772L197.768 201.658C197.49 201.62 197.212 201.597 196.934 201.588L196.1 201.561C195.822 201.552 195.544 201.513 195.266 201.444L194.432 201.237C194.154 201.168 193.875 201.121 193.597 201.095L192.763 201.018C192.485 200.992 192.207 201.105 191.929 201.355L191.095 202.106C190.817 202.357 190.539 202.472 190.261 202.454L189.426 202.397C189.148 202.378 188.87 202.342 188.592 202.289L187.758 202.129C187.48 202.076 187.202 202.019 186.924 201.959L186.089 201.777C185.811 201.717 185.533 201.762 185.255 201.912L184.421 202.364C184.143 202.514 183.865 202.454 183.587 202.184L182.753 201.373C182.474 201.103 182.196 201.043 181.918 201.194L181.084 201.648C180.806 201.799 180.528 201.922 180.25 202.016L179.416 202.299C179.138 202.393 178.859 202.396 178.581 202.308L177.747 202.044C177.469 201.957 177.191 201.866 176.913 201.773L176.079 201.494C175.801 201.401 175.523 201.368 175.245 201.396L174.41 201.479C174.132 201.507 173.854 201.528 173.576 201.542L172.742 201.583C172.464 201.597 172.186 201.573 171.908 201.512L171.073 201.329C170.795 201.268 170.517 201.308 170.239 201.448L169.405 201.868C169.127 202.008 168.849 201.983 168.571 201.793L167.737 201.223C167.458 201.033 167.18 201.01 166.902 201.152L166.068 201.58C165.79 201.723 165.512 201.832 165.234 201.908L164.4 202.136C164.122 202.212 163.844 202.185 163.565 202.054L162.731 201.661C162.453 201.53 162.175 201.442 161.897 201.396L161.063 201.257C160.785 201.211 160.507 201.171 160.229 201.137L159.394 201.034C159.116 201 158.838 201.043 158.56 201.163L157.726 201.525C157.448 201.645 157.17 201.705 156.892 201.704L156.057 201.701C155.779 201.7 155.501 201.743 155.223 201.831L154.389 202.092C154.111 202.179 153.833 202.145 153.555 201.99L152.721 201.524C152.443 201.369 152.164 201.27 151.886 201.229L151.052 201.105C150.774 201.064 150.496 201.14 150.218 201.334L149.384 201.914C149.106 202.108 148.828 202.176 148.549 202.12L147.715 201.95C147.437 201.894 147.159 201.827 146.881 201.75L146.047 201.52C145.769 201.443 145.491 201.452 145.213 201.548L144.378 201.836C144.1 201.932 143.822 201.968 143.544 201.944L142.71 201.872C142.432 201.848 142.154 201.813 141.876 201.767L141.042 201.628C140.763 201.582 140.485 201.598 140.207 201.675L139.373 201.908C139.095 201.985 138.817 202.011 138.539 201.984L137.705 201.904C137.427 201.877 137.148 201.793 136.87 201.649L136.036 201.22C135.758 201.077 135.48 201.13 135.202 201.38L134.368 202.129C134.09 202.379 133.812 202.445 133.534 202.327L132.699 201.973C132.421 201.856 132.143 201.811 131.865 201.841L131.031 201.929C130.753 201.958 130.475 201.99 130.197 202.025L129.362 202.129C129.084 202.163 128.806 202.21 128.528 202.27L127.694 202.449C127.416 202.508 127.138 202.459 126.86 202.3L126.026 201.824C125.747 201.665 125.469 201.555 125.191 201.494L124.357 201.309C124.079 201.248 123.801 201.255 123.523 201.33L122.689 201.554C122.411 201.629 122.132 201.676 121.854 201.696L121.02 201.756C120.742 201.776 120.464 201.841 120.186 201.95L119.352 202.276C119.074 202.385 118.796 202.324 118.518 202.092L117.683 201.397C117.405 201.166 117.127 201.121 116.849 201.263L116.015 201.689C115.737 201.831 115.459 201.961 115.181 202.078L114.346 202.429C114.068 202.546 113.79 202.467 113.512 202.192L112.678 201.367C112.4 201.092 112.122 201.004 111.844 201.103L111.01 201.401C110.731 201.5 110.453 201.539 110.175 201.517L109.341 201.453C109.063 201.431 108.785 201.473 108.507 201.578L107.673 201.894C107.395 201.999 107.117 202.094 106.838 202.178L106.004 202.431C105.726 202.516 105.448 202.522 105.17 202.452L104.336 202.241C104.058 202.17 103.78 202.14 103.502 202.15L102.667 202.18C102.389 202.19 102.111 202.19 101.833 202.18L100.999 202.151C100.721 202.142 100.443 202.077 100.165 201.958L99.3305 201.599C99.0524 201.48 98.7743 201.484 98.4962 201.61L97.662 201.991C97.3839 202.118 97.1059 202.107 96.8278 201.96L95.9936 201.516C95.7155 201.368 95.4374 201.296 95.1594 201.299L94.3251 201.308C94.0471 201.311 93.769 201.293 93.4909 201.252L92.6567 201.131C92.3786 201.091 92.1006 201.073 91.8225 201.076L90.9883 201.088C90.7102 201.091 90.4321 201.1 90.154 201.115L89.3198 201.157C89.0417 201.171 88.7637 201.291 88.4856 201.517L87.6514 202.194C87.3733 202.42 87.0952 202.487 86.8172 202.395L85.9829 202.119C85.7049 202.027 85.4268 201.964 85.1487 201.931L84.3145 201.831C84.0364 201.797 83.7584 201.722 83.4803 201.606L82.646 201.256C82.368 201.14 82.0899 201.116 81.8118 201.184L80.9776 201.388C80.6995 201.456 80.4215 201.527 80.1434 201.6L79.3092 201.821C79.0311 201.895 78.753 201.937 78.4749 201.947L77.6407 201.977C77.3626 201.987 77.0846 201.968 76.8065 201.919L75.9723 201.773C75.6942 201.724 75.4161 201.758 75.1381 201.874L74.3038 202.223C74.0258 202.34 73.7477 202.393 73.4696 202.383L72.6354 202.352C72.3573 202.342 72.0793 202.331 71.8012 202.32L70.967 202.287C70.6889 202.276 70.4108 202.269 70.1327 202.267L69.2985 202.262C69.0204 202.26 68.7424 202.246 68.4643 202.219L67.6301 202.141C67.352 202.115 67.0739 202.005 66.7959 201.812L65.9616 201.234C65.6836 201.041 65.4055 200.949 65.1274 200.958L64.2932 200.983C64.0151 200.991 63.737 201.039 63.459 201.125L62.6248 201.384C62.3468 201.47 62.0661 201.589 61.7827 201.741L60.9326 202.197C60.6492 202.349 60.3751 202.302 60.1101 202.056L59.3152 201.316C59.0503 201.069 58.7773 200.973 58.4963 201.026L57.6534 201.184C57.3725 201.237 57.0999 201.202 56.8358 201.079L56.0434 200.711C55.7793 200.589 55.5066 200.54 55.2254 200.566L54.3819 200.645C54.1007 200.671 53.8294 200.63 53.5679 200.522L52.7835 200.198C52.522 200.09 52.2544 200.02 51.9807 199.99L51.1595 199.897C50.8858 199.867 50.6038 199.866 50.3136 199.895L49.443 199.983C49.1528 200.012 48.8603 200.04 48.5655 200.067L47.681 200.146C47.3862 200.173 47.1317 200.056 46.9175 199.795L46.2751 199.013C46.0609 198.752 45.8202 198.588 45.5529 198.52L44.7511 198.315C44.4838 198.247 44.207 198.204 43.9206 198.187L43.0614 198.133C42.7749 198.116 42.4756 198.124 42.1633 198.158L41.2264 198.26C40.9141 198.294 40.6701 198.159 40.4945 197.854L39.9677 196.941C39.792 196.637 39.5605 196.467 39.2731 196.431L38.4109 196.325C38.1235 196.29 37.875 196.171 37.6655 195.968L37.037 195.36C36.8275 195.157 36.6065 194.981 36.374 194.832L35.6765 194.385C35.444 194.236 35.211 194.089 34.9774 193.944L34.2766 193.51C34.043 193.365 33.7821 193.266 33.4938 193.213L32.6292 193.054C32.3409 193.001 32.1053 192.86 31.9222 192.633L31.3728 191.952C31.1897 191.724 30.9625 191.566 30.6912 191.477L29.8772 191.21C29.6059 191.121 29.3386 191.023 29.0752 190.915L28.2851 190.592C28.0217 190.484 27.7605 190.371 27.5016 190.252L26.7247 189.893C26.4657 189.774 26.2278 189.626 26.011 189.449L25.3605 188.919C25.1437 188.743 24.9755 188.51 24.8557 188.22L24.4966 187.352C24.3769 187.063 24.1746 186.87 23.8897 186.774L23.035 186.484C22.7502 186.388 22.4872 186.264 22.2463 186.113L21.5235 185.658C21.2826 185.506 21.0443 185.35 20.8086 185.188L20.1015 184.705C19.8658 184.543 19.6755 184.338 19.5306 184.088L19.0959 183.339C18.951 183.089 18.8301 182.821 18.7331 182.533L18.4423 181.672C18.3453 181.385 18.1591 181.176 17.8836 181.046L17.0572 180.655C16.7817 180.524 16.6276 180.294 16.5949 179.964L16.4968 178.974C16.4641 178.644 16.3704 178.365 16.2157 178.138L15.7516 177.456C15.5969 177.229 15.3303 177.08 14.9516 177.011L13.8158 176.802C13.4372 176.732 13.23 176.541 13.1942 176.227L13.0869 175.286C13.0511 174.972 12.99 174.678 12.9035 174.406L12.6439 173.587C12.5574 173.314 12.3585 173.109 12.0472 172.972L11.1133 172.56C10.802 172.422 10.6795 172.176 10.7458 171.819L10.9447 170.75C11.011 170.394 10.9851 170.092 10.8669 169.845L10.5123 169.102C10.3941 168.855 10.262 168.614 10.116 168.38L9.67791 167.677C9.53189 167.443 9.37358 167.214 9.20297 166.989L8.69114 166.315C8.52054 166.09 8.38221 165.85 8.27618 165.594L7.95807 164.828C7.85204 164.573 7.69749 164.336 7.49445 164.117L6.88531 163.461C6.68226 163.242 6.56017 162.992 6.51904 162.711L6.39565 161.867C6.35452 161.586 6.34251 161.297 6.3596 161L6.41089 160.11C6.42798 159.813 6.38438 159.537 6.28007 159.281L5.96714 158.514C5.86283 158.258 5.78889 157.994 5.74532 157.72L5.61461 156.9C5.57104 156.627 5.475 156.366 5.32649 156.118L4.88097 155.375C4.73246 155.127 4.61752 154.87 4.53614 154.603L4.29202 153.804C4.21064 153.537 4.21248 153.256 4.29754 152.961L4.5527 152.074C4.63776 151.778 4.55117 151.51 4.29292 151.269L3.5182 150.546C3.25996 150.306 3.18681 150.038 3.29876 149.744L3.63461 148.862C3.74656 148.567 3.74715 148.287 3.63638 148.019L3.30408 147.217C3.19331 146.949 3.185 146.673 3.27914 146.389L3.56157 145.536C3.65572 145.252 3.58912 144.976 3.36179 144.707L2.6798 143.901C2.45247 143.633 2.44078 143.357 2.64474 143.076L3.25662 142.231C3.46058 141.949 3.47988 141.668 3.3145 141.387L2.81838 140.546C2.65301 140.265 2.57889 139.985 2.59602 139.706L2.64741 138.867C2.66454 138.588 2.67411 138.308 2.67612 138.028L2.68214 137.186C2.68414 136.906 2.78501 136.636 2.98472 136.375L3.58386 135.595C3.78357 135.334 3.82057 135.056 3.69485 134.761L3.31768 133.874C3.19195 133.578 3.13605 133.29 3.14997 133.008L3.19173 132.164C3.20565 131.883 3.27323 131.611 3.39448 131.348L3.75823 130.56C3.87947 130.297 4.00239 130.037 4.12698 129.779L4.50074 129.006C4.62533 128.748 4.67957 128.474 4.66347 128.185L4.61518 127.316C4.59908 127.026 4.69226 126.764 4.89471 126.532L5.50205 125.833C5.7045 125.6 5.86959 125.359 5.99732 125.11L6.3805 124.364C6.50823 124.116 6.50994 123.825 6.38564 123.492L6.01273 122.493C5.88843 122.16 5.93483 121.885 6.15193 121.667L6.80324 121.013C7.02035 120.795 7.11275 120.53 7.08044 120.218L6.98354 119.28C6.95124 118.968 6.99674 118.686 7.12004 118.433L7.48995 117.676C7.61325 117.424 7.83381 117.218 8.15162 117.059L9.10506 116.581C9.42287 116.422 9.6259 116.211 9.71416 115.948L9.97892 115.159C10.0672 114.896 10.1665 114.638 10.2768 114.384L10.6077 113.624C10.718 113.371 10.839 113.123 10.9707 112.88L11.366 112.152C11.4977 111.909 11.6151 111.657 11.7182 111.396L12.0275 110.613C12.1306 110.352 12.2105 110.074 12.2671 109.779L12.437 108.894C12.4936 108.598 12.6404 108.363 12.8772 108.186L13.5877 107.657C13.8246 107.48 14.0121 107.27 14.1502 107.026L14.5648 106.296C14.7029 106.052 14.9167 105.867 15.206 105.74L16.0739 105.359C16.3633 105.232 16.5687 105.041 16.6903 104.784L17.055 104.016C17.1765 103.76 17.2886 103.493 17.3912 103.215L17.6989 102.38C17.8015 102.102 17.9348 101.849 18.099 101.62L18.5914 100.933C18.7555 100.704 18.9772 100.531 19.2567 100.413L20.0949 100.058C20.3743 99.9401 20.5543 99.723 20.6348 99.407L20.8764 98.4591C20.9569 98.1432 21.1036 97.8929 21.3165 97.7084L21.9551 97.1549C22.1679 96.9704 22.4564 96.8741 22.8204 96.8659L23.9125 96.8415C24.2765 96.8333 24.5252 96.6934 24.6587 96.4218L25.0591 95.6069C25.1926 95.3352 25.3951 95.1478 25.6667 95.0445L26.4813 94.7346C26.7528 94.6313 26.9686 94.4549 27.1285 94.2053L27.6083 93.4567C27.7683 93.2071 27.9448 92.9764 28.1378 92.7645L28.7167 92.1288C28.9097 91.917 29.1714 91.8086 29.5018 91.8036L30.4929 91.7889C30.8233 91.784 31.1028 91.7043 31.3315 91.5496L32.0174 91.0858C32.2461 90.9312 32.4659 90.76 32.6768 90.5724L33.3097 90.0095C33.5206 89.8219 33.7463 89.6587 33.9867 89.5199L34.708 89.1035C34.9484 88.9647 35.1762 88.7997 35.3913 88.6084L36.0368 88.0347C36.2519 87.8435 36.503 87.7249 36.79 87.6789L37.6509 87.5411C37.9379 87.4952 38.1964 87.3883 38.4263 87.2205L39.1161 86.7171C39.346 86.5493 39.6042 86.4482 39.8906 86.4137L40.7501 86.3103C41.0365 86.2759 41.2832 86.1374 41.49 85.8949L42.1104 85.1673C42.3172 84.9248 42.5929 84.8763 42.9374 85.0217L43.9711 85.4582C44.3157 85.6037 44.5995 85.5712 44.8226 85.3609L45.492 84.7297C45.7151 84.5193 45.9162 84.3563 46.0952 84.2406L46.6322 83.8935C46.8112 83.7778 46.8422 83.5921 46.7251 83.3364L46.3739 82.5692C46.2568 82.3135 46.2279 82.0345 46.2874 81.7321L46.4656 80.8249C46.525 80.5225 46.4632 80.2506 46.2802 80.0091L45.731 79.2847C45.5479 79.0433 45.4802 78.7763 45.5278 78.4837L45.6707 77.606C45.7184 77.3135 45.685 77.0368 45.5707 76.776L45.2278 75.9935C45.1135 75.7327 44.9725 75.4733 44.8046 75.2152L44.301 74.4412C44.1331 74.1832 44.0404 73.9137 44.0228 73.6329L43.9701 72.7903C43.9525 72.5094 44.0185 72.2228 44.1682 71.9305L44.6173 71.0536C44.767 70.7613 44.8264 70.4778 44.7955 70.2031L44.7027 69.3789C44.6718 69.1042 44.5675 68.8301 44.3899 68.5566L43.857 67.736C43.6794 67.4624 43.6161 67.1859 43.6669 66.9064L43.8195 66.0679C43.8704 65.7884 43.9195 65.5099 43.9668 65.2322L44.1089 64.3994C44.1562 64.1218 44.2052 63.8442 44.2558 63.5665L44.4076 62.7337C44.4582 62.4561 44.5164 62.1786 44.5821 61.9013L44.7793 61.0695C44.845 60.7922 44.8889 60.5163 44.9108 60.2417L44.9767 59.418C44.9987 59.1434 44.9116 58.8623 44.7153 58.5748L44.1263 57.7122C43.93 57.4246 43.8529 57.142 43.8948 56.8644L44.0206 56.0314C44.0625 55.7538 44.1371 55.4804 44.2445 55.2113L44.5665 54.404C44.6739 54.1349 44.7449 53.8628 44.7797 53.5877L44.8841 52.7623C44.9189 52.4872 44.9515 52.211 44.9817 51.9338L45.0725 51.1021C45.1028 50.8249 45.097 50.5399 45.0551 50.247L44.9294 49.3685C44.8875 49.0756 44.9116 48.7954 45.0017 48.5278L45.2718 47.7251C45.3619 47.4575 45.5152 47.208 45.7318 46.9765L46.3817 46.2822C46.5984 46.0507 46.7581 45.8065 46.861 45.5496L47.1698 44.7789C47.2727 44.522 47.3823 44.2679 47.4986 44.0167L47.8474 43.2629C47.9636 43.0116 47.9581 42.7167 47.8306 42.3781L47.4484 41.3624C47.3209 41.0238 47.3099 40.7243 47.4153 40.4638L47.7315 39.6823C47.837 39.4218 47.9816 39.1785 48.1656 38.9526L48.7174 38.2746C48.9014 38.0486 49.0289 37.7986 49.1 37.5245L49.3133 36.7023C49.3844 36.4283 49.5376 36.1939 49.7728 35.9994L50.4786 35.4157C50.7138 35.2211 50.9018 35.005 51.0424 34.7674L51.4643 34.0545C51.6049 33.8169 51.7686 33.5928 51.9553 33.3822L52.5156 32.7505C52.7024 32.5399 52.8618 32.3144 52.9939 32.074L53.3901 31.3527C53.5222 31.1123 53.5803 30.8225 53.5646 30.4834L53.5172 29.4662C53.5015 29.1271 53.5821 28.8487 53.7593 28.6309L54.2907 27.9777C54.4678 27.7599 54.6707 27.562 54.8992 27.3841L55.5847 26.8502C55.8132 26.6722 55.9589 26.4314 56.0218 26.1279L56.2106 25.2174C56.2736 24.9139 56.3933 24.6529 56.57 24.4344L57.0999 23.7791C57.2766 23.5606 57.4716 23.3582 57.6848 23.1718L58.3246 22.6126C58.5378 22.4263 58.7508 22.241 58.9634 22.0568L59.6014 21.5043C59.8141 21.3202 59.9979 21.1084 60.1528 20.8689L60.6176 20.1507C60.7725 19.9112 61.024 19.7712 61.372 19.7306L62.4161 19.6087C62.7642 19.5681 62.9651 19.372 63.0188 19.0205L63.1801 17.9659C63.2338 17.6143 63.42 17.4096 63.7387 17.3516L64.6947 17.1778C65.0134 17.1198 65.2492 16.9653 65.4022 16.7141L65.861 15.9607C66.014 15.7095 66.2191 15.5229 66.4764 15.4008L67.2481 15.0346C67.5053 14.9125 67.7091 14.7177 67.8594 14.4502L68.3104 13.6476C68.4607 13.38 68.6551 13.1719 68.8936 13.0231L69.609 12.5768C69.8475 12.4281 70.1132 12.3235 70.4062 12.263L71.2852 12.0815C71.5781 12.021 71.8336 11.9022 72.0515 11.7251L72.7052 11.1938C72.9231 11.0167 73.1455 10.8451 73.3724 10.6789L74.0532 10.1805C74.2801 10.0143 74.5458 9.92221 74.8503 9.90415L75.7638 9.84996C76.0682 9.8319 76.3445 9.76214 76.5925 9.64068L77.3364 9.27632C77.5844 9.15487 77.8249 9.01615 78.0578 8.86016L78.7567 8.3922C78.9896 8.23622 79.231 8.09736 79.4809 7.97562L80.2306 7.61041C80.4805 7.48867 80.7297 7.3629 80.978 7.23311L81.7231 6.84372C81.9714 6.71392 82.2447 6.65531 82.543 6.66789L83.4379 6.70562C83.7362 6.71819 84.0094 6.6588 84.2575 6.52745L85.0019 6.1334C85.25 6.00204 85.5111 5.91277 85.7852 5.86557L86.6074 5.72398C86.8815 5.67678 87.1293 5.52482 87.3509 5.26812L88.0156 4.498C88.2372 4.24129 88.4906 4.10608 88.7757 4.09235L89.6313 4.05117C89.9165 4.03744 90.1947 3.994 90.466 3.92083L91.2798 3.70134C91.551 3.62817 91.8389 3.65618 92.1432 3.78536L93.0563 4.17289C93.3606 4.30207 93.6379 4.25702 93.8879 4.03774L94.6381 3.37988C94.8881 3.1606 95.1616 3.1266 95.4584 3.2779L96.3489 3.73178C96.6457 3.88307 96.9288 3.90752 97.1981 3.80512L98.0059 3.49792C98.2752 3.39552 98.5491 3.34817 98.8276 3.35585L99.6631 3.37892C99.9416 3.3866 100.219 3.34474 100.496 3.25332L101.326 2.97907C101.603 2.88766 101.88 2.82173 102.159 2.7813L102.997 2.66C103.276 2.61957 103.554 2.65327 103.832 2.7611L104.667 3.08459C104.945 3.19242 105.223 3.26342 105.501 3.29759L106.335 3.4001C106.613 3.43427 106.825 3.43521 106.969 3.40291L107.404 3.30601C107.549 3.27371 107.622 3.25325 107.622 3.24462V3.21874C107.622 3.21011 107.763 3.13748 108.045 3.00085L108.891 2.59097Z" fill="white" stroke="white" stroke-width="5"/>
</svg>
