<svg width="429" height="301" viewBox="0 0 429 301" fill="none" xmlns="http://www.w3.org/2000/svg">
<g filter="url(#filter0_d_3_41)">
<path d="M164.99 2.62882C165.389 2.43524 165.781 2.46001 166.167 2.70315L167.325 3.43255C167.711 3.67568 168.098 3.83177 168.486 3.90082L169.65 4.10796C170.038 4.17701 170.425 4.25185 170.809 4.33246L171.963 4.57432C172.348 4.65494 172.731 4.7377 173.113 4.8226L174.259 5.07732C174.641 5.16222 175.048 5.0928 175.482 4.86906L176.783 4.19783C177.216 3.97408 177.604 4.01963 177.946 4.33448L178.97 5.27901C179.312 5.59386 179.704 5.66239 180.146 5.48463L181.473 4.95133C181.915 4.77356 182.308 4.81131 182.653 5.06456L183.687 5.82432C184.032 6.07758 184.392 6.2632 184.767 6.38119L185.893 6.73517C186.268 6.85316 186.667 6.89831 187.09 6.87064L188.357 6.78761C188.78 6.75993 189.174 6.82471 189.54 6.98194L190.637 7.45364C191.003 7.61088 191.322 7.8854 191.594 8.2772L192.41 9.45262C192.682 9.84442 192.994 10.1236 193.346 10.2902L194.4 10.7898C194.752 10.9564 195.135 11.0536 195.55 11.0815L196.793 11.1653C197.208 11.1932 197.579 11.3175 197.907 11.5383L198.892 12.2006C199.22 12.4214 199.601 12.5416 200.033 12.5613L201.329 12.6204C201.761 12.6401 202.173 12.7074 202.563 12.8223L203.733 13.1669C204.123 13.2817 204.491 13.4388 204.836 13.6381L205.871 14.2361C206.216 14.4354 206.48 14.7589 206.664 15.2067L207.217 16.55C207.401 16.9977 207.637 17.3557 207.926 17.6239L208.794 18.4285C209.083 18.6967 209.391 18.9358 209.719 19.1459L210.702 19.7763C211.03 19.9864 211.348 20.2096 211.658 20.4458L212.585 21.1545C212.895 21.3908 213.251 21.5706 213.653 21.694L214.862 22.0642C215.265 22.1876 215.635 22.3559 215.971 22.5692L216.98 23.209C217.317 23.4222 217.667 23.6225 218.033 23.8097L219.129 24.3715C219.494 24.5587 219.786 24.8258 220.003 25.1727L220.655 26.2133C220.872 26.5602 221.14 26.8548 221.458 27.0971L222.414 27.824C222.732 28.0663 223.022 28.3368 223.283 28.6355L224.068 29.5316C224.329 29.8304 224.575 30.1425 224.804 30.468L225.492 31.4447C225.722 31.7702 225.95 32.0952 226.178 32.4198L226.86 33.3934C227.087 33.7179 227.301 34.0513 227.503 34.3935L228.108 35.4201C228.309 35.7623 228.601 36.0379 228.984 36.2469L230.132 36.8739C230.515 37.083 230.68 37.4451 230.628 37.9604L230.472 39.5062C230.42 40.0215 230.628 40.1941 231.095 40.024L232.497 39.5138C232.964 39.3437 233.412 39.2475 233.841 39.2252L235.129 39.1585C235.558 39.1362 235.865 38.8667 236.05 38.35L236.604 36.7999C236.789 36.2832 237.11 36.0498 237.566 36.0997L238.937 36.2494C239.394 36.2993 239.776 36.1821 240.084 35.8978L241.008 35.0449C241.315 34.7605 241.66 34.5619 242.04 34.449L243.181 34.1104C243.562 33.9975 243.977 33.9912 244.428 34.0915L245.78 34.3923C246.231 34.4926 246.598 34.3447 246.883 33.9487L247.738 32.7606C248.023 32.3646 248.382 32.2068 248.815 32.2872L250.114 32.5286C250.547 32.609 250.958 32.6268 251.35 32.5818L252.523 32.4468C252.914 32.4018 253.305 32.3631 253.696 32.3305L254.868 32.2328C255.259 32.2003 255.621 32.0173 255.954 31.6839L256.954 30.6838C257.287 30.3504 257.656 30.1975 258.06 30.2249L259.271 30.3073C259.675 30.3348 260.081 30.4008 260.489 30.5055L261.714 30.8195C262.122 30.9242 262.512 30.8847 262.885 30.701L264.002 30.15C264.374 29.9664 264.759 29.9108 265.156 29.9834L266.349 30.201C266.747 30.2736 267.139 30.2918 267.527 30.2556L268.691 30.1472C269.079 30.111 269.466 29.9409 269.853 29.6368L271.014 28.7247C271.401 28.4206 271.792 28.4169 272.186 28.7137L273.371 29.604C273.766 29.9007 274.16 30.0577 274.553 30.0748L275.733 30.126C276.126 30.1431 276.52 30.1439 276.913 30.1284L278.093 30.0818C278.486 30.0663 278.881 29.9078 279.278 29.6064L280.467 28.7022C280.864 28.4008 281.26 28.2831 281.655 28.349L282.841 28.5467C283.236 28.6126 283.627 28.7238 284.014 28.8803L285.174 29.3499C285.56 29.5064 285.947 29.6171 286.335 29.6819L287.497 29.8763C287.884 29.9411 288.279 29.948 288.681 29.8971L289.888 29.7445C290.29 29.6936 290.672 29.7866 291.033 30.0236L292.117 30.7345C292.478 30.9715 292.847 31.1466 293.222 31.2599L294.347 31.5998C294.722 31.7131 295.1 31.8047 295.482 31.8747L296.626 32.0844C297.008 32.1544 297.415 32.1254 297.846 31.9976L299.141 31.6141C299.572 31.4862 299.978 31.4774 300.357 31.5875L301.494 31.918C301.873 32.0281 302.25 32.1431 302.625 32.2629L303.75 32.6224C304.125 32.7423 304.469 32.9546 304.781 33.2596L305.718 34.1743C306.03 34.4792 306.366 34.7036 306.727 34.8474L307.809 35.2787C308.17 35.4225 308.601 35.3934 309.103 35.1914L310.61 34.5855C311.112 34.3836 311.523 34.4144 311.842 34.6779L312.8 35.4686C313.119 35.7321 313.461 35.9421 313.824 36.0986L314.913 36.5681C315.277 36.7246 315.636 36.8907 315.99 37.0663L317.055 37.593C317.41 37.7686 317.711 38.0414 317.959 38.4114L318.701 39.5214C318.949 39.8914 319.314 40.051 319.796 40.0002L321.244 39.8476C321.727 39.7968 322.113 39.915 322.402 40.2024L323.269 41.0646C323.558 41.3519 323.843 41.641 324.124 41.9317L324.965 42.8039C325.246 43.0946 325.599 43.2802 326.023 43.3608L327.298 43.6025C327.723 43.683 328.008 43.9564 328.153 44.4226L328.589 45.8213C328.734 46.2875 329.01 46.5793 329.415 46.6967L330.63 47.0489C331.035 47.1662 331.353 47.3933 331.583 47.7299L332.274 48.7399C332.504 49.0766 332.76 49.3812 333.039 49.6539L333.879 50.4718C334.159 50.7445 334.533 50.9175 335.003 50.991L336.41 51.2114C336.88 51.2849 337.16 51.5554 337.253 52.0228L337.53 53.4253C337.622 53.8928 337.813 54.2584 338.101 54.522L338.968 55.3129C339.257 55.5766 339.625 55.7717 340.072 55.8983L341.413 56.2782C341.861 56.4048 342.08 56.7301 342.072 57.254L342.047 58.8259C342.038 59.3498 342.281 59.6648 342.774 59.7706L344.254 60.0882C344.747 60.1941 345.082 60.4282 345.26 60.7904L345.792 61.877C345.97 62.2392 346.185 62.5729 346.437 62.878L347.193 63.7934C347.446 64.0985 347.64 64.4423 347.778 64.8246L348.19 65.9718C348.327 66.3542 348.442 66.7475 348.534 67.1516L348.809 68.3641C348.901 68.7682 349.118 69.096 349.46 69.3476L350.485 70.1022C350.827 70.3537 351.061 70.6686 351.188 71.0467L351.57 72.181C351.697 72.5591 351.921 72.8868 352.241 73.164L353.201 73.9956C353.521 74.2728 353.745 74.6 353.871 74.9773L354.252 76.1091C354.379 76.4864 354.484 76.8718 354.567 77.2655L354.815 78.4465C354.897 78.8402 354.947 79.2443 354.963 79.6589L355.013 80.9025C355.029 81.3171 355.155 81.688 355.391 82.0152L356.097 82.997C356.333 83.3242 356.633 83.6331 356.999 83.9236L358.095 84.7952C358.461 85.0857 358.604 85.4503 358.525 85.889L358.289 87.2052C358.21 87.6439 358.203 88.0576 358.267 88.4463L358.459 89.6122C358.523 90.0008 358.556 90.3953 358.56 90.7955L358.571 91.9963C358.574 92.3966 358.651 92.7796 358.802 93.1452L359.253 94.2422C359.404 94.6079 359.563 94.9736 359.73 95.3395L360.233 96.437C360.401 96.8029 360.488 97.1839 360.494 97.5801L360.514 98.7688C360.521 99.165 360.582 99.5531 360.698 99.933L361.046 101.073C361.162 101.453 361.237 101.838 361.271 102.23L361.373 103.404C361.407 103.796 361.484 104.185 361.604 104.571L361.963 105.731C362.083 106.118 362.215 106.507 362.359 106.898L362.79 108.07C362.934 108.461 362.883 108.856 362.636 109.256L361.894 110.457C361.647 110.857 361.64 111.254 361.872 111.648L362.568 112.828C362.8 113.221 362.919 113.615 362.925 114.008L362.941 115.188C362.946 115.581 362.903 115.9 362.81 116.143L362.533 116.873C362.44 117.116 362.548 117.417 362.855 117.777L363.776 118.856C364.083 119.216 364.424 119.447 364.8 119.549L365.926 119.857C366.302 119.959 366.666 120.096 367.018 120.268L368.073 120.783C368.425 120.955 368.795 121.075 369.184 121.145L370.352 121.352C370.742 121.421 371.143 121.468 371.556 121.492L372.795 121.565C373.208 121.589 373.62 121.624 374.032 121.668L375.268 121.802C375.68 121.847 376.01 122.068 376.257 122.466L376.999 123.66C377.246 124.058 377.559 124.317 377.936 124.437L379.069 124.797C379.446 124.917 379.818 125.05 380.185 125.196L381.286 125.636C381.653 125.782 382.046 125.888 382.464 125.953L383.72 126.15C384.139 126.216 384.489 126.397 384.772 126.693L385.618 127.583C385.901 127.88 386.247 128.076 386.658 128.172L387.891 128.461C388.302 128.557 388.634 128.77 388.887 129.101L389.647 130.091C389.901 130.422 390.206 130.678 390.563 130.861L391.633 131.411C391.99 131.594 392.269 131.877 392.47 132.259L393.074 133.407C393.276 133.79 393.497 134.141 393.739 134.461L394.464 135.422C394.706 135.743 395.09 135.902 395.615 135.9L397.19 135.895C397.715 135.894 398.016 136.142 398.093 136.639L398.324 138.133C398.401 138.63 398.643 138.952 399.05 139.097L400.272 139.532C400.679 139.677 400.995 139.916 401.218 140.249L401.888 141.246C402.111 141.579 402.327 141.916 402.535 142.257L403.158 143.281C403.366 143.622 403.641 143.905 403.982 144.129L405.004 144.802C405.345 145.026 405.644 145.287 405.903 145.585L406.677 146.48C406.935 146.778 407.182 147.086 407.417 147.402L408.124 148.351C408.359 148.667 408.575 148.998 408.772 149.341L409.363 150.372C409.56 150.716 409.748 151.064 409.929 151.416L410.47 152.473C410.65 152.825 410.883 153.142 411.169 153.425L412.026 154.274C412.311 154.557 412.538 154.877 412.706 155.235L413.211 156.31C413.379 156.668 413.634 156.978 413.974 157.238L414.994 158.02C415.334 158.281 415.558 158.607 415.664 159L415.981 160.177C416.087 160.57 416.133 160.989 416.118 161.435L416.075 162.771C416.06 163.217 416.185 163.593 416.451 163.901L417.246 164.823C417.511 165.13 417.717 165.466 417.863 165.829L418.302 166.92C418.448 167.283 418.569 167.656 418.664 168.039L418.95 169.188C419.046 169.571 419.275 169.905 419.638 170.192L420.727 171.05C421.09 171.336 421.342 171.665 421.484 172.036L421.909 173.15C422.051 173.521 422.055 173.933 421.922 174.385L421.524 175.742C421.391 176.194 421.502 176.576 421.859 176.886L422.928 177.819C423.284 178.13 423.476 178.486 423.505 178.887L423.59 180.09C423.619 180.491 423.554 180.909 423.395 181.344L422.918 182.65C422.759 183.086 422.736 183.491 422.849 183.866L423.187 184.992C423.3 185.368 423.497 185.732 423.777 186.085L424.617 187.145C424.897 187.498 425.034 187.874 425.027 188.274L425.008 189.472C425.002 189.871 425.023 190.267 425.072 190.659L425.219 191.835C425.268 192.227 425.223 192.625 425.084 193.028L424.668 194.237C424.529 194.641 424.433 195.038 424.381 195.43L424.224 196.606C424.172 196.998 424.265 197.388 424.505 197.775L425.223 198.937C425.462 199.324 425.557 199.716 425.509 200.11L425.363 201.295C425.314 201.69 425.361 202.087 425.503 202.487L425.928 203.687C426.069 204.087 426.132 204.486 426.115 204.884L426.064 206.079C426.048 206.477 425.952 206.867 425.779 207.248L425.258 208.391C425.085 208.772 424.961 209.157 424.888 209.545L424.667 210.71C424.594 211.098 424.432 211.471 424.181 211.828L423.429 212.901C423.178 213.258 423.174 213.658 423.416 214.099L424.142 215.422C424.384 215.864 424.397 216.263 424.179 216.621L423.527 217.696C423.31 218.054 423.204 218.436 423.208 218.842L423.221 220.059C423.225 220.464 423.198 220.864 423.14 221.259L422.965 222.442C422.907 222.837 422.742 223.2 422.472 223.531L421.66 224.523C421.389 224.854 421.287 225.238 421.355 225.676L421.557 226.989C421.625 227.426 421.531 227.81 421.276 228.139L420.51 229.125C420.255 229.454 419.984 229.773 419.698 230.082L418.838 231.01C418.552 231.319 418.329 231.652 418.171 232.008L417.695 233.075C417.536 233.431 417.357 233.777 417.157 234.113L416.559 235.122C416.359 235.458 416.202 235.815 416.087 236.192L415.743 237.324C415.629 237.701 415.561 238.106 415.541 238.538L415.479 239.834C415.459 240.266 415.336 240.645 415.11 240.971L414.432 241.949C414.206 242.275 414.055 242.646 413.979 243.062L413.752 244.31C413.677 244.726 413.533 245.102 413.322 245.44L412.687 246.452C412.476 246.79 412.108 247.018 411.582 247.138L410.007 247.497C409.481 247.617 409.172 247.884 409.08 248.297L408.801 249.538C408.708 249.951 408.597 250.356 408.466 250.752L408.075 251.94C407.944 252.337 407.718 252.659 407.397 252.907L406.432 253.652C406.111 253.901 405.762 254.121 405.384 254.314L404.251 254.893C403.874 255.086 403.668 255.432 403.636 255.931L403.537 257.43C403.504 257.929 403.318 258.291 402.978 258.515L401.96 259.188C401.62 259.412 401.303 259.656 401.009 259.92L400.126 260.713C399.832 260.977 399.521 261.222 399.193 261.448L398.208 262.126C397.88 262.352 397.619 262.654 397.426 263.03L396.846 264.161C396.653 264.537 396.338 264.774 395.903 264.87L394.599 265.157C394.164 265.253 393.81 265.445 393.537 265.731L392.717 266.59C392.444 266.877 392.148 267.135 391.831 267.367L390.878 268.06C390.56 268.292 390.209 268.475 389.826 268.61L388.674 269.015C388.29 269.151 388.016 269.449 387.851 269.911L387.357 271.296C387.193 271.758 386.889 272.008 386.447 272.047L385.119 272.163C384.677 272.202 384.265 272.284 383.885 272.408L382.744 272.781C382.363 272.905 382.007 273.07 381.675 273.277L380.68 273.895C380.349 274.102 380.012 274.3 379.671 274.49L378.649 275.061C378.308 275.251 377.986 275.485 377.684 275.761L376.778 276.59C376.476 276.866 376.109 277 375.676 276.991L374.377 276.966C373.944 276.957 373.568 277.077 373.249 277.326L372.292 278.071C371.973 278.32 371.633 278.521 371.272 278.674L370.189 279.134C369.827 279.288 369.467 279.443 369.106 279.6L368.025 280.071C367.665 280.228 367.276 280.295 366.858 280.272L365.604 280.205C365.186 280.182 364.796 280.244 364.434 280.392L363.348 280.835C362.986 280.983 362.642 281.211 362.316 281.518L361.339 282.442C361.013 282.75 360.651 282.921 360.254 282.956L359.062 283.062C358.665 283.097 358.273 283.156 357.888 283.239L356.732 283.488C356.347 283.571 355.967 283.694 355.593 283.855L354.471 284.341C354.097 284.502 353.706 284.553 353.298 284.493L352.075 284.313C351.668 284.252 351.258 284.152 350.848 284.012L349.615 283.592C349.204 283.452 348.809 283.448 348.43 283.579L347.293 283.971C346.914 284.102 346.529 284.192 346.139 284.24L344.969 284.385C344.579 284.434 344.188 284.458 343.796 284.457L342.622 284.455C342.231 284.454 341.838 284.408 341.445 284.316L340.266 284.04C339.873 283.948 339.479 284.052 339.086 284.352L337.906 285.251C337.513 285.551 337.119 285.556 336.726 285.266L335.546 284.397C335.153 284.107 334.759 284.109 334.366 284.403L333.186 285.285C332.793 285.579 332.399 285.635 332.006 285.453L330.826 284.907C330.433 284.725 330.039 284.706 329.646 284.85L328.466 285.282C328.073 285.425 327.679 285.412 327.286 285.24L326.106 284.726C325.713 284.554 325.319 284.461 324.926 284.446L323.746 284.4C323.353 284.385 322.959 284.443 322.566 284.576L321.386 284.974C320.993 285.107 320.599 285.202 320.206 285.261L319.026 285.437C318.633 285.495 318.239 285.555 317.846 285.617L316.666 285.801C316.273 285.863 315.879 285.799 315.486 285.609L314.306 285.038C313.913 284.848 313.519 284.707 313.126 284.616L311.946 284.342C311.553 284.25 311.159 284.23 310.766 284.279L309.586 284.428C309.193 284.477 308.799 284.565 308.406 284.691L307.226 285.07C306.833 285.197 306.439 285.17 306.046 284.991L304.866 284.454C304.473 284.275 304.079 284.263 303.686 284.418L302.506 284.884C302.113 285.04 301.719 285.189 301.326 285.332L300.146 285.762C299.753 285.906 299.359 285.876 298.966 285.673L297.786 285.064C297.393 284.861 296.999 284.752 296.606 284.736L295.426 284.687C295.033 284.67 294.639 284.683 294.246 284.725L293.066 284.851C292.673 284.893 292.279 284.887 291.886 284.834L290.706 284.672C290.313 284.619 289.919 284.585 289.526 284.573L288.346 284.535C287.953 284.522 287.559 284.467 287.166 284.369L285.986 284.076C285.593 283.978 285.199 283.911 284.806 283.875L283.626 283.766C283.233 283.729 282.839 283.888 282.446 284.243L281.266 285.307C280.873 285.662 280.479 285.826 280.086 285.799L278.906 285.72C278.513 285.693 278.119 285.642 277.726 285.566L276.546 285.34C276.153 285.265 275.759 285.184 275.366 285.098L274.186 284.841C273.793 284.756 273.399 284.82 273.006 285.033L271.826 285.672C271.433 285.885 271.039 285.8 270.646 285.417L269.466 284.268C269.073 283.885 268.679 283.801 268.286 284.015L267.106 284.658C266.713 284.872 266.319 285.046 265.926 285.179L264.746 285.58C264.353 285.713 263.959 285.718 263.566 285.593L262.386 285.22C261.993 285.095 261.599 284.967 261.206 284.835L260.026 284.439C259.633 284.307 259.239 284.261 258.846 284.301L257.666 284.419C257.273 284.459 256.879 284.488 256.486 284.508L255.306 284.566C254.913 284.586 254.519 284.552 254.126 284.466L252.946 284.206C252.553 284.12 252.159 284.176 251.766 284.374L250.586 284.97C250.193 285.168 249.799 285.133 249.406 284.864L248.226 284.056C247.833 283.787 247.439 283.753 247.046 283.956L245.866 284.562C245.473 284.764 245.079 284.919 244.686 285.027L243.506 285.35C243.113 285.457 242.719 285.419 242.326 285.233L241.146 284.677C240.753 284.491 240.359 284.366 239.966 284.3L238.786 284.104C238.393 284.039 237.999 283.982 237.606 283.933L236.426 283.788C236.033 283.739 235.639 283.8 235.246 283.971L234.066 284.483C233.673 284.654 233.279 284.739 232.886 284.738L231.706 284.734C231.313 284.732 230.919 284.793 230.526 284.917L229.346 285.287C228.953 285.411 228.559 285.363 228.166 285.143L226.986 284.482C226.593 284.262 226.199 284.123 225.806 284.065L224.626 283.889C224.233 283.83 223.839 283.938 223.446 284.213L222.266 285.035C221.873 285.31 221.479 285.407 221.086 285.327L219.906 285.086C219.513 285.006 219.119 284.912 218.726 284.803L217.546 284.476C217.153 284.367 216.759 284.381 216.366 284.517L215.186 284.924C214.793 285.06 214.399 285.111 214.006 285.077L212.826 284.975C212.433 284.941 212.039 284.891 211.646 284.826L210.466 284.63C210.073 284.565 209.679 284.587 209.286 284.697L208.106 285.026C207.713 285.136 207.319 285.172 206.926 285.134L205.746 285.021C205.353 284.983 204.959 284.863 204.566 284.66L203.386 284.052C202.993 283.849 202.599 283.925 202.206 284.278L201.026 285.339C200.633 285.693 200.239 285.787 199.846 285.62L198.666 285.119C198.273 284.952 197.879 284.889 197.486 284.931L196.306 285.056C195.913 285.098 195.519 285.143 195.126 285.192L193.946 285.339C193.553 285.388 193.159 285.455 192.766 285.539L191.586 285.793C191.193 285.877 190.799 285.807 190.406 285.582L189.226 284.907C188.833 284.683 188.439 284.527 188.046 284.44L186.866 284.178C186.473 284.091 186.079 284.101 185.686 284.207L184.506 284.525C184.113 284.631 183.719 284.698 183.326 284.727L182.146 284.812C181.753 284.84 181.359 284.931 180.966 285.085L179.786 285.548C179.393 285.702 178.999 285.615 178.606 285.287L177.426 284.303C177.033 283.974 176.639 283.911 176.246 284.112L175.066 284.716C174.673 284.917 174.279 285.101 173.886 285.267L172.706 285.764C172.313 285.93 171.919 285.818 171.526 285.429L170.346 284.26C169.953 283.871 169.559 283.746 169.166 283.887L167.986 284.308C167.593 284.449 167.199 284.503 166.806 284.473L165.626 284.381C165.233 284.35 164.839 284.41 164.446 284.559L163.266 285.006C162.873 285.155 162.479 285.29 162.086 285.409L160.906 285.768C160.513 285.887 160.119 285.897 159.726 285.797L158.546 285.498C158.153 285.398 157.759 285.355 157.366 285.369L156.186 285.411C155.793 285.425 155.399 285.425 155.006 285.412L153.826 285.371C153.433 285.357 153.039 285.266 152.646 285.097L151.466 284.589C151.073 284.42 150.679 284.425 150.286 284.605L149.106 285.144C148.713 285.324 148.319 285.309 147.926 285.099L146.746 284.471C146.353 284.262 145.959 284.159 145.566 284.163L144.386 284.177C143.993 284.181 143.599 284.155 143.206 284.097L142.026 283.926C141.633 283.869 141.239 283.843 140.846 283.848L139.666 283.864C139.273 283.869 138.879 283.882 138.486 283.902L137.306 283.963C136.913 283.983 136.519 284.153 136.126 284.472L134.946 285.432C134.553 285.751 134.159 285.846 133.766 285.716L132.586 285.325C132.193 285.195 131.799 285.106 131.406 285.059L130.226 284.917C129.833 284.869 129.439 284.763 129.046 284.598L127.866 284.103C127.473 283.938 127.079 283.904 126.686 284L125.506 284.29C125.113 284.386 124.719 284.486 124.326 284.591L123.146 284.903C122.753 285.008 122.359 285.067 121.966 285.081L120.786 285.124C120.393 285.138 119.999 285.111 119.606 285.042L118.426 284.835C118.033 284.766 117.639 284.814 117.246 284.979L116.066 285.473C115.673 285.638 115.279 285.713 114.886 285.699L113.706 285.655C113.313 285.641 112.919 285.626 112.526 285.61L111.346 285.563C110.953 285.548 110.559 285.538 110.166 285.536L108.986 285.527C108.593 285.525 108.199 285.505 107.806 285.467L106.626 285.356C106.233 285.319 105.839 285.164 105.446 284.891L104.266 284.072C103.873 283.799 103.479 283.668 103.086 283.68L101.906 283.716C101.513 283.728 101.119 283.795 100.726 283.917L99.5462 284.284C99.1529 284.406 98.7558 284.575 98.355 284.79L97.1525 285.436C96.7517 285.652 96.3639 285.585 95.9891 285.235L94.8648 284.188C94.49 283.838 94.1039 283.701 93.7064 283.776L92.5141 284.001C92.1167 284.076 91.7312 284.026 91.3576 283.853L90.2367 283.331C89.8631 283.157 89.4775 283.089 89.0798 283.126L87.8866 283.237C87.4889 283.274 87.1051 283.216 86.7352 283.062L85.6257 282.603C85.2558 282.45 84.8773 282.352 84.4901 282.308L83.3285 282.178C82.9413 282.134 82.5425 282.133 82.132 282.174L80.9006 282.299C80.4901 282.34 80.0763 282.38 79.6593 282.417L78.4082 282.53C77.9912 282.568 77.6312 282.402 77.3283 282.033L76.4195 280.925C76.1166 280.555 75.7761 280.322 75.398 280.226L74.2639 279.936C73.8858 279.84 73.4942 279.779 73.0891 279.754L71.8737 279.678C71.4686 279.653 71.0452 279.665 70.6034 279.713L69.2782 279.857C68.8364 279.906 68.4914 279.714 68.2429 279.283L67.4977 277.989C67.2493 277.558 66.9219 277.317 66.5153 277.267L65.2957 277.117C64.8892 277.067 64.5377 276.898 64.2414 276.611L63.3524 275.749C63.056 275.462 62.7434 275.212 62.4146 275.001L61.428 274.367C61.0991 274.156 60.7694 273.948 60.439 273.743L59.4477 273.128C59.1173 272.923 58.7482 272.783 58.3405 272.707L57.1175 272.481C56.7098 272.406 56.3764 272.208 56.1174 271.886L55.3404 270.92C55.0814 270.598 54.76 270.374 54.3762 270.248L53.2249 269.869C52.8411 269.743 52.4629 269.604 52.0904 269.451L50.9728 268.994C50.6002 268.841 50.2308 268.68 49.8645 268.511L48.7656 268.004C48.3993 267.835 48.0628 267.625 47.7561 267.375L46.836 266.624C46.5294 266.373 46.2914 266.043 46.122 265.633L45.614 264.403C45.4447 263.993 45.1585 263.72 44.7555 263.583L43.5466 263.174C43.1437 263.037 42.7718 262.862 42.431 262.647L41.4086 262.002C41.0678 261.788 40.7307 261.566 40.3973 261.337L39.3972 260.652C39.0638 260.424 38.7947 260.133 38.5897 259.779L37.9748 258.717C37.7698 258.363 37.5987 257.983 37.4616 257.576L37.0502 256.355C36.913 255.948 36.6496 255.653 36.26 255.468L35.091 254.914C34.7014 254.73 34.4834 254.403 34.4371 253.936L34.2983 252.533C34.252 252.065 34.1195 251.67 33.9007 251.348L33.2443 250.382C33.0254 250.06 32.6483 249.85 32.1127 249.751L30.5061 249.455C29.9706 249.357 29.6775 249.085 29.6269 248.641L29.4751 247.307C29.4245 246.862 29.338 246.447 29.2156 246.06L28.8485 244.9C28.7261 244.514 28.4448 244.223 28.0044 244.028L26.6834 243.445C26.2431 243.251 26.0698 242.901 26.1636 242.396L26.4449 240.881C26.5387 240.377 26.502 239.949 26.3349 239.598L25.8333 238.546C25.6661 238.195 25.4792 237.854 25.2727 237.523L24.6531 236.528C24.4465 236.196 24.2226 235.871 23.9813 235.552L23.2573 234.597C23.016 234.278 22.8203 233.938 22.6703 233.576L22.2204 232.491C22.0704 232.129 21.8518 231.793 21.5646 231.483L20.7029 230.553C20.4157 230.243 20.243 229.889 20.1849 229.49L20.0103 228.295C19.9522 227.897 19.9352 227.487 19.9593 227.067L20.0319 225.805C20.0561 225.385 19.9944 224.993 19.8468 224.631L19.4042 223.545C19.2567 223.182 19.1521 222.808 19.0904 222.42L18.9056 221.258C18.8439 220.871 18.7081 220.501 18.498 220.15L17.8678 219.097C17.6578 218.746 17.4952 218.381 17.3801 218.004L17.0348 216.871C16.9196 216.493 16.9223 216.095 17.0426 215.676L17.4035 214.42C17.5238 214.001 17.4013 213.621 17.036 213.28L15.9402 212.256C15.5749 211.915 15.4714 211.536 15.6298 211.119L16.1049 209.869C16.2632 209.452 16.264 209.054 16.1074 208.675L15.6373 207.538C15.4806 207.159 15.4689 206.768 15.6021 206.366L16.0015 205.158C16.1347 204.755 16.0405 204.363 15.719 203.983L14.7543 202.841C14.4327 202.46 14.4162 202.07 14.7047 201.671L15.5702 200.474C15.8587 200.075 15.886 199.676 15.6521 199.279L14.9503 198.087C14.7164 197.689 14.6115 197.292 14.6358 196.896L14.7085 195.709C14.7327 195.313 14.7462 194.916 14.7491 194.519L14.7576 193.327C14.7604 192.93 14.9031 192.547 15.1856 192.178L16.0331 191.072C16.3156 190.703 16.3679 190.309 16.1901 189.89L15.6566 188.634C15.4787 188.215 15.3996 187.806 15.4193 187.407L15.4784 186.211C15.4981 185.813 15.5937 185.427 15.7652 185.055L16.2797 183.938C16.4512 183.566 16.6251 183.197 16.8013 182.832L17.33 181.737C17.5062 181.372 17.583 180.984 17.5602 180.573L17.4919 179.342C17.4691 178.931 17.6009 178.561 17.8873 178.231L18.7463 177.241C19.0327 176.911 19.2662 176.57 19.4469 176.217L19.9889 175.161C20.1696 174.808 20.172 174.396 19.9962 173.925L19.4687 172.509C19.2929 172.037 19.3585 171.647 19.6656 171.338L20.5869 170.412C20.894 170.104 21.0247 169.728 20.979 169.285L20.8419 167.957C20.7962 167.515 20.8606 167.115 21.035 166.757L21.5582 165.684C21.7326 165.327 22.0446 165.035 22.4941 164.81L23.8428 164.133C24.2923 163.907 24.5795 163.608 24.7043 163.236L25.0788 162.118C25.2037 161.746 25.3441 161.38 25.5001 161.021L25.9682 159.943C26.1242 159.584 26.2954 159.233 26.4818 158.889L27.0408 157.858C27.2272 157.514 27.3933 157.157 27.5391 156.787L27.9766 155.677C28.1224 155.308 28.2354 154.914 28.3155 154.495L28.5558 153.241C28.6359 152.823 28.8435 152.489 29.1785 152.239L30.1835 151.489C30.5185 151.239 30.7837 150.941 30.9792 150.596L31.5655 149.56C31.7609 149.215 32.0633 148.953 32.4725 148.773L33.7002 148.233C34.1094 148.053 34.4 147.782 34.572 147.419L35.0879 146.331C35.2598 145.968 35.4184 145.589 35.5635 145.195L35.9987 144.013C36.1438 143.619 36.3324 143.26 36.5646 142.935L37.2611 141.962C37.4932 141.638 37.8069 141.392 38.2021 141.225L39.3878 140.723C39.783 140.556 40.0376 140.248 40.1515 139.8L40.4932 138.457C40.6071 138.01 40.8146 137.655 41.1157 137.394L42.019 136.609C42.3201 136.348 42.7281 136.212 43.243 136.2L44.7877 136.165C45.3026 136.154 45.6545 135.956 45.8433 135.571L46.4097 134.416C46.5985 134.031 46.885 133.766 47.2691 133.619L48.4213 133.18C48.8054 133.034 49.1106 132.784 49.3368 132.43L50.0156 131.37C50.2418 131.016 50.4914 130.689 50.7644 130.389L51.5834 129.488C51.8564 129.188 52.2265 129.035 52.6938 129.028L54.0958 129.007C54.5631 129 54.9585 128.887 55.2819 128.668L56.2521 128.011C56.5756 127.791 56.8865 127.549 57.1849 127.283L58.08 126.486C58.3784 126.22 58.6977 125.989 59.0377 125.792L60.0579 125.202C60.398 125.005 60.7202 124.772 61.0245 124.501L61.9375 123.688C62.2418 123.417 62.597 123.249 63.0029 123.184L64.2207 122.988C64.6267 122.923 64.9923 122.772 65.3175 122.534L66.2931 121.821C66.6184 121.583 66.9836 121.44 67.3888 121.391L68.6044 121.245C69.0097 121.196 69.3585 121 69.651 120.656L70.5286 119.625C70.8211 119.282 71.2111 119.213 71.6985 119.419L73.1606 120.037C73.648 120.243 74.0494 120.197 74.365 119.899L75.3118 119.005C75.6274 118.707 75.9119 118.476 76.1651 118.312L76.9247 117.82C77.1779 117.656 77.2217 117.393 77.0561 117.031L76.5593 115.944C76.3936 115.582 76.3529 115.186 76.4369 114.758L76.6891 113.473C76.7731 113.044 76.6857 112.659 76.4267 112.317L75.6499 111.291C75.391 110.948 75.2952 110.57 75.3626 110.156L75.5647 108.912C75.632 108.498 75.5849 108.106 75.4232 107.736L74.9382 106.627C74.7765 106.258 74.577 105.89 74.3395 105.525L73.6272 104.428C73.3898 104.063 73.2586 103.681 73.2337 103.283L73.1591 102.089C73.1343 101.691 73.2277 101.285 73.4394 100.871L74.0746 99.6284C74.2864 99.2143 74.3704 98.8126 74.3266 98.4234L74.1954 97.2558C74.1517 96.8666 74.0042 96.4782 73.7529 96.0906L72.9992 94.928C72.748 94.5404 72.6584 94.1486 72.7303 93.7526L72.9462 92.5646C73.0181 92.1686 73.0876 91.7739 73.1545 91.3806L73.3555 90.2006C73.4225 89.8073 73.4917 89.4139 73.5633 89.0206L73.7781 87.8406C73.8496 87.4473 73.9319 87.0542 74.0249 86.6613L74.3038 85.4827C74.3967 85.0898 74.4587 84.6989 74.4898 84.3099L74.5831 83.1428C74.6141 82.7537 74.4908 82.3555 74.2132 81.9481L73.3802 80.726C73.1025 80.3186 72.9933 79.9182 73.0526 79.5248L73.2305 78.3447C73.2898 77.9513 73.3954 77.564 73.5473 77.1827L74.0028 76.0389C74.1546 75.6576 74.2552 75.2721 74.3044 74.8823L74.452 73.7129C74.5013 73.3231 74.5473 72.9318 74.5901 72.5391L74.7185 71.3607C74.7614 70.9679 74.7531 70.5641 74.6939 70.1492L74.5161 68.9044C74.4569 68.4894 74.4909 68.0924 74.6183 67.7133L75.0004 66.576C75.1278 66.1969 75.3447 65.8434 75.6511 65.5154L76.5704 64.5316C76.8768 64.2037 77.1028 63.8577 77.2484 63.4937L77.6851 62.4018C77.8307 62.0378 77.9857 61.6778 78.1501 61.3218L78.6435 60.2539C78.808 59.8979 78.8001 59.48 78.6199 59.0003L78.0791 57.5612C77.8989 57.0815 77.8833 56.6571 78.0324 56.288L78.4797 55.1808C78.6288 54.8117 78.8334 54.467 79.0936 54.1469L79.8742 53.1863C80.1344 52.8662 80.3148 52.5119 80.4154 52.1236L80.7171 50.9587C80.8176 50.5704 81.0343 50.2384 81.3671 49.9627L82.3654 49.1357C82.6981 48.8601 82.964 48.5539 83.1629 48.2172L83.7596 47.2072C83.9585 46.8705 84.1901 46.553 84.4542 46.2547L85.2467 45.3596C85.5109 45.0613 85.7364 44.7418 85.9232 44.4011L86.4837 43.3792C86.6705 43.0385 86.7528 42.628 86.7305 42.1476L86.6635 40.7063C86.6412 40.2259 86.7553 39.8315 87.0059 39.5229L87.7576 38.5973C88.0081 38.2888 88.295 38.0085 88.6182 37.7563L89.5879 36.9999C89.9111 36.7477 90.1172 36.4066 90.2063 35.9766L90.4733 34.6865C90.5623 34.2565 90.7318 33.8867 90.9816 33.5772L91.7312 32.6487C91.9811 32.3392 92.2569 32.0524 92.5585 31.7883L93.4635 30.9961C93.7651 30.732 94.0663 30.4695 94.3671 30.2085L95.2696 29.4258C95.5704 29.1648 95.8304 28.8648 96.0495 28.5255L96.7069 27.5078C96.9261 27.1686 97.2818 26.9702 97.7741 26.9127L99.251 26.74C99.7433 26.6825 100.027 26.4047 100.103 25.9066L100.332 24.4124C100.408 23.9143 100.671 23.6242 101.122 23.5421L102.474 23.2958C102.925 23.2137 103.258 22.9947 103.475 22.6389L104.124 21.5714C104.34 21.2155 104.63 20.9511 104.994 20.7782L106.086 20.2592C106.45 20.0863 106.738 19.8103 106.95 19.4312L107.588 18.2941C107.801 17.9151 108.076 17.6202 108.413 17.4094L109.425 16.7771C109.763 16.5663 110.138 16.4181 110.553 16.3323L111.796 16.0752C112.211 15.9895 112.572 15.8212 112.88 15.5703L113.805 14.8175C114.113 14.5666 114.428 14.3235 114.749 14.0881L115.712 13.3818C116.032 13.1464 116.408 13.0159 116.839 12.9903L118.131 12.9135C118.562 12.888 118.953 12.7891 119.303 12.617L120.356 12.1008C120.706 11.9287 121.047 11.7322 121.376 11.5112L122.365 10.8482C122.694 10.6272 123.036 10.4304 123.389 10.2579L124.449 9.74049C124.803 9.56801 125.155 9.38982 125.507 9.20592L126.56 8.65423C126.912 8.47033 127.298 8.38729 127.72 8.40511L128.986 8.45856C129.408 8.47638 129.794 8.39223 130.145 8.20613L131.198 7.64782C131.549 7.46172 131.919 7.33523 132.306 7.26836L133.469 7.06775C133.857 7.00087 134.208 6.78558 134.521 6.42188L135.461 5.33075C135.775 4.96704 136.133 4.77546 136.536 4.75602L137.747 4.69767C138.15 4.67822 138.544 4.61667 138.927 4.513L140.078 4.20202C140.462 4.09836 140.869 4.13804 141.3 4.32106L142.591 4.87013C143.022 5.05316 143.414 4.98933 143.768 4.67864L144.829 3.74657C145.182 3.43589 145.569 3.38772 145.989 3.60208L147.249 4.24515C147.668 4.45951 148.069 4.49415 148.45 4.34906L149.592 3.91382C149.973 3.76873 150.361 3.70164 150.755 3.71253L151.937 3.7452C152.33 3.75609 152.723 3.69678 153.114 3.56726L154.289 3.1787C154.68 3.04918 155.073 2.95577 155.468 2.89849L156.652 2.72663C157.047 2.66935 157.441 2.71709 157.834 2.86987L159.014 3.3282C159.407 3.48097 159.801 3.58157 160.194 3.62998L161.374 3.77522C161.767 3.82363 162.066 3.82496 162.271 3.7792L162.886 3.64191C163.091 3.59615 163.194 3.56715 163.194 3.55493V3.51826C163.194 3.50603 163.393 3.40313 163.792 3.20955L164.99 2.62882Z" fill="white"/>
<path d="M164.99 2.62882C165.389 2.43524 165.781 2.46001 166.167 2.70315L167.325 3.43255C167.711 3.67568 168.098 3.83177 168.486 3.90082L169.65 4.10796C170.038 4.17701 170.425 4.25185 170.809 4.33246L171.963 4.57432C172.348 4.65494 172.731 4.7377 173.113 4.8226L174.259 5.07732C174.641 5.16222 175.048 5.0928 175.482 4.86906L176.783 4.19783C177.216 3.97408 177.604 4.01963 177.946 4.33448L178.97 5.27901C179.312 5.59386 179.704 5.66239 180.146 5.48463L181.473 4.95133C181.915 4.77356 182.308 4.81131 182.653 5.06456L183.687 5.82432C184.032 6.07758 184.392 6.2632 184.767 6.38119L185.893 6.73517C186.268 6.85316 186.667 6.89831 187.09 6.87064L188.357 6.78761C188.78 6.75993 189.174 6.82471 189.54 6.98194L190.637 7.45364C191.003 7.61088 191.322 7.8854 191.594 8.2772L192.41 9.45262C192.682 9.84442 192.994 10.1236 193.346 10.2902L194.4 10.7898C194.752 10.9564 195.135 11.0536 195.55 11.0815L196.793 11.1653C197.208 11.1932 197.579 11.3175 197.907 11.5383L198.892 12.2006C199.22 12.4214 199.601 12.5416 200.033 12.5613L201.329 12.6204C201.761 12.6401 202.173 12.7074 202.563 12.8223L203.733 13.1669C204.123 13.2817 204.491 13.4388 204.836 13.6381L205.871 14.2361C206.216 14.4354 206.48 14.7589 206.664 15.2067L207.217 16.55C207.401 16.9977 207.637 17.3557 207.926 17.6239L208.794 18.4285C209.083 18.6967 209.391 18.9358 209.719 19.1459L210.702 19.7763C211.03 19.9864 211.348 20.2096 211.658 20.4458L212.585 21.1545C212.895 21.3908 213.251 21.5706 213.653 21.694L214.862 22.0642C215.265 22.1876 215.635 22.3559 215.971 22.5692L216.98 23.209C217.317 23.4222 217.667 23.6225 218.033 23.8097L219.129 24.3715C219.494 24.5587 219.786 24.8258 220.003 25.1727L220.655 26.2133C220.872 26.5602 221.14 26.8548 221.458 27.0971L222.414 27.824C222.732 28.0663 223.022 28.3368 223.283 28.6355L224.068 29.5316C224.329 29.8304 224.575 30.1425 224.804 30.468L225.492 31.4447C225.722 31.7702 225.95 32.0952 226.178 32.4198L226.86 33.3934C227.087 33.7179 227.301 34.0513 227.503 34.3935L228.108 35.4201C228.309 35.7623 228.601 36.0379 228.984 36.2469L230.132 36.8739C230.515 37.083 230.68 37.4451 230.628 37.9604L230.472 39.5062C230.42 40.0215 230.628 40.1941 231.095 40.024L232.497 39.5138C232.964 39.3437 233.412 39.2475 233.841 39.2252L235.129 39.1585C235.558 39.1362 235.865 38.8667 236.05 38.35L236.604 36.7999C236.789 36.2832 237.11 36.0498 237.566 36.0997L238.937 36.2494C239.394 36.2993 239.776 36.1821 240.084 35.8978L241.008 35.0449C241.315 34.7605 241.66 34.5619 242.04 34.449L243.181 34.1104C243.562 33.9975 243.977 33.9912 244.428 34.0915L245.78 34.3923C246.231 34.4926 246.598 34.3447 246.883 33.9487L247.738 32.7606C248.023 32.3646 248.382 32.2068 248.815 32.2872L250.114 32.5286C250.547 32.609 250.958 32.6268 251.35 32.5818L252.523 32.4468C252.914 32.4018 253.305 32.3631 253.696 32.3305L254.868 32.2328C255.259 32.2003 255.621 32.0173 255.954 31.6839L256.954 30.6838C257.287 30.3504 257.656 30.1975 258.06 30.2249L259.271 30.3073C259.675 30.3348 260.081 30.4008 260.489 30.5055L261.714 30.8195C262.122 30.9242 262.512 30.8847 262.885 30.701L264.002 30.15C264.374 29.9664 264.759 29.9108 265.156 29.9834L266.349 30.201C266.747 30.2736 267.139 30.2918 267.527 30.2556L268.691 30.1472C269.079 30.111 269.466 29.9409 269.853 29.6368L271.014 28.7247C271.401 28.4206 271.792 28.4169 272.186 28.7137L273.371 29.604C273.766 29.9007 274.16 30.0577 274.553 30.0748L275.733 30.126C276.126 30.1431 276.52 30.1439 276.913 30.1284L278.093 30.0818C278.486 30.0663 278.881 29.9078 279.278 29.6064L280.467 28.7022C280.864 28.4008 281.26 28.2831 281.655 28.349L282.841 28.5467C283.236 28.6126 283.627 28.7238 284.014 28.8803L285.174 29.3499C285.56 29.5064 285.947 29.6171 286.335 29.6819L287.497 29.8763C287.884 29.9411 288.279 29.948 288.681 29.8971L289.888 29.7445C290.29 29.6936 290.672 29.7866 291.033 30.0236L292.117 30.7345C292.478 30.9715 292.847 31.1466 293.222 31.2599L294.347 31.5998C294.722 31.7131 295.1 31.8047 295.482 31.8747L296.626 32.0844C297.008 32.1544 297.415 32.1254 297.846 31.9976L299.141 31.6141C299.572 31.4862 299.978 31.4774 300.357 31.5875L301.494 31.918C301.873 32.0281 302.25 32.1431 302.625 32.2629L303.75 32.6224C304.125 32.7423 304.469 32.9546 304.781 33.2596L305.718 34.1743C306.03 34.4792 306.366 34.7036 306.727 34.8474L307.809 35.2787C308.17 35.4225 308.601 35.3934 309.103 35.1914L310.61 34.5855C311.112 34.3836 311.523 34.4144 311.842 34.6779L312.8 35.4686C313.119 35.7321 313.461 35.9421 313.824 36.0986L314.913 36.5681C315.277 36.7246 315.636 36.8907 315.99 37.0663L317.055 37.593C317.41 37.7686 317.711 38.0414 317.959 38.4114L318.701 39.5214C318.949 39.8914 319.314 40.051 319.796 40.0002L321.244 39.8476C321.727 39.7968 322.113 39.915 322.402 40.2024L323.269 41.0646C323.558 41.3519 323.843 41.641 324.124 41.9317L324.965 42.8039C325.246 43.0946 325.599 43.2802 326.023 43.3608L327.298 43.6025C327.723 43.683 328.008 43.9564 328.153 44.4226L328.589 45.8213C328.734 46.2875 329.01 46.5793 329.415 46.6967L330.63 47.0489C331.035 47.1662 331.353 47.3933 331.583 47.7299L332.274 48.7399C332.504 49.0766 332.76 49.3812 333.039 49.6539L333.879 50.4718C334.159 50.7445 334.533 50.9175 335.003 50.991L336.41 51.2114C336.88 51.2849 337.16 51.5554 337.253 52.0228L337.53 53.4253C337.622 53.8928 337.813 54.2584 338.101 54.522L338.968 55.3129C339.257 55.5766 339.625 55.7717 340.072 55.8983L341.413 56.2782C341.861 56.4048 342.08 56.7301 342.072 57.254L342.047 58.8259C342.038 59.3498 342.281 59.6648 342.774 59.7706L344.254 60.0882C344.747 60.1941 345.082 60.4282 345.26 60.7904L345.792 61.877C345.97 62.2392 346.185 62.5729 346.437 62.878L347.193 63.7934C347.446 64.0985 347.64 64.4423 347.778 64.8246L348.19 65.9718C348.327 66.3542 348.442 66.7475 348.534 67.1516L348.809 68.3641C348.901 68.7682 349.118 69.096 349.46 69.3476L350.485 70.1022C350.827 70.3537 351.061 70.6686 351.188 71.0467L351.57 72.181C351.697 72.5591 351.921 72.8868 352.241 73.164L353.201 73.9956C353.521 74.2728 353.745 74.6 353.871 74.9773L354.252 76.1091C354.379 76.4864 354.484 76.8718 354.567 77.2655L354.815 78.4465C354.897 78.8402 354.947 79.2443 354.963 79.6589L355.013 80.9025C355.029 81.3171 355.155 81.688 355.391 82.0152L356.097 82.997C356.333 83.3242 356.633 83.6331 356.999 83.9236L358.095 84.7952C358.461 85.0857 358.604 85.4503 358.525 85.889L358.289 87.2052C358.21 87.6439 358.203 88.0576 358.267 88.4463L358.459 89.6122C358.523 90.0008 358.556 90.3953 358.56 90.7955L358.571 91.9963C358.574 92.3966 358.651 92.7796 358.802 93.1452L359.253 94.2422C359.404 94.6079 359.563 94.9736 359.73 95.3395L360.233 96.437C360.401 96.8029 360.488 97.1839 360.494 97.5801L360.514 98.7688C360.521 99.165 360.582 99.5531 360.698 99.933L361.046 101.073C361.162 101.453 361.237 101.838 361.271 102.23L361.373 103.404C361.407 103.796 361.484 104.185 361.604 104.571L361.963 105.731C362.083 106.118 362.215 106.507 362.359 106.898L362.79 108.07C362.934 108.461 362.883 108.856 362.636 109.256L361.894 110.457C361.647 110.857 361.64 111.254 361.872 111.648L362.568 112.828C362.8 113.221 362.919 113.615 362.925 114.008L362.941 115.188C362.946 115.581 362.903 115.9 362.81 116.143L362.533 116.873C362.44 117.116 362.548 117.417 362.855 117.777L363.776 118.856C364.083 119.216 364.424 119.447 364.8 119.549L365.926 119.857C366.302 119.959 366.666 120.096 367.018 120.268L368.073 120.783C368.425 120.955 368.795 121.075 369.184 121.145L370.352 121.352C370.742 121.421 371.143 121.468 371.556 121.492L372.795 121.565C373.208 121.589 373.62 121.624 374.032 121.668L375.268 121.802C375.68 121.847 376.01 122.068 376.257 122.466L376.999 123.66C377.246 124.058 377.559 124.317 377.936 124.437L379.069 124.797C379.446 124.917 379.818 125.05 380.185 125.196L381.286 125.636C381.653 125.782 382.046 125.888 382.464 125.953L383.72 126.15C384.139 126.216 384.489 126.397 384.772 126.693L385.618 127.583C385.901 127.88 386.247 128.076 386.658 128.172L387.891 128.461C388.302 128.557 388.634 128.77 388.887 129.101L389.647 130.091C389.901 130.422 390.206 130.678 390.563 130.861L391.633 131.411C391.99 131.594 392.269 131.877 392.47 132.259L393.074 133.407C393.276 133.79 393.497 134.141 393.739 134.461L394.464 135.422C394.706 135.743 395.09 135.902 395.615 135.9L397.19 135.895C397.715 135.894 398.016 136.142 398.093 136.639L398.324 138.133C398.401 138.63 398.643 138.952 399.05 139.097L400.272 139.532C400.679 139.677 400.995 139.916 401.218 140.249L401.888 141.246C402.111 141.579 402.327 141.916 402.535 142.257L403.158 143.281C403.366 143.622 403.641 143.905 403.982 144.129L405.004 144.802C405.345 145.026 405.644 145.287 405.903 145.585L406.677 146.48C406.935 146.778 407.182 147.086 407.417 147.402L408.124 148.351C408.359 148.667 408.575 148.998 408.772 149.341L409.363 150.372C409.56 150.716 409.748 151.064 409.929 151.416L410.47 152.473C410.65 152.825 410.883 153.142 411.169 153.425L412.026 154.274C412.311 154.557 412.538 154.877 412.706 155.235L413.211 156.31C413.379 156.668 413.634 156.978 413.974 157.238L414.994 158.02C415.334 158.281 415.558 158.607 415.664 159L415.981 160.177C416.087 160.57 416.133 160.989 416.118 161.435L416.075 162.771C416.06 163.217 416.185 163.593 416.451 163.901L417.246 164.823C417.511 165.13 417.717 165.466 417.863 165.829L418.302 166.92C418.448 167.283 418.569 167.656 418.664 168.039L418.95 169.188C419.046 169.571 419.275 169.905 419.638 170.192L420.727 171.05C421.09 171.336 421.342 171.665 421.484 172.036L421.909 173.15C422.051 173.521 422.055 173.933 421.922 174.385L421.524 175.742C421.391 176.194 421.502 176.576 421.859 176.886L422.928 177.819C423.284 178.13 423.476 178.486 423.505 178.887L423.59 180.09C423.619 180.491 423.554 180.909 423.395 181.344L422.918 182.65C422.759 183.086 422.736 183.491 422.849 183.866L423.187 184.992C423.3 185.368 423.497 185.732 423.777 186.085L424.617 187.145C424.897 187.498 425.034 187.874 425.027 188.274L425.008 189.472C425.002 189.871 425.023 190.267 425.072 190.659L425.219 191.835C425.268 192.227 425.223 192.625 425.084 193.028L424.668 194.237C424.529 194.641 424.433 195.038 424.381 195.43L424.224 196.606C424.172 196.998 424.265 197.388 424.505 197.775L425.223 198.937C425.462 199.324 425.557 199.716 425.509 200.11L425.363 201.295C425.314 201.69 425.361 202.087 425.503 202.487L425.928 203.687C426.069 204.087 426.132 204.486 426.115 204.884L426.064 206.079C426.048 206.477 425.952 206.867 425.779 207.248L425.258 208.391C425.085 208.772 424.961 209.157 424.888 209.545L424.667 210.71C424.594 211.098 424.432 211.471 424.181 211.828L423.429 212.901C423.178 213.258 423.174 213.658 423.416 214.099L424.142 215.422C424.384 215.864 424.397 216.263 424.179 216.621L423.527 217.696C423.31 218.054 423.204 218.436 423.208 218.842L423.221 220.059C423.225 220.464 423.198 220.864 423.14 221.259L422.965 222.442C422.907 222.837 422.742 223.2 422.472 223.531L421.66 224.523C421.389 224.854 421.287 225.238 421.355 225.676L421.557 226.989C421.625 227.426 421.531 227.81 421.276 228.139L420.51 229.125C420.255 229.454 419.984 229.773 419.698 230.082L418.838 231.01C418.552 231.319 418.329 231.652 418.171 232.008L417.695 233.075C417.536 233.431 417.357 233.777 417.157 234.113L416.559 235.122C416.359 235.458 416.202 235.815 416.087 236.192L415.743 237.324C415.629 237.701 415.561 238.106 415.541 238.538L415.479 239.834C415.459 240.266 415.336 240.645 415.11 240.971L414.432 241.949C414.206 242.275 414.055 242.646 413.979 243.062L413.752 244.31C413.677 244.726 413.533 245.102 413.322 245.44L412.687 246.452C412.476 246.79 412.108 247.018 411.582 247.138L410.007 247.497C409.481 247.617 409.172 247.884 409.08 248.297L408.801 249.538C408.708 249.951 408.597 250.356 408.466 250.752L408.075 251.94C407.944 252.337 407.718 252.659 407.397 252.907L406.432 253.652C406.111 253.901 405.762 254.121 405.384 254.314L404.251 254.893C403.874 255.086 403.668 255.432 403.636 255.931L403.537 257.43C403.504 257.929 403.318 258.291 402.978 258.515L401.96 259.188C401.62 259.412 401.303 259.656 401.009 259.92L400.126 260.713C399.832 260.977 399.521 261.222 399.193 261.448L398.208 262.126C397.88 262.352 397.619 262.654 397.426 263.03L396.846 264.161C396.653 264.537 396.338 264.774 395.903 264.87L394.599 265.157C394.164 265.253 393.81 265.445 393.537 265.731L392.717 266.59C392.444 266.877 392.148 267.135 391.831 267.367L390.878 268.06C390.56 268.292 390.209 268.475 389.826 268.61L388.674 269.015C388.29 269.151 388.016 269.449 387.851 269.911L387.357 271.296C387.193 271.758 386.889 272.008 386.447 272.047L385.119 272.163C384.677 272.202 384.265 272.284 383.885 272.408L382.744 272.781C382.363 272.905 382.007 273.07 381.675 273.277L380.68 273.895C380.349 274.102 380.012 274.3 379.671 274.49L378.649 275.061C378.308 275.251 377.986 275.485 377.684 275.761L376.778 276.59C376.476 276.866 376.109 277 375.676 276.991L374.377 276.966C373.944 276.957 373.568 277.077 373.249 277.326L372.292 278.071C371.973 278.32 371.633 278.521 371.272 278.674L370.189 279.134C369.827 279.288 369.467 279.443 369.106 279.6L368.025 280.071C367.665 280.228 367.276 280.295 366.858 280.272L365.604 280.205C365.186 280.182 364.796 280.244 364.434 280.392L363.348 280.835C362.986 280.983 362.642 281.211 362.316 281.518L361.339 282.442C361.013 282.75 360.651 282.921 360.254 282.956L359.062 283.062C358.665 283.097 358.273 283.156 357.888 283.239L356.732 283.488C356.347 283.571 355.967 283.694 355.593 283.855L354.471 284.341C354.097 284.502 353.706 284.553 353.298 284.493L352.075 284.313C351.668 284.252 351.258 284.152 350.848 284.012L349.615 283.592C349.204 283.452 348.809 283.448 348.43 283.579L347.293 283.971C346.914 284.102 346.529 284.192 346.139 284.24L344.969 284.385C344.579 284.434 344.188 284.458 343.796 284.457L342.622 284.455C342.231 284.454 341.838 284.408 341.445 284.316L340.266 284.04C339.873 283.948 339.479 284.052 339.086 284.352L337.906 285.251C337.513 285.551 337.119 285.556 336.726 285.266L335.546 284.397C335.153 284.107 334.759 284.109 334.366 284.403L333.186 285.285C332.793 285.579 332.399 285.635 332.006 285.453L330.826 284.907C330.433 284.725 330.039 284.706 329.646 284.85L328.466 285.282C328.073 285.425 327.679 285.412 327.286 285.24L326.106 284.726C325.713 284.554 325.319 284.461 324.926 284.446L323.746 284.4C323.353 284.385 322.959 284.443 322.566 284.576L321.386 284.974C320.993 285.107 320.599 285.202 320.206 285.261L319.026 285.437C318.633 285.495 318.239 285.555 317.846 285.617L316.666 285.801C316.273 285.863 315.879 285.799 315.486 285.609L314.306 285.038C313.913 284.848 313.519 284.707 313.126 284.616L311.946 284.342C311.553 284.25 311.159 284.23 310.766 284.279L309.586 284.428C309.193 284.477 308.799 284.565 308.406 284.691L307.226 285.07C306.833 285.197 306.439 285.17 306.046 284.991L304.866 284.454C304.473 284.275 304.079 284.263 303.686 284.418L302.506 284.884C302.113 285.04 301.719 285.189 301.326 285.332L300.146 285.762C299.753 285.906 299.359 285.876 298.966 285.673L297.786 285.064C297.393 284.861 296.999 284.752 296.606 284.736L295.426 284.687C295.033 284.67 294.639 284.683 294.246 284.725L293.066 284.851C292.673 284.893 292.279 284.887 291.886 284.834L290.706 284.672C290.313 284.619 289.919 284.585 289.526 284.573L288.346 284.535C287.953 284.522 287.559 284.467 287.166 284.369L285.986 284.076C285.593 283.978 285.199 283.911 284.806 283.875L283.626 283.766C283.233 283.729 282.839 283.888 282.446 284.243L281.266 285.307C280.873 285.662 280.479 285.826 280.086 285.799L278.906 285.72C278.513 285.693 278.119 285.642 277.726 285.566L276.546 285.34C276.153 285.265 275.759 285.184 275.366 285.098L274.186 284.841C273.793 284.756 273.399 284.82 273.006 285.033L271.826 285.672C271.433 285.885 271.039 285.8 270.646 285.417L269.466 284.268C269.073 283.885 268.679 283.801 268.286 284.015L267.106 284.658C266.713 284.872 266.319 285.046 265.926 285.179L264.746 285.58C264.353 285.713 263.959 285.718 263.566 285.593L262.386 285.22C261.993 285.095 261.599 284.967 261.206 284.835L260.026 284.439C259.633 284.307 259.239 284.261 258.846 284.301L257.666 284.419C257.273 284.459 256.879 284.488 256.486 284.508L255.306 284.566C254.913 284.586 254.519 284.552 254.126 284.466L252.946 284.206C252.553 284.12 252.159 284.176 251.766 284.374L250.586 284.97C250.193 285.168 249.799 285.133 249.406 284.864L248.226 284.056C247.833 283.787 247.439 283.753 247.046 283.956L245.866 284.562C245.473 284.764 245.079 284.919 244.686 285.027L243.506 285.35C243.113 285.457 242.719 285.419 242.326 285.233L241.146 284.677C240.753 284.491 240.359 284.366 239.966 284.3L238.786 284.104C238.393 284.039 237.999 283.982 237.606 283.933L236.426 283.788C236.033 283.739 235.639 283.8 235.246 283.971L234.066 284.483C233.673 284.654 233.279 284.739 232.886 284.738L231.706 284.734C231.313 284.732 230.919 284.793 230.526 284.917L229.346 285.287C228.953 285.411 228.559 285.363 228.166 285.143L226.986 284.482C226.593 284.262 226.199 284.123 225.806 284.065L224.626 283.889C224.233 283.83 223.839 283.938 223.446 284.213L222.266 285.035C221.873 285.31 221.479 285.407 221.086 285.327L219.906 285.086C219.513 285.006 219.119 284.912 218.726 284.803L217.546 284.476C217.153 284.367 216.759 284.381 216.366 284.517L215.186 284.924C214.793 285.06 214.399 285.111 214.006 285.077L212.826 284.975C212.433 284.941 212.039 284.891 211.646 284.826L210.466 284.63C210.073 284.565 209.679 284.587 209.286 284.697L208.106 285.026C207.713 285.136 207.319 285.172 206.926 285.134L205.746 285.021C205.353 284.983 204.959 284.863 204.566 284.66L203.386 284.052C202.993 283.849 202.599 283.925 202.206 284.278L201.026 285.339C200.633 285.693 200.239 285.787 199.846 285.62L198.666 285.119C198.273 284.952 197.879 284.889 197.486 284.931L196.306 285.056C195.913 285.098 195.519 285.143 195.126 285.192L193.946 285.339C193.553 285.388 193.159 285.455 192.766 285.539L191.586 285.793C191.193 285.877 190.799 285.807 190.406 285.582L189.226 284.907C188.833 284.683 188.439 284.527 188.046 284.44L186.866 284.178C186.473 284.091 186.079 284.101 185.686 284.207L184.506 284.525C184.113 284.631 183.719 284.698 183.326 284.727L182.146 284.812C181.753 284.84 181.359 284.931 180.966 285.085L179.786 285.548C179.393 285.702 178.999 285.615 178.606 285.287L177.426 284.303C177.033 283.974 176.639 283.911 176.246 284.112L175.066 284.716C174.673 284.917 174.279 285.101 173.886 285.267L172.706 285.764C172.313 285.93 171.919 285.818 171.526 285.429L170.346 284.26C169.953 283.871 169.559 283.746 169.166 283.887L167.986 284.308C167.593 284.449 167.199 284.503 166.806 284.473L165.626 284.381C165.233 284.35 164.839 284.41 164.446 284.559L163.266 285.006C162.873 285.155 162.479 285.29 162.086 285.409L160.906 285.768C160.513 285.887 160.119 285.897 159.726 285.797L158.546 285.498C158.153 285.398 157.759 285.355 157.366 285.369L156.186 285.411C155.793 285.425 155.399 285.425 155.006 285.412L153.826 285.371C153.433 285.357 153.039 285.266 152.646 285.097L151.466 284.589C151.073 284.42 150.679 284.425 150.286 284.605L149.106 285.144C148.713 285.324 148.319 285.309 147.926 285.099L146.746 284.471C146.353 284.262 145.959 284.159 145.566 284.163L144.386 284.177C143.993 284.181 143.599 284.155 143.206 284.097L142.026 283.926C141.633 283.869 141.239 283.843 140.846 283.848L139.666 283.864C139.273 283.869 138.879 283.882 138.486 283.902L137.306 283.963C136.913 283.983 136.519 284.153 136.126 284.472L134.946 285.432C134.553 285.751 134.159 285.846 133.766 285.716L132.586 285.325C132.193 285.195 131.799 285.106 131.406 285.059L130.226 284.917C129.833 284.869 129.439 284.763 129.046 284.598L127.866 284.103C127.473 283.938 127.079 283.904 126.686 284L125.506 284.29C125.113 284.386 124.719 284.486 124.326 284.591L123.146 284.903C122.753 285.008 122.359 285.067 121.966 285.081L120.786 285.124C120.393 285.138 119.999 285.111 119.606 285.042L118.426 284.835C118.033 284.766 117.639 284.814 117.246 284.979L116.066 285.473C115.673 285.638 115.279 285.713 114.886 285.699L113.706 285.655C113.313 285.641 112.919 285.626 112.526 285.61L111.346 285.563C110.953 285.548 110.559 285.538 110.166 285.536L108.986 285.527C108.593 285.525 108.199 285.505 107.806 285.467L106.626 285.356C106.233 285.319 105.839 285.164 105.446 284.891L104.266 284.072C103.873 283.799 103.479 283.668 103.086 283.68L101.906 283.716C101.513 283.728 101.119 283.795 100.726 283.917L99.5462 284.284C99.1529 284.406 98.7558 284.575 98.355 284.79L97.1525 285.436C96.7517 285.652 96.3639 285.585 95.9891 285.235L94.8648 284.188C94.49 283.838 94.1039 283.701 93.7064 283.776L92.5141 284.001C92.1167 284.076 91.7312 284.026 91.3576 283.853L90.2367 283.331C89.8631 283.157 89.4775 283.089 89.0798 283.126L87.8866 283.237C87.4889 283.274 87.1051 283.216 86.7352 283.062L85.6257 282.603C85.2558 282.45 84.8773 282.352 84.4901 282.308L83.3285 282.178C82.9413 282.134 82.5425 282.133 82.132 282.174L80.9006 282.299C80.4901 282.34 80.0763 282.38 79.6593 282.417L78.4082 282.53C77.9912 282.568 77.6312 282.402 77.3283 282.033L76.4195 280.925C76.1166 280.555 75.7761 280.322 75.398 280.226L74.2639 279.936C73.8858 279.84 73.4942 279.779 73.0891 279.754L71.8737 279.678C71.4686 279.653 71.0452 279.665 70.6034 279.713L69.2782 279.857C68.8364 279.906 68.4914 279.714 68.2429 279.283L67.4977 277.989C67.2493 277.558 66.9219 277.317 66.5153 277.267L65.2957 277.117C64.8892 277.067 64.5377 276.898 64.2414 276.611L63.3524 275.749C63.056 275.462 62.7434 275.212 62.4146 275.001L61.428 274.367C61.0991 274.156 60.7694 273.948 60.439 273.743L59.4477 273.128C59.1173 272.923 58.7482 272.783 58.3405 272.707L57.1175 272.481C56.7098 272.406 56.3764 272.208 56.1174 271.886L55.3404 270.92C55.0814 270.598 54.76 270.374 54.3762 270.248L53.2249 269.869C52.8411 269.743 52.4629 269.604 52.0904 269.451L50.9728 268.994C50.6002 268.841 50.2308 268.68 49.8645 268.511L48.7656 268.004C48.3993 267.835 48.0628 267.625 47.7561 267.375L46.836 266.624C46.5294 266.373 46.2914 266.043 46.122 265.633L45.614 264.403C45.4447 263.993 45.1585 263.72 44.7555 263.583L43.5466 263.174C43.1437 263.037 42.7718 262.862 42.431 262.647L41.4086 262.002C41.0678 261.788 40.7307 261.566 40.3973 261.337L39.3972 260.652C39.0638 260.424 38.7947 260.133 38.5897 259.779L37.9748 258.717C37.7698 258.363 37.5987 257.983 37.4616 257.576L37.0502 256.355C36.913 255.948 36.6496 255.653 36.26 255.468L35.091 254.914C34.7014 254.73 34.4834 254.403 34.4371 253.936L34.2983 252.533C34.252 252.065 34.1195 251.67 33.9007 251.348L33.2443 250.382C33.0254 250.06 32.6483 249.85 32.1127 249.751L30.5061 249.455C29.9706 249.357 29.6775 249.085 29.6269 248.641L29.4751 247.307C29.4245 246.862 29.338 246.447 29.2156 246.06L28.8485 244.9C28.7261 244.514 28.4448 244.223 28.0044 244.028L26.6834 243.445C26.2431 243.251 26.0698 242.901 26.1636 242.396L26.4449 240.881C26.5387 240.377 26.502 239.949 26.3349 239.598L25.8333 238.546C25.6661 238.195 25.4792 237.854 25.2727 237.523L24.6531 236.528C24.4465 236.196 24.2226 235.871 23.9813 235.552L23.2573 234.597C23.016 234.278 22.8203 233.938 22.6703 233.576L22.2204 232.491C22.0704 232.129 21.8518 231.793 21.5646 231.483L20.7029 230.553C20.4157 230.243 20.243 229.889 20.1849 229.49L20.0103 228.295C19.9522 227.897 19.9352 227.487 19.9593 227.067L20.0319 225.805C20.0561 225.385 19.9944 224.993 19.8468 224.631L19.4042 223.545C19.2567 223.182 19.1521 222.808 19.0904 222.42L18.9056 221.258C18.8439 220.871 18.7081 220.501 18.498 220.15L17.8678 219.097C17.6578 218.746 17.4952 218.381 17.3801 218.004L17.0348 216.871C16.9196 216.493 16.9223 216.095 17.0426 215.676L17.4035 214.42C17.5238 214.001 17.4013 213.621 17.036 213.28L15.9402 212.256C15.5749 211.915 15.4714 211.536 15.6298 211.119L16.1049 209.869C16.2632 209.452 16.264 209.054 16.1074 208.675L15.6373 207.538C15.4806 207.159 15.4689 206.768 15.6021 206.366L16.0015 205.158C16.1347 204.755 16.0405 204.363 15.719 203.983L14.7543 202.841C14.4327 202.46 14.4162 202.07 14.7047 201.671L15.5702 200.474C15.8587 200.075 15.886 199.676 15.6521 199.279L14.9503 198.087C14.7164 197.689 14.6115 197.292 14.6358 196.896L14.7085 195.709C14.7327 195.313 14.7462 194.916 14.7491 194.519L14.7576 193.327C14.7604 192.93 14.9031 192.547 15.1856 192.178L16.0331 191.072C16.3156 190.703 16.3679 190.309 16.1901 189.89L15.6566 188.634C15.4787 188.215 15.3996 187.806 15.4193 187.407L15.4784 186.211C15.4981 185.813 15.5937 185.427 15.7652 185.055L16.2797 183.938C16.4512 183.566 16.6251 183.197 16.8013 182.832L17.33 181.737C17.5062 181.372 17.583 180.984 17.5602 180.573L17.4919 179.342C17.4691 178.931 17.6009 178.561 17.8873 178.231L18.7463 177.241C19.0327 176.911 19.2662 176.57 19.4469 176.217L19.9889 175.161C20.1696 174.808 20.172 174.396 19.9962 173.925L19.4687 172.509C19.2929 172.037 19.3585 171.647 19.6656 171.338L20.5869 170.412C20.894 170.104 21.0247 169.728 20.979 169.285L20.8419 167.957C20.7962 167.515 20.8606 167.115 21.035 166.757L21.5582 165.684C21.7326 165.327 22.0446 165.035 22.4941 164.81L23.8428 164.133C24.2923 163.907 24.5795 163.608 24.7043 163.236L25.0788 162.118C25.2037 161.746 25.3441 161.38 25.5001 161.021L25.9682 159.943C26.1242 159.584 26.2954 159.233 26.4818 158.889L27.0408 157.858C27.2272 157.514 27.3933 157.157 27.5391 156.787L27.9766 155.677C28.1224 155.308 28.2354 154.914 28.3155 154.495L28.5558 153.241C28.6359 152.823 28.8435 152.489 29.1785 152.239L30.1835 151.489C30.5185 151.239 30.7837 150.941 30.9792 150.596L31.5655 149.56C31.7609 149.215 32.0633 148.953 32.4725 148.773L33.7002 148.233C34.1094 148.053 34.4 147.782 34.572 147.419L35.0879 146.331C35.2598 145.968 35.4184 145.589 35.5635 145.195L35.9987 144.013C36.1438 143.619 36.3324 143.26 36.5646 142.935L37.2611 141.962C37.4932 141.638 37.8069 141.392 38.2021 141.225L39.3878 140.723C39.783 140.556 40.0376 140.248 40.1515 139.8L40.4932 138.457C40.6071 138.01 40.8146 137.655 41.1157 137.394L42.019 136.609C42.3201 136.348 42.7281 136.212 43.243 136.2L44.7877 136.165C45.3026 136.154 45.6545 135.956 45.8433 135.571L46.4097 134.416C46.5985 134.031 46.885 133.766 47.2691 133.619L48.4213 133.18C48.8054 133.034 49.1106 132.784 49.3368 132.43L50.0156 131.37C50.2418 131.016 50.4914 130.689 50.7644 130.389L51.5834 129.488C51.8564 129.188 52.2265 129.035 52.6938 129.028L54.0958 129.007C54.5631 129 54.9585 128.887 55.2819 128.668L56.2521 128.011C56.5756 127.791 56.8865 127.549 57.1849 127.283L58.08 126.486C58.3784 126.22 58.6977 125.989 59.0377 125.792L60.0579 125.202C60.398 125.005 60.7202 124.772 61.0245 124.501L61.9375 123.688C62.2418 123.417 62.597 123.249 63.0029 123.184L64.2207 122.988C64.6267 122.923 64.9923 122.772 65.3175 122.534L66.2931 121.821C66.6184 121.583 66.9836 121.44 67.3888 121.391L68.6044 121.245C69.0097 121.196 69.3585 121 69.651 120.656L70.5286 119.625C70.8211 119.282 71.2111 119.213 71.6985 119.419L73.1606 120.037C73.648 120.243 74.0494 120.197 74.365 119.899L75.3118 119.005C75.6274 118.707 75.9119 118.476 76.1651 118.312L76.9247 117.82C77.1779 117.656 77.2217 117.393 77.0561 117.031L76.5593 115.944C76.3936 115.582 76.3529 115.186 76.4369 114.758L76.6891 113.473C76.7731 113.044 76.6857 112.659 76.4267 112.317L75.6499 111.291C75.391 110.948 75.2952 110.57 75.3626 110.156L75.5647 108.912C75.632 108.498 75.5849 108.106 75.4232 107.736L74.9382 106.627C74.7765 106.258 74.577 105.89 74.3395 105.525L73.6272 104.428C73.3898 104.063 73.2586 103.681 73.2337 103.283L73.1591 102.089C73.1343 101.691 73.2277 101.285 73.4394 100.871L74.0746 99.6284C74.2864 99.2143 74.3704 98.8126 74.3266 98.4234L74.1954 97.2558C74.1517 96.8666 74.0042 96.4782 73.7529 96.0906L72.9992 94.928C72.748 94.5404 72.6584 94.1486 72.7303 93.7526L72.9462 92.5646C73.0181 92.1686 73.0876 91.7739 73.1545 91.3806L73.3555 90.2006C73.4225 89.8073 73.4917 89.4139 73.5633 89.0206L73.7781 87.8406C73.8496 87.4473 73.9319 87.0542 74.0249 86.6613L74.3038 85.4827C74.3967 85.0898 74.4587 84.6989 74.4898 84.3099L74.5831 83.1428C74.6141 82.7537 74.4908 82.3555 74.2132 81.9481L73.3802 80.726C73.1025 80.3186 72.9933 79.9182 73.0526 79.5248L73.2305 78.3447C73.2898 77.9513 73.3954 77.564 73.5473 77.1827L74.0028 76.0389C74.1546 75.6576 74.2552 75.2721 74.3044 74.8823L74.452 73.7129C74.5013 73.3231 74.5473 72.9318 74.5901 72.5391L74.7185 71.3607C74.7614 70.9679 74.7531 70.5641 74.6939 70.1492L74.5161 68.9044C74.4569 68.4894 74.4909 68.0924 74.6183 67.7133L75.0004 66.576C75.1278 66.1969 75.3447 65.8434 75.6511 65.5154L76.5704 64.5316C76.8768 64.2037 77.1028 63.8577 77.2484 63.4937L77.6851 62.4018C77.8307 62.0378 77.9857 61.6778 78.1501 61.3218L78.6435 60.2539C78.808 59.8979 78.8001 59.48 78.6199 59.0003L78.0791 57.5612C77.8989 57.0815 77.8833 56.6571 78.0324 56.288L78.4797 55.1808C78.6288 54.8117 78.8334 54.467 79.0936 54.1469L79.8742 53.1863C80.1344 52.8662 80.3148 52.5119 80.4154 52.1236L80.7171 50.9587C80.8176 50.5704 81.0343 50.2384 81.3671 49.9627L82.3654 49.1357C82.6981 48.8601 82.964 48.5539 83.1629 48.2172L83.7596 47.2072C83.9585 46.8705 84.1901 46.553 84.4542 46.2547L85.2467 45.3596C85.5109 45.0613 85.7364 44.7418 85.9232 44.4011L86.4837 43.3792C86.6705 43.0385 86.7528 42.628 86.7305 42.1476L86.6635 40.7063C86.6412 40.2259 86.7553 39.8315 87.0059 39.5229L87.7576 38.5973C88.0081 38.2888 88.295 38.0085 88.6182 37.7563L89.5879 36.9999C89.9111 36.7477 90.1172 36.4066 90.2063 35.9766L90.4733 34.6865C90.5623 34.2565 90.7318 33.8867 90.9816 33.5772L91.7312 32.6487C91.9811 32.3392 92.2569 32.0524 92.5585 31.7883L93.4635 30.9961C93.7651 30.732 94.0663 30.4695 94.3671 30.2085L95.2696 29.4258C95.5704 29.1648 95.8304 28.8648 96.0495 28.5255L96.7069 27.5078C96.9261 27.1686 97.2818 26.9702 97.7741 26.9127L99.251 26.74C99.7433 26.6825 100.027 26.4047 100.103 25.9066L100.332 24.4124C100.408 23.9143 100.671 23.6242 101.122 23.5421L102.474 23.2958C102.925 23.2137 103.258 22.9947 103.475 22.6389L104.124 21.5714C104.34 21.2155 104.63 20.9511 104.994 20.7782L106.086 20.2592C106.45 20.0863 106.738 19.8103 106.95 19.4312L107.588 18.2941C107.801 17.9151 108.076 17.6202 108.413 17.4094L109.425 16.7771C109.763 16.5663 110.138 16.4181 110.553 16.3323L111.796 16.0752C112.211 15.9895 112.572 15.8212 112.88 15.5703L113.805 14.8175C114.113 14.5666 114.428 14.3235 114.749 14.0881L115.712 13.3818C116.032 13.1464 116.408 13.0159 116.839 12.9903L118.131 12.9135C118.562 12.888 118.953 12.7891 119.303 12.617L120.356 12.1008C120.706 11.9287 121.047 11.7322 121.376 11.5112L122.365 10.8482C122.694 10.6272 123.036 10.4304 123.389 10.2579L124.449 9.74049C124.803 9.56801 125.155 9.38982 125.507 9.20592L126.56 8.65423C126.912 8.47033 127.298 8.38729 127.72 8.40511L128.986 8.45856C129.408 8.47638 129.794 8.39223 130.145 8.20613L131.198 7.64782C131.549 7.46172 131.919 7.33523 132.306 7.26836L133.469 7.06775C133.857 7.00087 134.208 6.78558 134.521 6.42188L135.461 5.33075C135.775 4.96704 136.133 4.77546 136.536 4.75602L137.747 4.69767C138.15 4.67822 138.544 4.61667 138.927 4.513L140.078 4.20202C140.462 4.09836 140.869 4.13804 141.3 4.32106L142.591 4.87013C143.022 5.05316 143.414 4.98933 143.768 4.67864L144.829 3.74657C145.182 3.43589 145.569 3.38772 145.989 3.60208L147.249 4.24515C147.668 4.45951 148.069 4.49415 148.45 4.34906L149.592 3.91382C149.973 3.76873 150.361 3.70164 150.755 3.71253L151.937 3.7452C152.33 3.75609 152.723 3.69678 153.114 3.56726L154.289 3.1787C154.68 3.04918 155.073 2.95577 155.468 2.89849L156.652 2.72663C157.047 2.66935 157.441 2.71709 157.834 2.86987L159.014 3.3282C159.407 3.48097 159.801 3.58157 160.194 3.62998L161.374 3.77522C161.767 3.82363 162.066 3.82496 162.271 3.7792L162.886 3.64191C163.091 3.59615 163.194 3.56715 163.194 3.55493V3.51826C163.194 3.50603 163.393 3.40313 163.792 3.20955L164.99 2.62882Z" stroke="white" stroke-width="5"/>
</g>
<defs>
<filter id="filter0_d_3_41" x="0" y="0" width="428.618" height="300.365" filterUnits="userSpaceOnUse" color-interpolation-filters="sRGB">
<feFlood flood-opacity="0" result="BackgroundImageFix"/>
<feColorMatrix in="SourceAlpha" type="matrix" values="0 0 0 0 0 0 0 0 0 0 0 0 0 0 0 0 0 0 127 0" result="hardAlpha"/>
<feOffset dx="-8" dy="8"/>
<feGaussianBlur stdDeviation="2"/>
<feComposite in2="hardAlpha" operator="out"/>
<feColorMatrix type="matrix" values="0 0 0 0 0 0 0 0 0 0 0 0 0 0 0 0 0 0 0.1 0"/>
<feBlend mode="normal" in2="BackgroundImageFix" result="effect1_dropShadow_3_41"/>
<feBlend mode="normal" in="SourceGraphic" in2="effect1_dropShadow_3_41" result="shape"/>
</filter>
</defs>
</svg>
