<svg width="302" height="211" viewBox="0 0 302 211" fill="none" xmlns="http://www.w3.org/2000/svg">
<path d="M108.484 2.62536C108.885 2.43365 109.277 2.46204 109.66 2.71053L110.81 3.456C111.193 3.70449 111.578 3.86773 111.964 3.94573L113.121 4.17972C113.507 4.25771 113.891 4.34322 114.271 4.43623L115.414 4.71528C115.795 4.80829 116.174 4.90514 116.551 5.00583L117.681 5.3079C118.057 5.40858 118.468 5.35842 118.912 5.15739L120.246 4.55431C120.691 4.35328 121.074 4.42036 121.396 4.75554L122.362 5.76107C122.684 6.09625 123.072 6.19085 123.526 6.04485L124.888 5.60688C125.342 5.46089 125.731 5.52802 126.055 5.80829L127.027 6.64908C127.351 6.92934 127.695 7.145 128.058 7.29606L129.148 7.74924C129.511 7.9003 129.904 7.98307 130.328 7.99755L131.6 8.04098C132.023 8.05545 132.409 8.16085 132.757 8.35718L133.8 8.94614C134.148 9.14247 134.434 9.45106 134.658 9.87192L135.33 11.1345C135.554 11.5554 135.829 11.8702 136.155 12.0791L137.134 12.7057C137.46 12.9146 137.826 13.0607 138.232 13.144L139.451 13.394C139.857 13.4773 140.206 13.6518 140.498 13.9174L141.375 14.7141C141.668 14.9797 142.026 15.1555 142.45 15.2413L143.722 15.4988C144.146 15.5847 144.541 15.7164 144.908 15.8939L146.01 16.4265C146.377 16.604 146.714 16.8211 147.021 17.0777L147.941 17.8476C148.248 18.1042 148.452 18.4695 148.552 18.9433L148.854 20.3649C148.954 20.8387 149.12 21.2343 149.352 21.5516L150.049 22.5034C150.281 22.8207 150.536 23.1144 150.815 23.3844L151.65 24.1943C151.929 24.4643 152.194 24.7465 152.447 25.0408L153.204 25.9236C153.457 26.2179 153.766 26.4687 154.132 26.676L155.231 27.2978C155.597 27.5051 155.92 27.7508 156.199 28.0348L157.039 28.8869C157.318 29.1709 157.505 29.3928 157.597 29.5526L157.875 30.0318C157.968 30.1916 158.211 30.2141 158.605 30.0994L159.788 29.7554C160.182 29.6407 160.54 29.4647 160.864 29.2274L161.833 28.5155C162.157 28.2782 162.5 28.0779 162.863 27.9146L163.952 27.4247C164.315 27.2614 164.687 27.1192 165.067 26.9981L166.208 26.6349C166.589 26.5138 166.969 26.3956 167.348 26.2801L168.487 25.9337C168.866 25.8182 169.25 25.7197 169.639 25.6382L170.806 25.3936C171.194 25.312 171.551 25.1248 171.875 24.832L172.847 23.9535C173.171 23.6607 173.567 23.6259 174.034 23.8492L175.436 24.5191C175.903 24.7425 176.31 24.7376 176.657 24.5047L177.697 23.806C178.043 23.5731 178.424 23.5092 178.84 23.6143L180.087 23.9295C180.503 24.0345 180.877 23.8688 181.21 23.4324L182.207 22.1232C182.54 21.6868 182.916 21.5634 183.335 21.7531L184.592 22.3221C185.011 22.5118 185.412 22.5213 185.795 22.3505L186.944 21.8382C187.327 21.6674 187.717 21.5912 188.114 21.6095L189.305 21.6644C189.702 21.6827 190.096 21.8149 190.487 22.0609L191.66 22.7991C192.051 23.0451 192.448 23.0313 192.851 22.7577L194.061 21.9367C194.464 21.663 194.854 21.6402 195.231 21.8681L196.36 22.5519C196.737 22.7798 197.116 22.9433 197.496 23.0424L198.637 23.3399C199.017 23.439 199.394 23.5456 199.767 23.6595L200.888 24.0014C201.262 24.1154 201.666 24.081 202.1 23.8983L203.401 23.3501C203.835 23.1674 204.232 23.1669 204.594 23.3484L205.679 23.8931C206.041 24.0747 206.388 24.2942 206.721 24.5516L207.719 25.3241C208.052 25.5815 208.425 25.7015 208.839 25.6838L210.08 25.631C210.494 25.6134 210.866 25.7197 211.197 25.9498L212.19 26.6401C212.521 26.8702 212.869 27.0505 213.234 27.1811L214.331 27.5728C214.696 27.7034 215.119 27.7151 215.599 27.6079L217.041 27.2864C217.521 27.1793 217.872 27.3465 218.092 27.7881L218.752 29.1131C218.972 29.5547 219.248 29.8761 219.58 30.0771L220.576 30.6803C220.908 30.8813 221.245 31.0746 221.585 31.2602L222.608 31.8168C222.949 32.0023 223.367 32.0756 223.862 32.0364L225.347 31.9191C225.843 31.8799 226.237 31.9976 226.531 32.2721L227.414 33.0957C227.708 33.3702 227.971 33.6807 228.203 34.0273L228.9 35.067C229.132 35.4136 229.39 35.7239 229.671 35.9977L230.517 36.8194C230.799 37.0933 231.119 37.3252 231.476 37.515L232.549 38.0845C232.906 38.2743 233.162 38.5709 233.317 38.9743L233.782 40.1844C233.937 40.5878 234.131 40.9454 234.366 41.2572L235.068 42.1927C235.302 42.5045 235.551 42.802 235.814 43.0852L236.602 43.9349C236.865 44.2181 237.206 44.4394 237.627 44.5987L238.888 45.0766C239.309 45.2359 239.635 45.4752 239.867 45.7947L240.563 46.7529C240.796 47.0723 241.022 47.3956 241.242 47.7227L241.904 48.7042C242.124 49.0313 242.26 49.4111 242.311 49.8434L242.466 51.1403C242.517 51.5726 242.636 51.958 242.823 52.2966L243.384 53.3123C243.571 53.6509 243.922 53.9036 244.437 54.0706L245.981 54.5715C246.496 54.7385 246.79 55.0264 246.863 55.4351L247.082 56.6615C247.154 57.0702 247.277 57.4532 247.449 57.8103L247.966 58.8816C248.138 59.2387 248.299 59.6007 248.448 59.9677L248.897 61.0687C249.047 61.4357 249.09 61.8394 249.026 62.2798L248.834 63.6009C248.77 64.0412 248.933 64.4061 249.323 64.6953L250.492 65.5631C250.882 65.8524 251.084 66.2013 251.099 66.61L251.144 67.8359C251.159 68.2445 251.167 68.6508 251.169 69.0548L251.175 70.2669C251.178 70.6709 251.303 71.0501 251.551 71.4044L252.295 72.4674C252.544 72.8217 252.555 73.2156 252.33 73.6489L251.654 74.9491C251.429 75.3825 251.417 75.7843 251.618 76.1546L252.222 77.2655C252.423 77.6358 252.483 78.0205 252.402 78.4196L252.158 79.6171C252.077 80.0162 252.034 80.4105 252.03 80.7999L252.016 81.9682C252.012 82.3576 252.143 82.7492 252.41 83.1429L253.211 84.324C253.478 84.7177 253.628 85.0857 253.662 85.4279L253.765 86.4545C253.799 86.7967 254.006 87.0121 254.386 87.1008L255.525 87.3668C255.905 87.4554 256.321 87.4482 256.775 87.345L258.135 87.0356C258.588 86.9324 258.934 87.1139 259.173 87.58L259.889 88.9784C260.128 89.4446 260.491 89.6107 260.977 89.4768L262.435 89.0753C262.921 88.9414 263.326 88.996 263.649 89.239L264.617 89.968C264.94 90.2109 265.282 90.4133 265.644 90.5752L266.73 91.0607C267.092 91.2225 267.418 91.4458 267.708 91.7305L268.578 92.5847C268.868 92.8694 269.141 93.1747 269.395 93.5007L270.158 94.4785C270.412 94.8044 270.747 95.0102 271.162 95.0958L272.406 95.3527C272.821 95.4384 273.164 95.6276 273.434 95.9205L274.245 96.7991C274.515 97.092 274.852 97.3015 275.256 97.4278L276.469 97.8065C276.873 97.9328 277.208 98.1448 277.473 98.4428L278.267 99.3366C278.532 99.6346 278.777 99.9495 279.004 100.281L279.685 101.277C279.911 101.609 280.11 101.964 280.279 102.342L280.788 103.475C280.957 103.852 281.211 104.15 281.549 104.367L282.561 105.02C282.899 105.237 283.291 105.417 283.736 105.558L285.072 105.983C285.518 106.124 285.78 106.415 285.859 106.854L286.096 108.171C286.175 108.61 286.31 109.001 286.502 109.345L287.076 110.375C287.268 110.718 287.431 111.077 287.566 111.453L287.97 112.58C288.105 112.956 288.302 113.292 288.561 113.588L289.338 114.477C289.597 114.773 289.863 115.069 290.136 115.364L290.956 116.25C291.229 116.545 291.429 116.88 291.555 117.255L291.932 118.38C292.058 118.755 292.232 119.107 292.454 119.436L293.121 120.423C293.343 120.752 293.526 121.1 293.67 121.465L294.101 122.562C294.244 122.927 294.427 123.28 294.648 123.619L295.311 124.636C295.533 124.975 295.764 125.315 296.007 125.656L296.734 126.678C296.977 127.019 297.029 127.414 296.892 127.864L296.48 129.214C296.342 129.664 296.432 130.054 296.75 130.386L297.702 131.379C298.02 131.71 298.22 132.071 298.303 132.463L298.552 133.638C298.635 134.029 298.668 134.428 298.651 134.835L298.601 136.054C298.584 136.46 298.468 136.874 298.253 137.294L297.606 138.555C297.391 138.976 297.306 139.379 297.35 139.764L297.484 140.919C297.528 141.304 297.534 141.691 297.501 142.079L297.404 143.245C297.371 143.633 297.391 144.022 297.464 144.41L297.682 145.575C297.755 145.963 297.851 146.354 297.97 146.749L298.328 147.934C298.448 148.329 298.555 148.729 298.651 149.133L298.938 150.346C299.034 150.751 298.933 151.134 298.637 151.498L297.749 152.588C297.453 152.951 297.307 153.33 297.312 153.725L297.327 154.91C297.332 155.305 297.321 155.699 297.293 156.093L297.21 157.273C297.183 157.667 297.199 158.074 297.259 158.494L297.44 159.754C297.5 160.175 297.428 160.563 297.223 160.918L296.609 161.986C296.405 162.342 296.312 162.731 296.331 163.154L296.388 164.422C296.408 164.845 296.291 165.222 296.038 165.554L295.28 166.551C295.027 166.884 294.857 167.246 294.769 167.638L294.506 168.814C294.418 169.206 294.213 169.546 293.89 169.834L292.921 170.698C292.598 170.986 292.308 171.284 292.053 171.592L291.286 172.517C291.03 172.825 290.96 173.235 291.077 173.747L291.427 175.283C291.543 175.795 291.366 176.141 290.896 176.321L289.483 176.859C289.012 177.038 288.746 177.342 288.684 177.77L288.5 179.052C288.438 179.48 288.265 179.835 287.98 180.117L287.125 180.963C286.84 181.244 286.548 181.518 286.249 181.782L285.352 182.576C285.054 182.841 284.822 183.16 284.658 183.533L284.165 184.652C284 185.025 283.791 185.363 283.536 185.665L282.772 186.57C282.518 186.871 282.251 187.162 281.972 187.441L281.134 188.279C280.855 188.558 280.559 188.818 280.244 189.059L279.302 189.784C278.988 190.025 278.667 190.257 278.341 190.479L277.361 191.147C277.034 191.369 276.746 191.638 276.498 191.954L275.753 192.901C275.504 193.217 275.21 193.477 274.872 193.682L273.855 194.295C273.516 194.499 273.232 194.783 273.003 195.146L272.318 196.236C272.089 196.599 271.783 196.85 271.4 196.988L270.25 197.403C269.866 197.542 269.452 197.62 269.007 197.637L267.672 197.688C267.228 197.705 266.86 197.855 266.571 198.137L265.702 198.985C265.412 199.268 265.09 199.492 264.735 199.656L263.668 200.148C263.313 200.312 262.946 200.45 262.568 200.56L261.433 200.89C261.055 201 260.728 201.24 260.453 201.611L259.627 202.724C259.352 203.095 259.029 203.355 258.659 203.504L257.548 203.951C257.178 204.1 256.767 204.109 256.313 203.98L254.953 203.591C254.5 203.461 254.117 203.574 253.805 203.929L252.868 204.995C252.556 205.35 252.198 205.539 251.795 205.562L250.586 205.631C250.183 205.654 249.767 205.581 249.336 205.411L248.045 204.901C247.614 204.731 247.21 204.695 246.833 204.794L245.702 205.091C245.324 205.19 244.953 205.371 244.586 205.635L243.487 206.425C243.121 206.688 242.738 206.805 242.339 206.776L241.14 206.689C240.741 206.659 240.344 206.656 239.95 206.679L238.768 206.746C238.374 206.768 237.98 206.696 237.585 206.529L236.401 206.029C236.007 205.862 235.612 205.743 235.219 205.673L234.039 205.463C233.646 205.393 233.252 205.474 232.859 205.706L231.679 206.402C231.286 206.635 230.892 206.728 230.499 206.683L229.319 206.548C228.926 206.503 228.532 206.559 228.139 206.715L226.959 207.183C226.566 207.34 226.172 207.422 225.779 207.431L224.599 207.456C224.206 207.465 223.812 207.4 223.419 207.262L222.239 206.848C221.846 206.71 221.452 206.628 221.059 206.601L219.879 206.52C219.486 206.494 219.092 206.382 218.699 206.187L217.519 205.6C217.126 205.404 216.732 205.464 216.339 205.779L215.159 206.724C214.766 207.039 214.372 207.127 213.979 206.986L212.799 206.563C212.406 206.423 212.012 206.401 211.619 206.498L210.439 206.788C210.046 206.885 209.652 206.956 209.259 207.001L208.079 207.135C207.686 207.179 207.292 207.119 206.899 206.952L205.719 206.454C205.326 206.288 204.932 206.305 204.539 206.504L203.359 207.104C202.966 207.303 202.572 207.338 202.179 207.208L200.999 206.818C200.606 206.689 200.212 206.546 199.819 206.391L198.639 205.926C198.246 205.772 197.852 205.69 197.459 205.682L196.279 205.658C195.886 205.649 195.492 205.624 195.099 205.582L193.919 205.454C193.526 205.412 193.132 205.422 192.739 205.484L191.559 205.672C191.166 205.735 190.772 205.857 190.379 206.04L189.199 206.587C188.806 206.769 188.412 206.841 188.019 206.803L186.839 206.689C186.446 206.651 186.052 206.706 185.659 206.854L184.479 207.299C184.086 207.448 183.692 207.523 183.299 207.526L182.119 207.533C181.726 207.535 181.332 207.353 180.939 206.984L179.759 205.879C179.366 205.51 178.972 205.409 178.579 205.574L177.399 206.07C177.006 206.235 176.612 206.386 176.219 206.521L175.039 206.928C174.646 207.063 174.252 207.083 173.859 206.988L172.679 206.703C172.286 206.608 171.892 206.479 171.499 206.316L170.319 205.828C169.926 205.665 169.532 205.738 169.139 206.048L167.959 206.976C167.566 207.286 167.172 207.395 166.779 207.303L165.599 207.027C165.206 206.935 164.812 206.879 164.419 206.859L163.239 206.797C162.846 206.777 162.452 206.736 162.059 206.676L160.879 206.494C160.486 206.433 160.092 206.479 159.699 206.632L158.519 207.089C158.126 207.241 157.732 207.214 157.339 207.007L156.159 206.386C155.766 206.179 155.372 206.102 154.979 206.156L153.799 206.317C153.406 206.371 153.012 206.394 152.619 206.388L151.439 206.369C151.046 206.363 150.652 206.304 150.259 206.192L149.079 205.855C148.686 205.743 148.292 205.833 147.899 206.125L146.719 207.002C146.326 207.294 145.932 207.339 145.539 207.136L144.359 206.527C143.966 206.324 143.572 206.179 143.179 206.092L141.999 205.832C141.606 205.745 141.213 205.711 140.819 205.731L139.639 205.789C139.246 205.809 138.852 205.824 138.459 205.836L137.279 205.872C136.886 205.884 136.493 205.948 136.099 206.066L134.919 206.417C134.526 206.534 134.132 206.5 133.739 206.315L132.559 205.758C132.166 205.573 131.773 205.533 131.379 205.64L130.199 205.96C129.806 206.067 129.412 206.127 129.019 206.141L127.839 206.182C127.446 206.195 127.052 206.216 126.659 206.245L125.479 206.329C125.086 206.358 124.692 206.297 124.299 206.148L123.119 205.7C122.726 205.55 122.332 205.496 121.939 205.537L120.759 205.659C120.366 205.7 119.972 205.828 119.579 206.044L118.399 206.691C118.006 206.907 117.612 206.988 117.219 206.932L116.039 206.767C115.646 206.712 115.252 206.687 114.859 206.692L113.679 206.708C113.286 206.714 112.892 206.764 112.499 206.86L111.319 207.147C110.926 207.243 110.532 207.232 110.139 207.114L108.959 206.761C108.566 206.643 108.172 206.492 107.779 206.305L106.599 205.746C106.206 205.56 105.812 205.515 105.419 205.612L104.239 205.904C103.846 206.001 103.452 206.062 103.059 206.087L101.879 206.162C101.486 206.187 101.092 206.192 100.699 206.179L99.5192 206.139C99.1258 206.125 98.7325 206.072 98.3392 205.977L97.1592 205.693C96.7658 205.599 96.3725 205.701 95.9792 206.001L94.7992 206.9C94.4058 207.2 94.0125 207.205 93.6192 206.915L92.4392 206.046C92.0458 205.756 91.6525 205.758 91.2592 206.052L90.0792 206.934C89.6858 207.228 89.2925 207.284 88.8992 207.102L87.7192 206.556C87.3258 206.374 86.9325 206.355 86.5392 206.499L85.3592 206.931C84.9658 207.075 84.5725 207.061 84.1792 206.889L82.9992 206.375C82.6058 206.203 82.2125 206.11 81.8192 206.095L80.6392 206.049C80.2458 206.034 79.8525 206.093 79.4592 206.225L78.2792 206.623C77.8858 206.756 77.4925 206.852 77.0992 206.91L75.9192 207.086C75.5258 207.144 75.1325 207.204 74.7392 207.266L73.5592 207.451C73.1658 207.512 72.7725 207.448 72.3792 207.258L71.1992 206.688C70.8058 206.498 70.4125 206.357 70.0192 206.265L68.8392 205.991C68.4458 205.9 68.0525 205.879 67.6592 205.928L66.4792 206.077C66.0858 206.127 65.6921 206.214 65.2979 206.34L64.1152 206.718C63.721 206.844 63.3301 206.813 62.9423 206.623L61.7791 206.056C61.3914 205.866 60.9967 205.837 60.5951 205.967L59.3903 206.356C58.9886 206.486 58.5826 206.602 58.1722 206.704L56.9409 207.01C56.5305 207.112 56.1432 207.034 55.7792 206.778L54.687 206.008C54.323 205.751 53.9494 205.58 53.5662 205.494L52.4168 205.236C52.0337 205.15 51.6456 205.085 51.2525 205.04L50.0734 204.908C49.6804 204.864 49.3008 204.766 48.9345 204.614L47.8358 204.159C47.4695 204.007 47.101 203.868 46.7303 203.741L45.6182 203.363C45.2475 203.237 44.8944 203.064 44.559 202.843L43.5525 202.183C43.217 201.963 42.8758 201.765 42.5289 201.59L41.4883 201.065C41.1414 200.89 40.7168 200.887 40.2147 201.054L38.7081 201.556C38.206 201.724 37.781 201.709 37.4332 201.511L36.39 200.917C36.0422 200.719 35.7108 200.493 35.3957 200.24L34.4505 199.48C34.1354 199.226 33.8293 198.963 33.5321 198.691L32.6403 197.873C32.3431 197.6 31.9699 197.448 31.5209 197.414L30.1736 197.315C29.7246 197.282 29.4472 196.996 29.3415 196.457L29.0243 194.841C28.9186 194.302 28.6455 194.002 28.2049 193.939L26.8832 193.75C26.4427 193.688 26.0263 193.583 25.6342 193.436L24.4577 192.997C24.0655 192.851 23.7613 192.6 23.545 192.244L22.8962 191.178C22.68 190.823 22.4749 190.463 22.281 190.097L21.6994 189.001C21.5055 188.636 21.2581 188.327 20.9571 188.076L20.054 187.321C19.753 187.07 19.4639 186.805 19.1868 186.528L18.3553 185.697C18.0782 185.42 17.8475 185.104 17.6632 184.75L17.1105 183.686C16.9262 183.331 16.6355 183.06 16.2384 182.871L15.0469 182.305C14.6498 182.117 14.447 181.785 14.4386 181.311L14.4133 179.887C14.4049 179.413 14.2092 179.068 13.8261 178.854L12.677 178.211C12.2939 177.997 11.954 177.749 11.6573 177.466L10.767 176.617C10.4702 176.335 10.3075 175.976 10.279 175.541L10.1935 174.237C10.165 173.803 10.0924 173.397 9.97565 173.02L9.62545 171.888C9.50871 171.511 9.39213 171.137 9.27569 170.764L8.92638 169.648C8.80995 169.276 8.59891 168.942 8.29325 168.647L7.3763 167.76C7.07065 167.465 6.85107 167.133 6.71757 166.763L6.31708 165.656C6.18358 165.286 5.99749 164.933 5.75882 164.594L5.04278 163.58C4.80411 163.241 4.73772 162.853 4.84363 162.415L5.16135 161.101C5.26725 160.663 5.30377 160.249 5.27089 159.858L5.17227 158.687C5.13939 158.296 4.95046 157.935 4.60547 157.604L3.5705 156.61C3.22551 156.279 3.0617 155.912 3.07907 155.509L3.13117 154.298C3.14854 153.895 3.18821 153.492 3.25019 153.09L3.43612 151.882C3.49809 151.48 3.44574 151.088 3.27905 150.708L2.779 149.567C2.61231 149.187 2.53781 148.799 2.55548 148.404L2.60852 147.218C2.6262 146.823 2.66699 146.428 2.73091 146.034L2.92266 144.852C2.98657 144.457 2.97042 144.062 2.87418 143.665L2.58549 142.474C2.48926 142.077 2.47427 141.684 2.54052 141.293L2.73929 140.12C2.80554 139.729 2.96094 139.351 3.20547 138.985L3.93906 137.889C4.18359 137.524 4.16023 137.121 3.86899 136.679L2.99526 135.355C2.70401 134.914 2.67742 134.514 2.91547 134.155L3.62962 133.079C3.86767 132.721 4.0107 132.344 4.05872 131.951L4.20275 130.77C4.25076 130.376 4.30309 129.982 4.35972 129.587L4.52961 128.401C4.58625 128.006 4.63401 127.606 4.67291 127.2L4.78961 125.983C4.82851 125.578 5.0204 125.226 5.36528 124.929L6.39991 124.037C6.74479 123.74 7.03028 123.426 7.25637 123.097L7.93466 122.109C8.16075 121.78 8.30507 121.415 8.3676 121.016L8.5552 119.817C8.61773 119.417 8.7234 119.035 8.87221 118.671L9.31862 117.576C9.46743 117.212 9.56875 116.819 9.62258 116.397L9.78409 115.131C9.83792 114.709 10.1063 114.413 10.5892 114.243L12.038 113.733C12.5209 113.563 12.7841 113.259 12.8277 112.822L12.9584 111.51C13.002 111.073 13.0705 110.644 13.1638 110.223L13.4439 108.962C13.5372 108.541 13.858 108.292 14.4063 108.216L16.051 107.987C16.5993 107.91 16.9429 107.678 17.082 107.289L17.4993 106.121C17.6384 105.732 17.8494 105.402 18.1323 105.131L18.9812 104.317C19.2641 104.046 19.4882 103.718 19.6536 103.331L20.1495 102.172C20.3148 101.785 20.4995 101.411 20.7037 101.049L21.3162 99.9629C21.5204 99.6008 21.8045 99.3246 22.1684 99.1341L23.2603 98.5627C23.6243 98.3722 23.955 98.1454 24.2524 97.8823L25.1445 97.0928C25.4419 96.8297 25.7526 96.5833 26.0766 96.3537L27.0486 95.665C27.3726 95.4354 27.7442 95.2768 28.1633 95.1892L29.4207 94.9262C29.8398 94.8386 30.1658 94.6125 30.3987 94.2479L31.0974 93.1541C31.3303 92.7895 31.6692 92.597 32.114 92.5766L33.4485 92.5155C33.8933 92.4951 34.2857 92.3902 34.6255 92.2009L35.6452 91.6331C35.985 91.4438 36.3416 91.289 36.7148 91.1686L37.8346 90.8076C38.2078 90.6873 38.5701 90.5458 38.9213 90.3834L39.975 89.8959C40.3263 89.7334 40.678 89.5708 41.0302 89.4082L42.0869 88.9201C42.4391 88.7574 42.7472 88.4595 43.0112 88.0262L43.8033 86.7263C44.0673 86.293 44.4086 86.0791 44.827 86.0846L46.0824 86.1012C46.5009 86.1068 46.8202 86.0353 47.0404 85.8868L47.701 85.4412C47.9212 85.2927 48.051 85.0076 48.0903 84.5858L48.2084 83.3204C48.2477 82.8986 48.1694 82.5131 47.9732 82.1637L47.3849 81.1157C47.1888 80.7663 46.9952 80.4123 46.8042 80.0537L46.2312 78.9779C46.0402 78.6192 45.9 78.2474 45.8108 77.8624L45.543 76.7072C45.4537 76.3222 45.413 75.9298 45.4209 75.5299L45.4446 74.3304C45.4525 73.9306 45.3518 73.5435 45.1426 73.1693L44.5149 72.0467C44.3056 71.6725 44.1929 71.2862 44.1765 70.8877L44.1276 69.6922C44.1112 69.2937 44.103 68.8953 44.1029 68.4969L44.1024 67.3019C44.1023 66.9036 44.1032 66.5053 44.1051 66.1069L44.111 64.9119C44.1129 64.5136 44.1394 64.117 44.1906 63.7221L44.344 62.5374C44.3951 62.1426 44.5711 61.76 44.872 61.3897L45.7746 60.2787C46.0754 59.9084 46.2413 59.5307 46.2723 59.1454L46.3653 57.9897C46.3962 57.6045 46.3794 57.2105 46.3148 56.8079L46.1208 55.5999C46.0562 55.1972 45.9493 54.7807 45.8003 54.3503L45.3531 53.0591C45.204 52.6287 45.3332 52.2584 45.7407 51.9483L46.9633 51.0179C47.3708 50.7078 47.5734 50.3507 47.571 49.9467L47.5639 48.7347C47.5615 48.3307 47.681 47.9628 47.9222 47.6308L48.6459 46.6351C48.8871 46.3032 49.0294 45.9391 49.0728 45.5429L49.2028 44.3544C49.2461 43.9582 49.3812 43.5965 49.608 43.2694L50.2886 42.288C50.5154 41.9608 50.6927 41.6138 50.8205 41.247L51.2037 40.1466C51.3315 39.7798 51.4225 39.3924 51.4767 38.9844L51.6393 37.7606C51.6935 37.3527 51.7528 36.9416 51.8172 36.5273L52.0104 35.2845C52.0748 34.8702 52.3238 34.5629 52.7573 34.3627L54.0579 33.7619C54.4914 33.5616 54.8037 33.2923 54.9947 32.9539L55.5678 31.9386C55.7588 31.6002 55.9211 31.2395 56.0548 30.8567L56.4559 29.708C56.5896 29.3252 56.6954 28.9148 56.7734 28.4769L57.0071 27.1632C57.085 26.7253 57.3665 26.4497 57.8516 26.3366L59.3069 25.9973C59.792 25.8842 60.119 25.6415 60.2879 25.2693L60.7948 24.1525C60.9637 23.7803 61.2304 23.4978 61.5948 23.3052L62.6879 22.7273C63.0523 22.5346 63.3864 22.3166 63.6903 22.0732L64.602 21.343C64.9059 21.0996 65.2082 20.8561 65.5089 20.6125L66.4108 19.8816C66.7114 19.638 66.9656 19.3373 67.1732 18.9797L67.796 17.9066C68.0036 17.549 68.3028 17.3049 68.6936 17.1746L69.8659 16.7834C70.2567 16.6531 70.5788 16.4315 70.8325 16.1186L71.5933 15.1802C71.8469 14.8674 72.1127 14.5657 72.3907 14.2752L73.2245 13.4036C73.5025 13.1131 73.7889 12.8298 74.0838 12.5536L74.9685 11.7253C75.2634 11.4491 75.5858 11.2176 75.9359 11.0307L76.9861 10.4698C77.3362 10.2829 77.7329 10.1927 78.1764 10.1992L79.5069 10.2189C79.9503 10.2254 80.3159 10.0722 80.6034 9.75934L81.4662 8.82063C81.7538 8.50773 82.0664 8.24066 82.4039 8.01943L83.4167 7.35573C83.7542 7.1345 84.098 6.92117 84.4479 6.71576L85.4977 6.0995C85.8477 5.89408 86.2274 5.77566 86.6368 5.74424L87.865 5.64996C88.2744 5.61854 88.6919 5.63172 89.1175 5.68951L90.3944 5.86288C90.8201 5.92067 91.2035 5.81785 91.5447 5.55444L92.5682 4.7642C92.9093 4.50079 93.2977 4.45693 93.7332 4.63261L95.0398 5.15967C95.4753 5.33535 95.8859 5.40304 96.2714 5.36272L97.4281 5.24176C97.8137 5.20143 98.1789 4.97038 98.5237 4.5486L99.5583 3.28326C99.9032 2.86148 100.282 2.73762 100.695 2.91169L101.932 3.4339C102.345 3.60797 102.749 3.7386 103.144 3.82578L104.33 4.08732C104.725 4.1745 105.069 4.07762 105.362 3.79669L106.241 2.9539C106.534 2.67297 106.68 2.61214 106.68 2.77139V3.24917C106.68 3.40843 106.88 3.3922 107.281 3.20049L108.484 2.62536Z" fill="white" stroke="white" stroke-width="5"/>
</svg>
