<svg width="246" height="172" viewBox="0 0 246 172" fill="none" xmlns="http://www.w3.org/2000/svg">
<path d="M89.0007 2.62208C89.4034 2.43221 89.7949 2.4641 90.1753 2.71775L91.3165 3.4787C91.6969 3.73235 92.0789 3.90251 92.4626 3.98917L93.6136 4.24914C93.9973 4.3358 94.3776 4.4316 94.7545 4.53653L95.8851 4.85133C96.262 4.95627 96.636 5.06666 97.0073 5.1825L98.121 5.53004C98.4922 5.64589 98.9048 5.61458 99.3588 5.43614L100.721 4.90079C101.175 4.72234 101.553 4.80999 101.854 5.16374L102.759 6.22497C103.061 6.57871 103.443 6.69837 103.906 6.58393L105.295 6.24062C105.759 6.12619 106.141 6.22142 106.443 6.52632L107.35 7.44102C107.652 7.74592 107.977 7.98933 108.326 8.17124L109.372 8.71699C109.721 8.89891 110.105 9.01746 110.526 9.07266L111.789 9.23824C112.21 9.29344 112.584 9.43709 112.91 9.66921L113.889 10.3656C114.215 10.5977 114.466 10.9354 114.64 11.3789L115.165 12.7091C115.34 13.1525 115.576 13.4973 115.873 13.7436L116.764 14.4823C117.061 14.7285 117.405 14.9192 117.796 15.0543L118.969 15.4596C119.36 15.5947 119.681 15.814 119.933 16.1174L120.689 17.0275C120.941 17.3309 121.27 17.5565 121.677 17.7043L122.896 18.1476C123.303 18.2954 123.674 18.4863 124.009 18.7201L125.016 19.4218C125.351 19.6557 125.649 19.9253 125.91 20.2305L126.693 21.1461C126.954 21.4514 127.093 21.8461 127.109 22.3305L127.158 23.7835C127.174 24.2678 127.383 24.6901 127.786 25.0504L128.994 26.1311C129.397 26.4913 129.761 26.5661 130.084 26.3554L131.056 25.7233C131.38 25.5126 131.714 25.3189 132.058 25.1421L133.088 24.6118C133.432 24.4351 133.748 24.1941 134.037 23.889L134.903 22.9737C135.192 22.6685 135.509 22.416 135.854 22.2161L136.89 21.6164C137.235 21.4165 137.579 21.2006 137.92 20.9689L138.945 20.2737C139.286 20.042 139.663 19.9174 140.074 19.9L141.307 19.8475C141.718 19.8301 142.11 19.7464 142.483 19.5965L143.602 19.1469C143.975 18.9971 144.358 18.8898 144.752 18.8251L145.934 18.6312C146.328 18.5665 146.725 18.5263 147.124 18.5106L148.323 18.4634C148.723 18.4477 149.121 18.4363 149.519 18.4294L150.71 18.4085C151.107 18.4016 151.503 18.4139 151.899 18.4455L153.088 18.5402C153.484 18.5718 153.88 18.4946 154.276 18.3084L155.465 17.7499C155.861 17.5638 156.249 17.6468 156.629 17.9992L157.767 19.0561C158.146 19.4085 158.536 19.5267 158.937 19.4109L160.138 19.0636C160.538 18.9478 160.919 19.005 161.279 19.2351L162.361 19.9257C162.722 20.1559 163.13 20.1181 163.585 19.8123L164.952 18.8951C165.407 18.5894 165.802 18.5955 166.135 18.9135L167.134 19.8676C167.467 20.1856 167.843 20.3296 168.261 20.2995L169.517 20.2094C169.935 20.1793 170.327 20.2425 170.694 20.3988L171.793 20.8677C172.159 21.024 172.48 21.287 172.755 21.6565L173.581 22.7652C173.856 23.1347 174.231 23.2666 174.707 23.1608L176.134 22.8435C176.609 22.7377 176.979 22.8615 177.242 23.2149L178.031 24.275C178.294 24.6283 178.581 24.9238 178.892 25.1614L179.826 25.8742C180.137 26.1118 180.441 26.3562 180.738 26.6075L181.629 27.3614C181.926 27.6127 182.31 27.7419 182.78 27.7491L184.191 27.7707C184.661 27.7779 185.024 27.9387 185.28 28.253L186.046 29.1958C186.302 29.5101 186.526 29.8534 186.72 30.2257L187.301 31.3425C187.494 31.7148 187.782 31.9807 188.163 32.1404L189.306 32.6193C189.687 32.7789 189.976 33.0339 190.174 33.3842L190.767 34.4351C190.965 34.7854 191.199 35.0994 191.468 35.3771L192.277 36.2101C192.547 36.4877 192.92 36.6866 193.397 36.8067L194.83 37.1669C195.307 37.287 195.543 37.5938 195.537 38.0871L195.519 39.5673C195.513 40.0607 195.61 40.473 195.81 40.8042L196.409 41.7979C196.609 42.1291 196.815 42.4565 197.027 42.7799L197.663 43.7504C197.875 44.0738 198.208 44.3375 198.661 44.5414L200.02 45.153C200.473 45.3569 200.761 45.651 200.884 46.0354L201.253 47.1884C201.376 47.5728 201.452 47.9732 201.482 48.3897L201.57 49.6391C201.599 50.0556 201.666 50.4531 201.771 50.8315L202.085 51.9669C202.19 52.3453 202.347 52.7077 202.556 53.0541L203.184 54.0931C203.393 54.4395 203.458 54.8249 203.38 55.2493L203.144 56.5226C203.066 56.9471 203.043 57.3528 203.076 57.7397L203.175 58.9006C203.208 59.2875 203.259 59.6702 203.328 60.0486L203.534 61.1838C203.603 61.5622 203.77 61.9326 204.035 62.295L204.831 63.3822C205.096 63.7446 205.237 64.1232 205.254 64.5181L205.303 65.7026C205.32 66.0974 205.328 66.4924 205.327 66.8874L205.324 68.0724C205.324 68.4674 205.364 68.8841 205.447 69.3225L205.694 70.6377C205.776 71.0761 205.999 71.3579 206.363 71.4833L207.455 71.8594C207.819 71.9847 208.249 71.9392 208.745 71.7228L210.234 71.0738C210.73 70.8574 211.14 70.8798 211.464 71.1411L212.436 71.9248C212.76 72.1861 213.104 72.3969 213.467 72.5574L214.557 73.039C214.92 73.1995 215.277 73.3728 215.628 73.5589L216.681 74.1172C217.032 74.3033 217.322 74.5869 217.552 74.9679L218.241 76.1109C218.47 76.492 218.828 76.673 219.313 76.6541L220.768 76.5975C221.253 76.5786 221.628 76.7251 221.894 77.037L222.69 77.9727C222.955 78.2846 223.213 78.5997 223.462 78.918L224.21 79.8729C224.46 80.1912 224.791 80.4165 225.203 80.5488L226.441 80.9456C226.853 81.0779 227.099 81.3851 227.178 81.8671L227.414 83.3131C227.492 83.7951 227.722 84.1257 228.102 84.3049L229.244 84.8427C229.624 85.0219 229.898 85.2973 230.064 85.6688L230.564 86.7833C230.73 87.1548 230.924 87.5008 231.143 87.8213L231.803 88.7828C232.023 89.1033 232.354 89.3498 232.797 89.5222L234.125 90.0396C234.568 90.2121 234.78 90.5365 234.761 91.0127L234.704 92.4415C234.685 92.9177 234.782 93.3188 234.994 93.6447L235.631 94.6223C235.844 94.9481 236.148 95.2326 236.545 95.4756L237.734 96.2046C238.131 96.4476 238.25 96.8185 238.091 97.3173L237.613 98.8137C237.454 99.3125 237.593 99.6877 238.029 99.9392L239.34 100.694C239.776 100.945 240.02 101.272 240.071 101.673L240.222 102.879C240.273 103.28 240.364 103.668 240.497 104.042L240.894 105.165C241.026 105.539 241.087 105.929 241.077 106.336L241.047 107.555C241.037 107.961 240.998 108.368 240.929 108.775L240.723 109.995C240.654 110.402 240.727 110.787 240.94 111.152L241.582 112.247C241.795 112.612 241.882 112.993 241.841 113.389L241.719 114.577C241.678 114.973 241.743 115.365 241.912 115.753L242.421 116.918C242.59 117.306 242.648 117.698 242.593 118.094L242.428 119.282C242.373 119.678 242.291 120.069 242.182 120.456L241.855 121.617C241.747 122.004 241.6 122.382 241.416 122.752L240.865 123.861C240.681 124.23 240.61 124.614 240.653 125.012L240.782 126.206C240.825 126.604 240.929 127.022 241.094 127.459L241.59 128.772C241.755 129.209 241.688 129.594 241.389 129.926L240.493 130.922C240.194 131.254 239.966 131.599 239.809 131.959L239.337 133.037C239.18 133.397 238.991 133.742 238.771 134.074L238.11 135.068C237.89 135.399 237.737 135.756 237.651 136.139L237.393 137.286C237.307 137.669 237.223 138.056 237.143 138.45L236.9 139.63C236.82 140.024 236.662 140.38 236.428 140.698L235.725 141.652C235.491 141.97 235.301 142.313 235.156 142.682L234.722 143.79C234.577 144.159 234.393 144.506 234.171 144.829L233.504 145.8C233.282 146.124 233.09 146.472 232.929 146.843L232.448 147.959C232.287 148.331 232.13 148.712 231.976 149.102L231.513 150.271C231.359 150.661 231.055 150.919 230.602 151.046L229.241 151.426C228.788 151.553 228.505 151.839 228.392 152.284L228.055 153.62C227.942 154.065 227.74 154.426 227.449 154.703L226.575 155.533C226.283 155.81 225.959 156.047 225.601 156.243L224.527 156.831C224.17 157.027 223.755 157.139 223.284 157.168L221.869 157.252C221.398 157.28 221.007 157.41 220.697 157.64L219.767 158.331C219.457 158.562 219.126 158.758 218.773 158.92L217.714 159.406C217.361 159.568 217.034 159.774 216.732 160.024L215.825 160.774C215.523 161.025 215.226 161.296 214.935 161.588L214.063 162.466C213.772 162.758 213.47 163.041 213.156 163.315L212.216 164.135C211.903 164.408 211.517 164.496 211.058 164.399L209.683 164.108C209.225 164.011 208.82 164.053 208.471 164.235L207.421 164.78C207.071 164.962 206.713 165.127 206.348 165.275L205.252 165.721C204.886 165.87 204.527 166.062 204.173 166.298L203.113 167.006C202.76 167.243 202.378 167.344 201.969 167.309L200.739 167.206C200.33 167.172 199.936 167.251 199.558 167.445L198.426 168.025C198.048 168.218 197.656 168.268 197.248 168.173L196.026 167.888C195.618 167.793 195.217 167.784 194.822 167.86L193.636 168.09C193.241 168.166 192.846 168.116 192.452 167.939L191.268 167.407C190.874 167.23 190.48 167.095 190.086 167.003L188.906 166.725C188.513 166.632 188.12 166.759 187.726 167.106L186.546 168.147C186.153 168.494 185.76 168.511 185.366 168.198L184.186 167.259C183.793 166.946 183.4 166.88 183.006 167.061L181.826 167.604C181.433 167.784 181.04 167.839 180.646 167.769L179.466 167.556C179.073 167.485 178.68 167.411 178.286 167.334L177.106 167.103C176.713 167.026 176.32 167.043 175.926 167.154L174.746 167.486C174.353 167.597 173.96 167.658 173.566 167.668L172.386 167.701C171.993 167.711 171.6 167.713 171.206 167.706L170.026 167.684C169.633 167.676 169.24 167.651 168.846 167.607L167.666 167.476C167.273 167.432 166.88 167.384 166.486 167.333L165.306 167.18C164.913 167.128 164.52 167.146 164.126 167.231L162.946 167.489C162.553 167.574 162.16 167.596 161.766 167.553L160.586 167.424C160.193 167.381 159.8 167.443 159.406 167.609L158.226 168.106C157.833 168.272 157.44 168.309 157.046 168.217L155.866 167.941C155.473 167.849 155.08 167.697 154.686 167.484L153.506 166.847C153.113 166.634 152.72 166.583 152.326 166.694L151.146 167.025C150.753 167.136 150.36 167.186 149.966 167.176L148.786 167.146C148.393 167.136 148 167.104 147.606 167.05L146.426 166.89C146.033 166.836 145.64 166.93 145.246 167.172L144.066 167.898C143.673 168.141 143.28 168.27 142.886 168.286L141.706 168.334C141.313 168.35 140.92 168.228 140.526 167.969L139.346 167.192C138.953 166.933 138.56 166.934 138.166 167.195L136.986 167.978C136.593 168.24 136.2 168.337 135.806 168.269L134.626 168.066C134.233 167.998 133.84 167.841 133.446 167.594L132.266 166.852C131.873 166.605 131.48 166.503 131.086 166.545L129.906 166.671C129.513 166.714 129.12 166.846 128.726 167.067L127.546 167.732C127.153 167.954 126.76 168.036 126.366 167.978L125.186 167.805C124.793 167.748 124.4 167.723 124.006 167.733L122.826 167.761C122.433 167.77 122.04 167.691 121.646 167.523L120.466 167.019C120.073 166.851 119.68 166.732 119.286 166.662L118.106 166.451C117.713 166.381 117.32 166.462 116.926 166.694L115.746 167.391C115.353 167.623 114.96 167.717 114.566 167.672L113.386 167.537C112.993 167.492 112.6 167.547 112.206 167.703L111.026 168.172C110.633 168.328 110.24 168.41 109.846 168.419L108.666 168.445C108.273 168.453 107.88 168.389 107.486 168.251L106.306 167.837C105.913 167.699 105.52 167.616 105.126 167.589L103.946 167.509C103.553 167.482 103.16 167.371 102.766 167.175L101.586 166.588C101.193 166.393 100.8 166.452 100.406 166.767L99.2265 167.713C98.8332 168.028 98.4398 168.115 98.0465 167.974L96.8665 167.552C96.4732 167.411 96.0798 167.389 95.6865 167.486L94.5065 167.777C94.1132 167.874 93.7198 167.945 93.3265 167.989L92.1465 168.123C91.7532 168.168 91.3598 168.107 90.9665 167.941L89.7865 167.443C89.3932 167.276 88.9998 167.293 88.6065 167.493L87.4265 168.092C87.0332 168.292 86.6398 168.327 86.2465 168.197L85.0665 167.807C84.6732 167.677 84.2798 167.535 83.8865 167.38L82.7065 166.915C82.3132 166.76 81.9198 166.678 81.5265 166.67L80.3465 166.646C79.9532 166.638 79.5598 166.613 79.1665 166.57L77.9865 166.443C77.5932 166.4 77.1998 166.41 76.8065 166.473L75.6265 166.66C75.2332 166.723 74.8398 166.846 74.4465 167.028L73.2665 167.575C72.8732 167.758 72.4798 167.83 72.0865 167.792L70.9065 167.677C70.5132 167.639 70.1198 167.695 69.7265 167.843L68.5465 168.288C68.1532 168.436 67.7598 168.511 67.3665 168.514L66.1865 168.521C65.7932 168.524 65.3998 168.341 65.0065 167.973L63.8265 166.867C63.4332 166.499 63.0398 166.397 62.6465 166.563L61.4665 167.058C61.0732 167.224 60.6798 167.374 60.2865 167.51L59.1065 167.916C58.7132 168.051 58.3198 168.072 57.9265 167.977L56.7465 167.692C56.3532 167.597 55.9598 167.468 55.5665 167.305L54.3865 166.816C53.9932 166.654 53.5975 166.726 53.1997 167.032L52.006 167.953C51.6081 168.26 51.2124 168.357 50.8187 168.246L49.6377 167.913C49.2441 167.802 48.8512 167.718 48.459 167.66L47.2825 167.485C46.8903 167.427 46.5035 167.34 46.1222 167.223L44.9782 166.875C44.5969 166.758 44.1972 166.737 43.7792 166.812L42.5253 167.035C42.1073 167.109 41.731 166.999 41.3963 166.705L40.3922 165.821C40.0575 165.526 39.695 165.349 39.3045 165.29L38.1332 165.112C37.7427 165.052 37.3632 164.955 36.9947 164.82L35.8891 164.415C35.5206 164.28 35.1766 164.088 34.8572 163.838L33.8989 163.09C33.5795 162.84 33.1798 162.766 32.6999 162.866L31.2601 163.169C30.7801 163.269 30.4112 163.138 30.1533 162.776L29.3795 161.688C29.1215 161.325 28.8462 161.008 28.5534 160.738L27.6751 159.926C27.3824 159.655 27.068 159.423 26.7321 159.229L25.7245 158.646C25.3886 158.451 25.0594 158.246 24.7368 158.029L23.7693 157.38C23.4467 157.163 23.0957 156.979 22.7161 156.828L21.5775 156.375C21.1979 156.224 20.9222 155.951 20.7502 155.555L20.2343 154.367C20.0624 153.971 19.7995 153.677 19.4457 153.486L18.3842 152.912C18.0304 152.72 17.7141 152.487 17.4352 152.213L16.5987 151.391C16.3199 151.117 16.0418 150.841 15.7646 150.563L14.9329 149.728C14.6557 149.45 14.456 149.112 14.3338 148.713L13.9674 147.519C13.8452 147.12 13.6558 146.776 13.3992 146.484L12.6292 145.609C12.3726 145.318 12.0477 145.065 11.6545 144.85L10.475 144.208C10.0819 143.993 9.81048 143.701 9.6609 143.33L9.21217 142.217C9.0626 141.846 8.89537 141.486 8.71049 141.136L8.15585 140.089C7.97097 139.74 7.75286 139.404 7.50154 139.082L6.74758 138.114C6.49626 137.792 6.35208 137.425 6.31504 137.012L6.20393 135.775C6.16689 135.363 6.17341 134.942 6.22351 134.514L6.37378 133.227C6.42387 132.798 6.34843 132.411 6.14746 132.066L5.54454 131.03C5.34357 130.685 5.18577 130.325 5.07115 129.951L4.72729 128.829C4.61267 128.455 4.52588 128.075 4.46691 127.689L4.29 126.53C4.23103 126.143 4.22168 125.751 4.26196 125.354L4.38281 124.162C4.42309 123.764 4.27627 123.384 3.94235 123.019L2.9406 121.926C2.60669 121.562 2.576 121.177 2.84855 120.772L3.66619 119.556C3.93874 119.151 3.92885 118.75 3.63651 118.355L2.75951 117.169C2.46717 116.773 2.42191 116.382 2.62371 115.996L3.22913 114.838C3.43094 114.452 3.47958 114.055 3.37504 113.648L3.06142 112.426C2.95688 112.019 3.01807 111.633 3.245 111.268L3.92579 110.172C4.15271 109.807 4.31115 109.434 4.40108 109.054L4.6709 107.914C4.76083 107.535 4.7884 107.138 4.75359 106.725L4.64917 105.485C4.61436 105.072 4.62567 104.667 4.6831 104.269L4.85539 103.076C4.91282 102.679 4.97879 102.281 5.05329 101.883L5.2768 100.689C5.35131 100.291 5.55131 99.9433 5.87681 99.6469L6.8533 98.7574C7.17879 98.461 7.46501 98.1548 7.71196 97.8389L8.45279 96.8914C8.69974 96.5755 8.89144 96.2335 9.02789 95.8654L9.43726 94.7611C9.57371 94.393 9.68684 94.0071 9.77664 93.6036L10.046 92.3929C10.1358 91.9893 10.3628 91.672 10.7269 91.4407L11.8193 90.7471C12.1834 90.5159 12.417 90.196 12.5201 89.7873L12.8294 88.5613C12.9325 88.1526 13.0521 87.7475 13.1883 87.3461L13.5967 86.1419C13.7329 85.7404 14.0082 85.4571 14.4228 85.2918L15.6664 84.7959C16.0809 84.6306 16.4301 84.4124 16.7141 84.1412L17.5659 83.3275C17.8498 83.0563 18.1202 82.7706 18.3771 82.4703L19.1477 81.5695C19.4046 81.2693 19.6995 81.0117 20.0325 80.7968L21.0314 80.1522C21.3644 79.9373 21.6891 79.7147 22.0053 79.4843L22.9542 78.7933C23.2705 78.563 23.6155 78.3758 23.9893 78.2318L25.1105 77.7996C25.4843 77.6556 25.8434 77.4955 26.188 77.3194L27.2217 76.7912C27.5663 76.6152 27.8211 76.2758 27.9863 75.7731L28.4819 74.2649C28.647 73.7622 28.9142 73.4317 29.2832 73.2736L30.3903 72.7991C30.7594 72.641 31.1409 72.5145 31.535 72.4198L32.7172 72.1355C33.1113 72.0407 33.5075 71.9609 33.9058 71.896L35.1007 71.7012C35.499 71.6363 35.8522 71.4391 36.1601 71.1095L37.0838 70.121C37.3917 69.7914 37.8383 69.6246 38.4234 69.6204L40.1789 69.6079C40.764 69.6038 40.8949 69.4493 40.5715 69.1447L39.6013 68.2307C39.2779 67.9261 38.9998 67.5993 38.7669 67.2506L38.0682 66.2043C37.8353 65.8555 37.7367 65.4735 37.7725 65.0582L37.8798 63.8124C37.9156 63.3971 37.9653 62.9853 38.029 62.5769L38.2202 61.3518C38.284 60.9435 38.2724 60.5484 38.1856 60.1666L37.9252 59.0213C37.8384 58.6395 37.7705 58.2544 37.7215 57.8661L37.5744 56.701C37.5254 56.3126 37.5385 55.9226 37.6136 55.5309L37.8391 54.3557C37.9143 53.9639 37.8561 53.5701 37.6645 53.1743L37.0897 51.9867C36.8981 51.5909 36.949 51.2068 37.2426 50.8344L38.1231 49.7171C38.4166 49.3447 38.4845 48.9541 38.3267 48.5453L37.8532 47.319C37.6953 46.9102 37.5945 46.5018 37.5505 46.0937L37.4188 44.8695C37.3748 44.4614 37.4838 44.0833 37.7458 43.7352L38.5316 42.691C38.7935 42.3429 39.0047 41.9891 39.1652 41.6296L39.6468 40.551C39.8073 40.1915 39.9678 39.8348 40.1283 39.4809L40.6097 38.4193C40.7701 38.0654 40.8364 37.6767 40.8085 37.2534L40.7247 35.9832C40.6967 35.5598 40.759 35.1673 40.9116 34.8057L41.3691 33.7208C41.5217 33.3592 41.6269 32.9733 41.6849 32.5632L41.8588 31.3327C41.9168 30.9226 42.1354 30.596 42.5146 30.3529L43.6523 29.6235C44.0315 29.3804 44.3452 29.1078 44.5935 28.8058L45.3383 27.8999C45.5865 27.5979 45.7045 27.208 45.6921 26.7301L45.6551 25.2964C45.6427 24.8185 45.7859 24.4433 46.0845 24.1709L46.9805 23.3538C47.2791 23.0814 47.5938 22.827 47.9246 22.5906L48.917 21.8812C49.2478 21.6448 49.4927 21.3347 49.6515 20.9511L50.1282 19.8001C50.287 19.4164 50.5165 19.0951 50.8165 18.8363L51.7166 18.0598C52.0166 17.801 52.3324 17.5615 52.6639 17.3415L53.6583 16.6814C53.9897 16.4613 54.2699 16.1821 54.4988 15.8437L55.1854 14.8285C55.4143 14.4902 55.6967 14.2152 56.0327 14.0038L57.0407 13.3694C57.3767 13.158 57.7624 13.0237 58.1978 12.9666L59.5039 12.7955C59.9392 12.7384 60.2288 12.4555 60.3726 11.9467L60.8039 10.4203C60.9477 9.9115 61.2336 9.63167 61.6617 9.58081L62.946 9.42824C63.3741 9.37738 63.7548 9.24432 64.088 9.02904L65.0878 8.38319C65.4211 8.16791 65.7588 7.95687 66.1009 7.75006L67.1271 7.12963C67.4692 6.92282 67.811 6.70718 68.1526 6.4827L69.1772 5.80928C69.5188 5.58481 69.9134 5.51556 70.3611 5.60155L71.704 5.85952C72.1517 5.94551 72.5745 5.97692 72.9726 5.95375L74.1667 5.88425C74.5647 5.86109 74.9412 5.75334 75.2961 5.56102L76.361 4.98404C76.7159 4.79171 77.0839 4.64585 77.4648 4.54646L78.6077 4.24829C78.9887 4.1489 79.3654 3.9959 79.7378 3.78931L80.8551 3.16953C81.2275 2.96293 81.6239 3.0056 82.0444 3.29751L83.3058 4.17327C83.7262 4.46519 84.127 4.50243 84.5081 4.28499L85.6514 3.63267C86.0325 3.41523 86.3035 3.32067 86.4644 3.34901L86.9472 3.43401C87.1081 3.46235 87.3899 3.38158 87.7926 3.1917L89.0007 2.62208Z" fill="white" stroke="white" stroke-width="5"/>
</svg>
